<?xml version="1.0" standalone="no"?>
<!DOCTYPE svg PUBLIC "-//W3C//DTD SVG 1.1//EN" "http://www.w3.org/Graphics/SVG/1.1/DTD/svg11.dtd" >
<svg>
<metadata>
Created by FontForge 20090622 at Mon Nov 28 22:58:14 2016
 By deploy user
Use for selling                                                                            License Please 
</metadata>
<defs>
<font id="AiletFinesHerbes-Italic" horiz-adv-x="243" >
  <font-face 
    font-family="Ail et Fines Herbes"
    font-weight="400"
    font-style="italic"
    font-stretch="normal"
    units-per-em="1000"
    panose-1="2 0 0 0 0 0 0 0 0 0"
    ascent="750"
    descent="-250"
    x-height="185"
    cap-height="465"
    bbox="-155 -349 1460 525"
    underline-thickness="50"
    underline-position="-50"
    slope="-12"
    unicode-range="U+0020-U+2019"
  />
<missing-glyph horiz-adv-x="150" 
 />
    <glyph glyph-name=".notdef" horiz-adv-x="150" 
 />
    <glyph glyph-name="one" unicode="1" horiz-adv-x="263" 
d="M243 426q2 -26 2 -51v-51l-22.5 -161t-15.5 -163h-4q7 81 11 162.5t9 163.5q5 25 9 50l8 50l1 6q-20 -50 -30.5 -103.5t-28.5 -104.5t-52 -95t-101 -74l-15 -9l-2 3l16 8q22 16 41.5 34t35.5 38q31 30 50.5 69t33.5 81t25.5 84t26.5 80l3 -1z" />
    <glyph glyph-name="two" unicode="2" horiz-adv-x="358" 
d="M64 -75q48 -2 93.5 -11l91.5 -19l-1 -3q-46 10 -92.5 19t-94.5 11q-6 -7 -12.5 -13t-17.5 -10q-4 2 -7 6t-3 8q0 9 10.5 10.5l17.5 2.5q6 0 8 -1v1l4 4l4 4q46 53 87 110.5l81 116.5l49.5 79.5t38.5 82.5v9q0 19 -6 36.5t-16.5 30.5t-25.5 20.5t-33 7.5
q-33 0 -57.5 -15.5t-41 -40.5t-25 -56.5t-8.5 -63.5q0 -9 1.5 -19t5 -19t10.5 -15t19 -6q8 0 15 2.5l15 5.5l2 -3q-8 -3 -15.5 -5.5t-15.5 -2.5q-16 0 -25 8.5t-13.5 21t-5.5 26t-1 23.5q0 25 7.5 56.5t24 59t42.5 46t63 18.5q24 0 42.5 -9t32 -24.5t20.5 -35.5t7 -41v-9
t-1 -8q-17 -49 -42.5 -88l-52.5 -79l-85.5 -120t-93.5 -109zM32 -97q5 2 11 7.5l12 11.5q-2 1 -6 1q-5 -1 -14.5 -2.5t-9.5 -6.5q0 -3 2.5 -6.5t4.5 -4.5z" />
    <glyph glyph-name="three" unicode="3" horiz-adv-x="421" 
d="M321 439l23.5 -4.5t26.5 -8.5t22 -16t9 -26q0 -21 -15 -35t-36 -23t-43.5 -14.5t-37.5 -8.5q10 -3 28.5 -21t37 -45.5t32 -61.5t13.5 -69q0 -32 -19 -58t-47.5 -45t-62.5 -29.5t-64 -10.5q-26 0 -55.5 7.5t-54.5 22.5t-41.5 36.5t-16.5 50.5q0 21 10 37t24.5 27.5
t31.5 18.5t32 10l1 -3q-15 -3 -30 -10t-27 -18t-20 -24.5t-8 -28.5q0 -25 15.5 -45t39.5 -34.5t52.5 -22t53.5 -7.5q27 0 58 9.5t57.5 26.5t44.5 40.5t18 51.5q0 24 -9.5 56t-25 61.5t-35.5 51t-40 25.5q-4 0 -10 -2l-18 -4l-1 3q10 7 21 7h4q19 6 40.5 15.5t40.5 20
t31.5 22.5t12.5 23q0 14 -13 22.5t-31.5 13.5t-38.5 6.5t-33 1.5q-21 0 -43.5 -3t-42 -11.5t-34 -23.5t-17.5 -38h-3q4 25 20.5 41.5t39.5 26.5t49.5 13.5t50.5 3.5h16.5t16.5 -1z" />
    <glyph glyph-name="four" unicode="4" horiz-adv-x="319" 
d="M297 219q2 -6 2 -9q0 -16 -11.5 -22.5t-22.5 -11.5l-29 -63t-30.5 -71.5t-25 -73.5t-11.5 -68h-3q0 14 3 27l6 27q11 54 26.5 110.5t43.5 106.5q-38 -5 -72.5 -8.5t-71.5 -3.5q-10 0 -23.5 -0.5t-26 1t-21 7.5t-8.5 18q0 17 9 35t18 32q33 53 72.5 96t84.5 85l16 17l2 -2
l-16 -17l-45 -57l-43 -58l-27 -32.5t-27.5 -35.5t-21 -35t-8.5 -31q0 -9 6 -10q27 -2 55.5 -3.5t57.5 -1.5q24 0 47 1t46 7q4 6 10 14t12.5 14.5t12.5 11.5t11 5h2v-2zM272 182q9 3 16.5 10.5t7.5 17.5q0 5 -1 7q-10 0 -17 -13t-12 -24q2 1 3 1t3 1z" />
    <glyph glyph-name="five" unicode="5" horiz-adv-x="348" 
d="M85 261q23 8 49 13.5t52 5.5q25 0 50 -7t45 -22t32.5 -38t12.5 -56q0 -36 -13.5 -65.5t-37 -51t-55 -33.5t-66.5 -12q-28 0 -53 6.5t-44 20t-30.5 34t-11.5 47.5q0 19 8 43t22.5 45t34.5 36.5t45 18.5v-3q-23 -3 -42.5 -17.5t-33.5 -35t-22 -43t-8 -42.5q0 -50 37.5 -75
t91.5 -25q35 0 64 11t50 31.5t33 48.5t12 61q0 30 -12.5 51t-32.5 34.5t-45.5 19.5t-50.5 6q-41 0 -82 -11q-2 -12 -12 -20.5t-24 -8.5q-3 0 -7.5 1.5t-5.5 6.5q1 4 3 5t4 3l1 -1l-1 1q10 5 20.5 8t19.5 8q0 19 -6.5 36.5t-14.5 35t-14.5 36t-6.5 38.5q0 2 0.5 3t0.5 3l1 4
v4l6 6l-1 -1h1l10 2l104 12q28 -1 55 -1t55 -2l17 1v-3l-17 -1q-27 -4 -54.5 -7.5t-54.5 -8.5l-69 -5h-39v-2q-1 -5 -1 -16q1 -16 6.5 -31t10.5 -30.5t9.5 -31.5t4.5 -33v-7zM61 234q8 2 13 8t7 14q-2 0 -9 -2.5t-14.5 -5.5t-13.5 -6t-6 -5q0 -5 13 -5q7 0 10 2z" />
    <glyph glyph-name="six" unicode="6" horiz-adv-x="309" 
d="M119 180q28 11 58 11q21 0 40 -6.5t33.5 -19.5t23 -33.5t8.5 -48.5q0 -34 -13 -61t-35 -45.5t-50 -28t-59 -9.5q-30 0 -50.5 11.5t-33 30t-18 42t-5.5 47.5q0 50 15.5 98t40.5 94t55.5 89.5l59.5 84.5l22 33l3 -2l-22 -33q-35 -52 -64 -106t-52 -111q-15 -39 -28 -77.5
t-13 -80.5q0 -22 5 -41.5t16.5 -34.5t29.5 -23.5t44 -8.5q29 0 55.5 9.5t47 26.5t32.5 42t12 57q0 53 -29.5 77.5t-69.5 24.5q-30 0 -58 -11l-1 3v0z" />
    <glyph glyph-name="seven" unicode="7" horiz-adv-x="240" 
d="M209 430q6 -4 10.5 -8.5t6.5 -16.5q0 -7 -1 -12.5l-2 -11.5q-25 -81 -53.5 -159l-58.5 -156q20 -2 39.5 -3t39.5 -3l25 1v-3l-25 -1q-22 -2 -43 -5t-44 -5l-41.5 -108.5t-44.5 -108.5l-3 1q23 53 43 106.5t38 108.5q-9 3 -18 5.5t-18 5.5l-6 1l1 3l5 -1q10 2 19 4l18 4
q2 -1 6 -1q28 80 53 159t47 160l5 20q-17 17 -36.5 22t-46.5 5t-54 -3l-28 -5l-1 3l29 5q20 3 39 7t39 3q14 0 30.5 -1.5t30.5 -11.5z" />
    <glyph glyph-name="eight" unicode="8" horiz-adv-x="326" 
d="M182 251l37.5 -22.5t40.5 -28t32 -35.5t13 -45q0 -31 -19.5 -52.5t-42.5 -36.5v-1q0 -29 -20.5 -39.5t-46.5 -10.5t-52.5 8t-49 23t-36.5 37.5t-14 51.5t12.5 51t31 39.5t40.5 30.5l41 24v-1v1l-24.5 14t-24.5 18.5t-18.5 24.5t-7.5 33q0 23 11 43.5t28.5 36t39.5 24.5
t44 9q19 0 36 -8t30 -21t20 -30.5t7 -35.5q0 -21 -15.5 -39.5t-34.5 -32.5t-37 -22t-22 -8h1zM97 318q4 -11 11.5 -19.5t18 -16t22 -13.5t23.5 -13q10 6 27.5 14.5t34.5 20.5t30 27t13 33q0 16 -6.5 31t-17 26t-24.5 18t-29 7q-19 0 -38 -8t-34 -21.5t-24.5 -31t-9.5 -35.5
q0 -10 3 -19zM242 38q21 15 36 35.5t15 44.5q0 21 -14 39.5t-35 33.5t-44 27l-41 21q-21 -9 -44 -22.5t-42 -30.5t-31.5 -39t-12.5 -49t13.5 -48.5t34.5 -36t46.5 -22t49.5 -7.5q25 0 46 9.5t21 35.5q-23 -15 -50.5 -24t-54.5 -12v3q29 3 54 13t50 26v1q-1 2 -1 3t-1 3l3 1
q1 -2 1 -2.5t1 -2.5l-1 -1h1v1z" />
    <glyph glyph-name="nine" unicode="9" horiz-adv-x="343" 
d="M317 418q3 -27 3 -54q0 -67 -22 -129q5 -32 9 -64t4 -65v-15v-6q0 -36 -16.5 -65.5t-42 -51t-57 -33.5t-61.5 -12h-12t-11 2v3q5 -2 11 -2h12q31 0 60.5 12t52.5 32.5t37.5 48t14.5 58.5q0 32 -4.5 63.5t-10.5 63.5q0 -1 -1 -1q-17 -32 -49 -54t-70 -22q-36 0 -63 14
t-45 37.5t-26.5 53t-8.5 60.5q0 39 12 66t33.5 44t50.5 24.5t62 7.5q22 0 44 -2.5t43 -7.5l-1 -3q-21 5 -42.5 7.5t-43.5 2.5q-73 0 -111 -35t-38 -96q0 -28 8 -56t23.5 -50t39 -36t54.5 -14q24 0 41.5 7t32 19.5t26 29t22.5 36.5q-4 23 -6.5 43.5t-2.5 43.5q0 15 2.5 36
t7 39.5t11 32t14.5 13.5q10 0 11 -10t3 -16zM293 272q22 61 22 123v11.5t-1.5 15.5t-4 14t-6.5 6q-6 0 -10.5 -10t-7 -23t-3.5 -26.5t-1 -19.5q0 -9 0.5 -21.5t1.5 -25t3.5 -24.5t6.5 -20z" />
    <glyph glyph-name="A" unicode="A" horiz-adv-x="1046" 
d="M238 -112q-41 8 -77 26.5t-63 48t-43 69t-16 90.5t18.5 95.5t51.5 78.5t77.5 53.5t96.5 19.5q38 0 73.5 -11.5t64.5 -34.5q5 -3 8.5 -6.5t8.5 -6.5q4 -3 15 -7t23.5 -10t24 -15t15.5 -22q0 -4 -1.5 -10t-8.5 -8q-8 0 -10.5 2.5t-4.5 6.5l-1 -1q0 1 -2 3l-1 1
q-11 17 -23.5 30.5l-26.5 27.5v1q-35 28 -71.5 42.5t-79.5 14.5q-51 0 -94.5 -19.5t-76 -52.5t-51 -77t-18.5 -93q0 -74 29.5 -121t75 -73.5t101 -36.5t107.5 -10q61 0 123 7t124.5 17t124.5 22t124 22l60.5 10t60.5 11q-3 0 -5 -1v2h5q-3 24 -3 49q0 26 2 52t10 52
q3 10 8.5 23.5t5.5 20.5q-14 3 -26.5 6.5t-26.5 6.5l-49.5 -59.5t-69 -70.5t-83 -58.5t-90.5 -24.5q-15 0 -35.5 4t-40.5 11.5t-36 17.5t-23 23l-10 18q1 -2 1 -4.5t1 -4.5h-1q-3 13 -8 24.5l-10 23.5t-8.5 24t-3.5 27q0 34 17.5 55.5t44 34t57.5 17.5t58 5q75 0 147 -16.5
t144 -37.5q35 42 66 87.5t57 93.5l10 34l10 34h1q-8 -33 -18 -62q9 15 14.5 35.5l10.5 38.5l3 -1q-2 -8 -4.5 -17t-5.5 -17h1q-1 -1 -1 -2t-1 -3q-17 -60 -39 -119.5t-39 -120.5q15 -5 30 -9t29 -9v-2q32 -6 65 -9q13 2 25.5 3t24 4.5t22 10.5t18.5 20h-1q1 3 1 10t-3.5 14
t-3.5 15q0 7 1.5 18.5t11.5 11.5q7 0 8.5 -6t1.5 -8q0 -4 -1.5 -7t-1.5 -7l-1 -3q-1 -11 -3.5 -20t-6.5 -18h-1q-9 -14 -19.5 -21t-22.5 -10.5t-24 -5t-24 -2.5q-32 2 -63 9.5t-63 14.5q-9 -32 -14.5 -66t-5.5 -68q0 -15 1 -29.5t4 -28.5q2 0 5 0.5t5 0.5l61.5 10t63.5 5
q42 0 71.5 -21.5t29.5 -70.5q0 -20 -7 -33t-18.5 -20.5t-25.5 -10t-27 -2.5q-18 0 -39.5 3t-40.5 10q-8 2 -31.5 19t-45.5 49q-7 11 -14 26t-7 27q-31 -5 -61 -10.5t-61 -10.5l-124 -23t-126 -22.5t-125.5 -17.5t-123.5 -7q-30 0 -59.5 2.5t-58.5 9.5zM1060 -20
q-15 -2 -30.5 -4.5t-31.5 -5.5q0 -26 16 -54t35 -47q21 -15 43 -20t40 -5q16 0 31 2.5t27 9.5t19 19t7 32q0 29 -8.5 45t-23 23t-33 8t-37.5 1q-14 0 -27 -1t-27 -3zM1230 196q0 -6 -1 -9q7 15 9 33l-1 3q0 3 -4 9q2 4 2 5q0 2 -2 3q-2 -1 -2 -3q0 -1 2 -5q-3 -5 -3 -8v-2
v-5v-15v-6zM1072 373q-8 -28 -17.5 -55l-19.5 -54l22.5 61t22.5 62q-2 -4 -4 -7.5t-4 -6.5zM1034 308q-38 -61 -82 -117q11 -4 24.5 -7.5l25.5 -6.5l34.5 94t32.5 96q-8 -15 -17 -29.5zM891 124l25.5 30l25.5 30q-73 17 -146.5 31t-147.5 14q-26 0 -53 -6.5t-49 -19
t-37 -32.5t-17 -47q2 -18 4.5 -37t11.5 -36l13 -24l-1 -1q7 -11 22.5 -20t34 -15.5t38 -10t34.5 -3.5q34 0 67 13.5t63.5 35t59 47.5t52.5 51zM986 126q-6 -21 -9 -44q2 12 4.5 23.5t5.5 22.5q-1 -1 -1 -2zM447 301q12 -11 22 -23.5t19 -26.5l1 1l3 -3q3 -2 7 -2q2 0 2 1
q0 18 -16 27.5t-32 22.5z" />
    <glyph glyph-name="B" unicode="B" horiz-adv-x="723" 
d="M89 -16q-31 17 -49 47.5t-20 64.5q-2 35 15 66t44 52q22 17 48 23.5t53 5.5v11t1 11q7 43 31.5 76t58 56.5t73 36.5t78.5 17q5 1 8.5 1t7.5 1q35 8 72 4.5t72 -18.5q23 -12 40.5 -31.5t25.5 -44.5q8 -24 6.5 -49.5t-8.5 -48.5q-7 -25 -25 -45q26 -13 49.5 -34.5
t28.5 -54.5q2 -32 -9.5 -60.5t-28.5 -51.5q-24 -30 -54 -51q-28 -20 -60 -33t-66 -17q1 0 5 -2q70 -41 146.5 -65t157.5 -35q79 -10 160.5 0.5t150.5 54.5q36 23 64 56t48 71h1q-20 -39 -48 -72t-64 -56q-69 -45 -150.5 -56t-162.5 -3q-81 10 -158.5 33.5t-148.5 63.5
q-5 2 -8.5 4.5t-8.5 4.5h-14q-31 -2 -61 4t-59 17v2q29 -11 59 -16.5t61 -4.5q6 0 10 1q-1 0 -5 2q-33 -1 -67 6q-8 2 -15.5 3.5t-15.5 3.5q-7 3 -15 5t-15.5 5.5t-13 9t-8.5 14.5q15 12 31.5 6.5t31.5 -8.5q48 -17 97 -42q55 5 104 31t81 70q0 1 1 2q14 22 21.5 46.5
t5.5 48.5q-5 27 -26 45t-46 29q-3 2 -9 4q-25 -15 -54.5 -20t-56.5 0q-13 1 -25.5 3.5t-25.5 6.5q-6 1 -13 7q-15 -29 -31 -56t-36 -53q-14 -15 -29.5 -29t-32.5 -27q-4 -3 -7.5 -6.5t-7.5 -6.5q-4 -2 -7.5 -5t-7.5 -5l-7 -6v1q-8 -5 -17 -10t-18 -9q-31 -15 -66.5 -17
t-66.5 15zM337 -54q27 -10 55.5 -15.5t57.5 -5.5q-20 10 -41 19.5t-42 17.5q-14 5 -30.5 9.5t-27.5 -3.5q2 -9 10 -14.5t17 -9.5zM475 -79q-1 1 -2 1q6 1 12 1t12 2q-8 -2 -22 -4zM415 211l6 10.5t5 10.5q-3 -1 -6.5 -2t-6.5 -3q-3 -7 2 -16zM420 233q4 2 8 2v2q-6 -2 -8 -4
zM487 184q26 -2 53 3t49 19q-35 15 -73 22.5t-76 5.5q-4 -8 -7.5 -16.5t-8.5 -16.5q7 -6 13 -7q12 -4 24.5 -6.5t25.5 -3.5zM441 237q6 1 12 1.5t12 0.5q-11 2 -23 0zM430 451q-3 -1 -8 -1q-39 -5 -78 -19.5t-71 -37.5t-54.5 -55.5t-28.5 -73.5q-2 -5 -2 -10.5t-1 -11.5
q8 0 15 -1t15 -3v-1q-8 2 -15 2.5t-15 1.5q0 -26 8 -53q10 -20 31 -33l11 -6.5t12 -6.5l6 -4l6 -4l5 -5q2 -6 1 -7t-1 -4q-8 -13 -21.5 -10t-18.5 12l-4 5l-11 17q-13 23 -21.5 48t-9.5 52q-27 1 -53 -5.5t-48 -23.5q-26 -21 -42 -51.5t-14 -65.5q2 -33 20.5 -62.5
t48.5 -44.5q29 -16 63.5 -14t64.5 17q44 21 80 58q11 13 20.5 26t18.5 27q31 37 57 78q5 7 9 13.5l8 13.5q-5 9 -4 17q0 -1 -1 -1l-1 1q3 3 4 3q0 2 1 3q7 7 18 9q22 42 39 84q7 17 12 34l10 34l2 -1l-10 -33.5t-12 -33.5v-1q1 2 1.5 3.5t1.5 3.5q7 17 12 34l10 34l3 -1
l-10 -34t-12 -34q-16 -46 -33 -86q42 6 84 0.5t83 -19.5q17 19 23 44q7 22 6 45.5t-9 44t-23 37t-36 25.5q-31 18 -68 27t-74 4zM198 176q3 -8 6.5 -16.5t7.5 -16.5l11 -17l4 -5q7 -8 18 -8t14 9q-3 6 -10.5 11.5l-16.5 12l-18.5 14t-15.5 16.5zM1210 -5l1 3q-1 11 -5 4
q-9 -7 -13 -18.5l-8 -22.5q-4 -8 -7 -12l-1 1q5 6 6 11q3 12 5 24t12 23q2 1 5.5 3t7.5 -3q2 -3 1 -5.5t-2 -4.5l-1 -4z" />
    <glyph glyph-name="C" unicode="C" horiz-adv-x="823" 
d="M71 410q-18 1 -35 10t-17 29q0 15 8 25.5t19.5 17t25 9.5t24.5 3q36 0 71 -14l69 -27l102 -41.5t104 -40.5l-5 -5q-51 19 -101.5 41.5t-101.5 42.5l-66.5 26.5t-69.5 13.5q-5 0 -15.5 -1t-21 -4.5t-18.5 -10t-8 -16.5q0 -11 11 -15.5t24 -8t24 -7.5t11 -13t-8.5 -12.5
t-13.5 -3.5q-4 0 -12 2zM22 449q0 -13 8 -20.5t19 -11.5l1 1q10 -5 26 -5q8 0 14.5 2.5t6.5 9.5q0 5 -10 8l-22.5 6.5t-22.5 10t-10 18.5q0 9 7 14q-14 -11 -17 -29v-4zM455 369l-18 7q20 22 42 39t47.5 30.5t53.5 22t55 8.5q19 0 41.5 -6.5t41.5 -19t31.5 -30t12.5 -39.5
q0 -16 -9.5 -27t-23.5 -18.5t-30 -11t-30 -3.5q-57 0 -109 15.5l-105 32.5q2 2 2.5 3t3.5 3q47 -17 96 -30.5t100 -13.5q13 0 29 2.5t30.5 8t24 15t9.5 23.5q0 19 -11 34t-28 25.5t-37 16t-38 5.5q-42 0 -83.5 -21t-74.5 -47zM339 130q0 69 26 132t72 114l9 -3.5l9 -3.5
q-43 -47 -68.5 -106.5t-25.5 -122.5q0 -42 15 -77t42 -60.5t64.5 -40t82.5 -14.5q48 0 98.5 13t93.5 33q3 3 5.5 8.5t6.5 11.5t9.5 10.5t13.5 4.5q10 0 10 -9q0 -5 -3 -7.5t-5 -4.5v-2q-1 0 -2 -1q-55 -24 -115.5 -45t-123.5 -21q-44 0 -81.5 14t-66 39.5t-46 60.5t-20.5 77
zM763 0q-2 -4 -3 -5l22.5 9t12.5 16q0 2 -2 2h-3q-8 0 -15 -7t-12 -15z" />
    <glyph glyph-name="D" unicode="D" horiz-adv-x="595" 
d="M37 85q-7 9 -11.5 20.5t-4.5 23.5q0 9 6 17t16 8q11 0 21 -3t19 -7q-31 53 -31 114q0 57 22.5 97t58.5 66t80 38t87 12q59 0 110 -18t89 -52t60 -81.5t22 -106.5q0 -46 -14.5 -87.5t-41 -74.5t-64.5 -57t-85 -36q93 -63 197.5 -102.5t217.5 -39.5q90 0 172 26.5t158 72.5
q5 4 10 10.5l10.5 13t10.5 11t10 4.5q6 0 11 -4q-4 -12 -9.5 -13.5t-11.5 -5.5l-2 -1l1 -1q-84 -52 -174.5 -84t-189.5 -32q-115 0 -220 40t-200 103q-14 -4 -29.5 -5.5t-29.5 -1.5q-83 0 -147.5 34.5t-120.5 95.5l1 1q-3 3 -4 5zM1121 -86q-2 -2 -4.5 -3.5t-5.5 -3.5
q10 5 19 11t18 11l4 3q5 2 8.5 8t5.5 7h-2q-4 0 -9 -4t-10 -9.5t-11 -11t-13 -8.5zM91 366q-32 -50 -32 -111q0 -62 33 -115q13 -8 24.5 -14l24.5 -13l1 6l23 92t20 93l13.5 35.5t12.5 35.5l3 12l3 -1l-3 -12q-6 -70 -26 -131.5t-43 -124.5l-2 -6l55.5 -32l52.5 -33
q22 -3 44 -3q48 0 93 12.5t81 43.5l-1 1q5 6 7 19t5 26.5t10 25t22 15.5q9 -6 9 -13q0 -5 -2.5 -10t-4.5 -8l-2 -5l-1 1l2 4q2 6 2 12q0 11 -5 11q-11 -2 -16 -11.5t-8.5 -22t-6.5 -24.5t-9 -19q25 22 40 50l1 -1q-16 -29 -40 -50t-53 -34.5t-61.5 -19.5t-66.5 -6
q-8 0 -16.5 0.5t-16.5 1.5l47.5 -34l47.5 -34q49 7 89 28.5t68.5 54t44.5 74t16 88.5q0 60 -22.5 106t-60 77.5t-86.5 48t-101 16.5q-44 0 -86 -12l-1 1q-38 -12 -70 -34.5t-52 -56.5zM137 91q42 -30 95 -41l-45 27.5l-46 27.5zM139 106q-10 5 -19.5 10.5t-19.5 12.5
q8 -11 16.5 -19l17.5 -17zM42 149q-8 0 -12 -6.5t-4 -14.5q0 -17 6.5 -29t16.5 -25q47 -53 107.5 -79t127.5 -26q14 0 29 2t29 2l-51.5 37.5t-51.5 35.5q-28 5 -54 14.5t-49 26.5l-6 -18l-3 1l6 19q-13 8 -24.5 20t-19.5 26q-11 5 -21.5 9t-22.5 5h-3z" />
    <glyph glyph-name="E" unicode="E" horiz-adv-x="732" 
d="M154 -50q-33 16 -56.5 41t-39.5 55.5t-23.5 65t-7.5 70.5q0 61 22 114.5t60.5 92.5t89.5 61.5t109 22.5q50 0 95 -14.5t90 -38.5l3 3h1q26 22 60.5 38t69.5 16q17 0 33.5 -7t29.5 -19t21 -27.5t8 -31.5q0 -14 -6.5 -24t-17 -16.5t-23.5 -10t-26 -3.5q-24 0 -44.5 7.5
t-39.5 19t-36.5 24t-35.5 23.5q-15 -15 -27.5 -31.5t-21.5 -36.5q28 -14 49.5 -35t36.5 -47.5t22.5 -56.5t7.5 -61q0 -41 -13 -76t-36 -63.5t-54 -49t-66 -30.5q45 -15 96 -15q42 0 82.5 10.5t72 32t51 54t19.5 75.5h3q0 -46 -21.5 -79.5t-55 -55.5t-75.5 -32.5t-83 -10.5
q-26 0 -53.5 4t-50.5 14q-3 -3 -12 -4.5t-19.5 -2.5t-20.5 -1h-16q-39 0 -77.5 9.5t-73.5 26.5zM498 421q-1 -1 -1 -1.5t-1 -1.5q18 -11 35.5 -24t35.5 -24t38 -18.5t42 -7.5q26 0 46.5 13.5t20.5 36.5q0 16 -8 30t-20.5 25t-28 17.5t-31.5 6.5q-35 0 -68 -15.5t-60 -36.5z
M75 335q-22 -35 -31.5 -74.5t-9.5 -80.5q0 -62 20.5 -110t57 -82t87 -51.5t110.5 -17.5q14 0 28.5 1t28.5 4q-27 11 -51 29t-42 41.5t-28.5 52t-10.5 61.5q0 37 14 71t38.5 60t57.5 41.5t72 15.5q-3 -11 -3 -21q-33 0 -62.5 -13t-52 -36.5t-36 -54.5t-13.5 -67q0 -33 11 -61
t29.5 -50.5t42.5 -39t50 -25.5q36 9 67.5 29t55 48.5t36.5 64.5t13 76q0 30 -7.5 59.5t-22 56t-35.5 47.5t-49 34q-8 -16 -14 -33t-6 -36q3 0 5 -7.5t4.5 -16t7 -16t11.5 -7.5q5 0 10.5 4.5t5.5 13.5q0 13 -13 21t-27 8v11t1 11q9 0 18.5 -3.5t18 -10t14 -15.5t5.5 -20
q0 -14 -9 -24.5t-23 -10.5q-13 0 -20.5 7t-11 16t-4.5 18t-1 14q0 2 0.5 4t0.5 4q4 0 6 -1v11.5t1 10.5h-4q4 25 19 49q-38 16 -73 16q-43 0 -83 -16.5t-71 -45.5t-50 -68t-19 -84q0 -11 1 -24.5t4 -27t8 -25t13 -17.5q4 -3 10 -6.5t11.5 -7.5t9.5 -9.5t4 -12.5q0 -3 -2 -11
q-11 0 -16 9v-1q-22 29 -33.5 63.5t-11.5 69.5q0 44 18.5 83t50 68.5t71.5 47t84 17.5q37 0 74 -16l2 2q11 21 24.5 37t30.5 33q-2 -1 -2.5 -2t-2.5 -3q-39 23 -86.5 37.5t-94.5 14.5q-72 0 -133.5 -35.5t-97.5 -95.5zM177 27h2l1 -4q2 -5 6.5 -7.5t7.5 -2.5h1q0 8 -4.5 14
t-10.5 11.5t-12.5 10.5t-10.5 11q9 -23 24 -42q-2 4 -2 5zM696 97q-5 -3 -5 -9q0 -8 3 -18.5t3 -22.5q0 -17 -5 -34l-1 1q2 5 3 9t1 9q0 17 -5.5 30.5t-5.5 27.5q0 4 2.5 10t10.5 6t11 -7.5t3 -11.5v-5l-1 4q-4 13 -12 13q-2 0 -2 -2zM416 296q-3 -5 -3 -13v-8l12 -1v22h-9z
" />
    <glyph glyph-name="F" unicode="F" horiz-adv-x="349" 
d="M394 261v-4t-4 -2q0 2 0.5 3t0.5 3h3zM450 260q-14 -5 -29.5 -8t-31.5 -5q2 2 4 8q30 2 59 9.5t57 19.5l1 -3q-29 -12 -60 -21zM54 319q-13 4 -23 16t-10 27q0 18 8.5 31t22 21.5t30 12.5t32.5 5q38 0 73.5 -8.5t69 -21.5t65.5 -28.5t65 -28.5q2 4 4 7.5t4 8.5l3 -2
q-2 -4 -4 -7.5t-4 -7.5q65 -31 137 -31q30 0 61 8t58.5 23t51 37t39.5 50q0 8 -1 15.5t-1 15.5q0 7 2 14t9 14q11 -2 11 -10q0 -3 -1 -5.5t-1 -4.5l1 -1q-10 -38 -34.5 -68.5t-57.5 -52t-71.5 -33t-75.5 -11.5q-34 0 -67.5 7.5t-64.5 20.5q-7 -19 -12.5 -38t-10.5 -39
q3 -1 6.5 -1h6.5q10 0 15 1q-3 -8 -8.5 -9t-11 -1t-9.5 -1t-4 -9q7 2 18.5 6t13.5 6q0 -4 -4.5 -7.5t-10.5 -7t-11.5 -6t-8.5 -3.5q-5 -20 -14 -52t-22 -68t-31 -73t-41.5 -67t-54 -48.5t-67.5 -18.5q-39 0 -69 22.5t-30 66.5q0 26 13 52h-1q2 4 6 11t9.5 13.5t12.5 11
t16 4.5q15 0 25 -12q-2 -11 -13 -15l-24 -8.5t-25 -14t-15 -30.5q0 -3 0.5 -6t0.5 -6h-1v5q0 -2 -0.5 -4t-0.5 -4q0 -19 7.5 -33.5t20 -24.5t28.5 -15t32 -5q30 0 55 14t46 36q26 27 43.5 59t30 66.5t23.5 70.5t23 69q-5 -1 -8.5 -1h-8.5q-20 0 -39.5 11.5t-19.5 36.5
q0 3 2 7.5t9 6.5q3 0 4 -0.5t3 -0.5q20 -9 35 -14t36 -9l15.5 39t16.5 38q-32 12 -63 25.5t-62.5 25t-63.5 19t-65 7.5q-15 0 -31.5 -1t-30.5 -6t-23.5 -15.5t-9.5 -28.5t16.5 -28.5t36.5 -13.5q12 2 20 8.5t14.5 14t13 13t16.5 5.5q5 0 12.5 -4t7.5 -12t-7.5 -13t-13.5 -7
l-6 -3q-11 -5 -23 -6.5t-23 -1.5q-21 0 -43 8zM124 334q-15 -15 -32 -18q5 -1 9.5 -1h9.5q9 1 17.5 2.5t16.5 6.5l1 -2l2 1q5 3 10.5 8t5.5 10q0 3 -5 6.5t-9 3.5q-7 0 -14 -5.5t-12 -11.5zM70 67q-25 -15 -35 -44q4 7 14.5 13.5t21.5 12t19.5 9t10.5 3.5l1 -1q0 4 -9.5 6.5
t-11.5 2.5q-5 0 -11 -2zM342 234l2 6l2 6q-16 0 -32.5 4t-30.5 9q-2 3 -2.5 6t-1.5 3v-1q0 -1 -2.5 -3t-3.5 -2q7 -2 13 -6.5l12.5 -9.5t16.5 -8.5t27 -3.5zM749 482q-8 -6 -9 -20l-2 -28q10 16 15 36q0 4 -1.5 8t-2.5 4zM283 259l-4 11l-7 -8z" />
    <glyph glyph-name="G" unicode="G" horiz-adv-x="579" 
d="M213 -153q-57 8 -104.5 30t-89.5 58v1q41 -37 88.5 -57.5t100.5 -26.5q-8 10 -8 20q0 6 3 12q10 19 29 30.5t42 18t47.5 8.5t45.5 2q23 0 47 -1.5t48 -3.5q4 13 7.5 27t6.5 28q-22 -17 -48 -28t-55 -11q-72 0 -121 24t-79 62.5t-43 85.5t-13 93q0 55 23.5 105.5t62.5 88
t89.5 60t104.5 22.5q45 0 82.5 -17t63.5 -52l1 1l3 -5l16.5 -23.5t8.5 -23.5q0 -3 -1 -7t-7 -4q-8 0 -13.5 6t-9.5 15t-5.5 18.5t-2.5 16.5q-5 20 -19.5 33.5t-33 21.5t-39 11.5t-38.5 3.5q-53 0 -102 -22t-86.5 -58.5t-60 -84t-22.5 -98.5q0 -58 17.5 -104.5t49.5 -79.5
t76 -51t97 -18q30 0 56 12.5t54 36.5l8 35t9 36q3 10 9 26t14 31t17.5 26t19.5 11q7 0 9 -7l2 -8q1 -5 1.5 -10.5t0.5 -10.5q0 -21 -7 -42t-18 -39.5t-25 -34.5t-28 -28q-3 -18 -7.5 -36.5t-10.5 -35.5q5 0 8 -1q58 -8 116.5 -13.5t116.5 -14.5l141.5 -23t143.5 -21.5
t143.5 -15.5t142.5 -6q22 0 44.5 4t42.5 4q15 0 22 10t7 21q0 4 -1 8t-1 8q0 10 9 15q11 0 12.5 -8t1.5 -13v-4q0 -18 -14.5 -27.5t-35.5 -14t-44.5 -5.5t-42.5 -1q-72 0 -144 6t-143.5 15.5t-143 21t-141.5 21.5q-58 8 -116 13t-117 13q-6 0 -9 1l-11 1q3 -1 11 -1
q-12 -33 -23.5 -57t-25.5 -39t-32 -22.5t-44 -7.5q-35 2 -74 11.5t-62 32.5zM1413 -97q-3 -2 -3.5 -8.5t-1.5 -14t-3 -15t-9 -11.5q10 5 18 11.5t8 17.5q0 4 -1 7l3 1q-2 5 -4.5 9t-4.5 4q-1 0 -2 -1zM515 89q-4 -11 -7 -23l-6 -24q23 25 37.5 54t14.5 61v8q-1 0 -1 -1
q-14 -16 -23.5 -35.5t-14.5 -39.5zM553 406q-11 18 -24 33q1 -5 3.5 -16.5t6.5 -23t10 -20.5t15 -9q1 0 1 1q0 5 -4 16.5t-8 19.5v-1zM435 -130l10 23.5t10 24.5q-31 -43 -75 -59.5t-95 -16.5q-26 0 -51 3q9 -9 24 -14.5t32.5 -9t34.5 -5t29 -1.5q28 0 49.5 14.5t31.5 40.5z
M213 -120q-2 -3 -2 -8q0 -10 6.5 -15t16 -7t21 -2h20.5q25 0 52.5 4t53 13.5t46 25t32.5 39.5q-22 2 -43.5 3.5t-43.5 1.5q-21 0 -46 -2.5t-47.5 -8.5t-40 -17t-25.5 -27z" />
    <glyph glyph-name="H" unicode="H" horiz-adv-x="537" 
d="M59 127q-17 15 -27.5 36.5t-10.5 44.5q0 33 16.5 65t42 60.5t56 53.5t58.5 45l17.5 13t20.5 14t22 11.5t22 4.5q2 0 4 -0.5t4 -0.5q22 -9 33 -29t14.5 -42.5t3 -43.5t-0.5 -32q0 -35 -3 -68.5t-8 -67.5q34 6 68 15l69 18q17 45 37 90.5t47 87.5q7 11 17.5 25.5t23.5 27
t28 21t30 8.5q12 0 19 -5t11.5 -13t6 -17.5t1.5 -18.5q0 -43 -19 -78.5t-50 -63t-70.5 -46.5t-80.5 -30q-26 -71 -46 -145.5t-20 -149.5q0 -12 2.5 -24t8 -22.5t14.5 -17t22 -6.5q31 0 55.5 19.5t43 48t30.5 61.5t19 60l1 -1q-7 -28 -19 -61.5t-30.5 -62t-43.5 -48
t-57 -19.5q-14 0 -23.5 6.5t-15 17t-8 23.5t-2.5 25q0 74 19 148.5t44 146.5q-34 -10 -67 -18.5t-67 -15.5q-8 -40 -16.5 -72.5t-32.5 -64.5q12 -2 23.5 -4.5t22.5 -4.5h2q6 -2 12 -3t13 -1q13 0 22 3q-13 8 -29.5 9t-31.5 1h-24l24 2q6 0 12 0.5t13 0.5q13 0 23.5 -4.5
t18.5 -4.5h2q1 0 1 -3v-4l-6 -3q-4 -2 -12 -4q-18 0 -42.5 6.5t-45.5 11.5q-6 -12 -18.5 -27t-28.5 -28t-33.5 -21.5t-33.5 -8.5t-27.5 8t-19.5 20.5t-12 27.5t-4 29q0 15 4.5 28.5t12.5 25.5q-14 8 -26.5 16t-24.5 19zM494 294q-14 -32 -28 -68q35 8 71.5 26t66.5 44
t49.5 60.5t19.5 75.5q0 17 -7 30.5t-23 13.5q-6 0 -9 -1q-27 -11 -47.5 -31.5t-37 -45t-29.5 -52zM168 -28q25 9 45.5 28.5t37.5 41.5q-32 8 -64.5 17.5t-63.5 25.5q-6 -11 -10 -23t-4 -24t3 -24t9 -22t14.5 -16.5t19.5 -6.5q5 0 13 3zM297 150q1 5 1.5 11t1.5 11
q-24 -5 -49 -11.5t-48.5 -15.5t-43 -22.5t-32.5 -32.5q29 -16 61.5 -26.5t64.5 -18.5q18 24 29 49.5t15 55.5zM32 213q0 -2 -0.5 -4t-0.5 -4q0 -36 24.5 -62t57.5 -46q15 22 37.5 37t48 25t52.5 16t52 11q5 35 7.5 69t2.5 69q0 12 -0.5 33.5t-4 43.5t-11 38t-21.5 16
q-7 0 -16 -4t-17 -9q-28 -17 -63.5 -41.5t-67.5 -54.5t-55 -64t-25 -69z" />
    <glyph glyph-name="I" unicode="I" horiz-adv-x="700" 
d="M52 -212q-12 11 -18.5 27.5t-6.5 33.5q0 15 6 29.5t19 24.5l2 -3q-13 -10 -18.5 -23.5t-5.5 -27.5q0 -22 9 -38.5t24 -28t33.5 -17t37.5 -5.5q10 0 19.5 1t18.5 3q53 16 104 38t101 46l99.5 48.5l100.5 47.5q-29 -10 -56 -18t-58 -8q-11 0 -34.5 2.5t-47 11t-41 25
t-17.5 45.5q0 6 2 16l-1 4q0 3 3 8.5t8 5.5t7.5 -3.5t2.5 -7.5q0 -6 -2.5 -9.5t-5 -7.5t-5 -9t-2.5 -13q0 -7 2.5 -11t4.5 -9v-1q-5 8 -7 13t-2 13q0 11 5 20t5 14q0 4 -4 4q-6 0 -8 -9.5t-2 -17.5q0 -25 14.5 -40.5t35.5 -23.5t43.5 -11t38.5 -3q38 0 81.5 11t81.5 26
q0 50 12.5 95t26.5 90q19 59 40 117.5l42 115.5l3 -1q-21 -57 -39 -116.5t-34 -119.5q-11 -40 -20.5 -79.5t-9.5 -79.5v-13q16 7 32 11.5t34 4.5q12 0 28.5 -3t32 -10.5t26 -20.5t10.5 -33q0 -17 -7 -29.5t-18.5 -21.5t-25.5 -13.5t-27 -4.5q-20 0 -38 8t-32.5 21.5
t-23.5 31t-12 37.5l11.5 4l10.5 4q2 -33 25 -60t61 -27q21 0 40 14t19 38q0 13 -7.5 22.5t-19.5 16t-26 9.5t-27 3q-17 0 -32.5 -5l-32.5 -11l-22 -8q-2 -1 -8 -3q-55 -22 -109 -47l-108 -50t-109 -48t-113 -39q-9 -2 -18 -3t-19 -1q-23 0 -44.5 7t-38.5 24zM326 21v1
q0 -1 -0.5 -2t-0.5 -2zM741 408q0 -5 1 -9.5t3 -7.5l-2 -2q-5 5 -5 12t-1 12q0 4 0.5 12.5t3 17.5t8 15.5t15.5 6.5q8 0 14.5 -5.5t6.5 -13.5v-2v-4q0 -9 -3 -18l1 1l18 -6l-5 -5l-16 5q0 -7 -13 -17t-20 -13l1 2q-2 2 -3 2q4 6 8.5 14t8 16.5t5.5 15.5t2 10q0 5 -6 5
q-8 0 -14 -12.5t-8 -26.5v-5zM35 -128q4 11 12 20t21 9q9 0 15 -3l7 -3q1 -3 1 -6t-1.5 -3t-1.5 -2q-13 -15 -23.5 -31t-10.5 -36q0 -9 2.5 -17t7.5 -16h-1q-11 16 -11 37q0 18 10 36t21 32v-1l1 2l3 -2q-1 1 -1 4v1q-2 0 -2 -3l-3 1q-5 2 -9.5 2h-6.5q-9 0 -16.5 -6
t-12.5 -15l-3 -7l-1 1z" />
    <glyph glyph-name="J" unicode="J" horiz-adv-x="643" 
d="M371 366q-4 7 -10.5 14.5l-12.5 15t-10.5 16t-4.5 19.5q0 17 10 25t24 11.5t28.5 4t23.5 1.5q45 -4 89 -11l87.5 -14t87 -12t87.5 -5q26 0 51 2.5t49 11.5q7 4 13.5 14.5l13.5 21t16 19t23 10.5q4 -5 4 -9q0 -6 -5 -10t-7 -9l-2 -2h1q-15 -20 -38 -31.5t-48.5 -17
t-52.5 -6.5t-50 -1q-44 0 -88.5 4.5t-88.5 10t-87.5 10t-86.5 4.5q-15 0 -29.5 -4.5t-14.5 -19.5q0 -12 6 -24.5t14.5 -23.5t16.5 -18t13 -7q3 0 8 6q-1 -1 -12 5t-16 8v1q5 -2 16.5 -4.5t15.5 -12.5q-2 -5 -6.5 -7t-9.5 -2q-8 0 -12.5 6t-8.5 10l-2 2l1 1l2 -2q1 0 2 -1z
M885 457q-5 -7 -12 -11q31 11 52 36v-1l2 2q4 4 5 11.5t4 7.5q-1 0 -1 1q-17 0 -27.5 -16.5t-22.5 -29.5zM35 35q-10 -17 -10 -33q0 -2 0.5 -3.5t0.5 -3.5v-5q-1 0 -2 1v-1l2 -1v1q1 0 1 -0.5t1 -0.5v1q2 -1 6 -1q12 0 17.5 9.5t8 23.5t4 29.5t6.5 27.5q-24 -23 -42 -51
l-3 2q11 17 24 31l27 28h1q34 32 79 47t90 15q38 0 75 -7t72 -18q17 23 43.5 40t53.5 17q28 0 52 -15.5t36 -39.5q2 -3 3.5 -6.5t3.5 -6.5l4 -9q-1 2 -2 4.5t-2 4.5l48 121l50 122q7 16 13 31.5t15 30.5l2 -2q-8 -14 -14 -30t-13 -31l-44.5 -131t-48.5 -129q-1 2 -1.5 4
t-1.5 4l3 -8q6 -12 6 -26q0 -13 -4.5 -17t-12.5 -4q-2 0 -3.5 0.5t-3.5 0.5l-19.5 -46.5l-19.5 -47.5q-6 -12 -14.5 -33.5t-19 -43t-24.5 -37t-31 -15.5t-31.5 21t-25.5 52.5t-17.5 66.5t-6.5 64q0 24 5 46.5t19 43.5q-35 11 -71.5 19t-73.5 8q-48 0 -93 -18t-80 -50
q-2 -4 -2.5 -20t-3.5 -34t-10.5 -32t-22.5 -14q-12 0 -16 14q1 12 5.5 22.5t11.5 18.5l4 6l1 -1zM588 84q-2 -6 -5 -12t-5 -12h5q3 0 5 1.5t2 7.5q0 5 -2 15zM461 165q-33 -16 -54 -44q40 -13 77.5 -30t76.5 -28q9 21 19 41q-17 29 -37 48t-52 19q-15 0 -30 -6zM404 117
q-13 -20 -18 -40t-5 -42q0 -20 5.5 -51.5t15 -62.5t21.5 -53t24 -22q10 0 20 14t19 33t16.5 39.5t13.5 32.5l21 45.5l21 45.5q-38 11 -76.5 29t-77.5 32z" />
    <glyph glyph-name="K" unicode="K" horiz-adv-x="373" 
d="M42 73q4 12 7.5 24.5t7.5 24.5q-10 2 -18 8t-8 17q0 3 1 5l1 3q-1 1 -1 6l1 3h-1h8l3 -1q10 -5 13 -10.5t6 -13.5l27.5 96t24.5 96l19 50.5t17 49.5l4 17l3 -1l-4 -16q-12 -82 -35 -155.5t-52 -147.5q1 -1 1 -1.5t1 -1.5q11 0 23 1t24 5q92 25 173 77t144 122
q27 26 49 56t38 65l6 19h-1l3 8q0 18 -15 18q-12 0 -17 -8t-7.5 -19t-3.5 -24t-4 -23q-12 -52 -51 -91h-1q39 39 47 92q2 7 2.5 20.5t2.5 26.5t8.5 22.5t21.5 9.5q9 0 13.5 -6t4.5 -14v-4l-1 -5h2l-7 -23q-20 -65 -62.5 -117.5t-98 -93t-119.5 -68.5t-127 -43q-23 -6 -46 -6
l6 -11.5t8 -10.5l-1 -1q31 -32 66 -57.5t72 -48.5q46 -33 94.5 -62.5t99.5 -53.5q50 -23 103 -41t109 -18q31 0 62 10.5t52 31.5h1q2 3 3.5 7.5t1.5 6.5l-2 2q1 -1 1 -3q-2 -2 -7 -4t-7 -6q-8 -8 -14 -15t-14 -13l-1 1l6 4t5 5q4 3 7 9t6.5 11t8.5 9t14 4h4q0 -8 -4 -12
l-7 -7v-1q-26 -26 -61 -35t-70 -9q-53 0 -103.5 16t-98.5 36q-96 39 -183.5 97t-148.5 137q-4 4 -7 9.5t-8 7.5q-3 -11 -8 -22.5t-9 -22.5l-23 -68l-3 1zM36 154q1 3 3 3h-1h2h-6v-3h2zM35 152q0 -2 -0.5 -2.5t-0.5 -2.5q0 -8 6 -13.5t14 -7.5q-7 8 -11.5 12t-7.5 14z" />
    <glyph glyph-name="L" unicode="L" horiz-adv-x="294" 
d="M277 411q11 -7 22 -13l23 -12q-2 -3 -4.5 -5.5t-4.5 -5.5q-21 11 -40.5 24t-38.5 24t-39 18t-43 7q-18 0 -35.5 -6.5t-32 -17.5t-23.5 -26.5t-9 -34.5q0 -17 9 -34t29 -17q5 0 9 0.5t8 0.5q5 0 10.5 -2t5.5 -10t-7 -9q-10 0 -20 7h-2q-18 8 -31.5 23.5t-13.5 36.5t9 39
t24 31t34 20.5t40 7.5q33 0 63.5 -14t57.5 -32zM82 312q-4 0 -5 1q14 -10 26 -13v-1q1 0 1.5 -0.5t2.5 -0.5q3 0 6 1t3 2q0 4 -3.5 5.5t-9 2l-11.5 1t-10 2.5zM170 44l-7 -8q0 -1 -2 -3q-14 -16 -32 -30.5t-43 -14.5q-23 0 -39.5 18t-16.5 39q0 24 17 38.5t38 14.5
q20 0 38 -16t35 -29zM150 42q1 1 1 1.5t1 1.5l-33.5 27t-33.5 14t-29 -11.5t-13 -29.5q0 -16 14 -29.5t30 -13.5q18 0 34 12.5t29 27.5zM246 192q-14 -39 -32 -77t-44 -71l-12 9q24 32 41 69t31 76q16 47 36.5 89.5t46.5 87.5l9 11q22 27 50.5 49.5t67.5 21.5q5 0 13 -1
t16 -4t13.5 -10t5.5 -19q0 -17 -8.5 -29.5t-21 -21t-27 -14t-27.5 -6.5q-20 0 -38 3.5t-35 10.5q-26 -43 -47 -85t-38 -89zM453 435q-5 1 -13 1q-29 0 -54 -17t-45 -41q12 -5 25 -7.5t25 -2.5q13 0 26.5 4t24.5 11t18 17t7 21q0 13 -14 14zM1025 22q4 2 8 2q8 0 15 -4.5
t7 -12.5q0 -13 -12 -19.5t-20 -9.5q-91 -54 -192 -83t-209 -29q-75 0 -148 15.5t-143 44.5q-52 21 -91 49.5t-77 60.5q3 2 7 8l42 -36.5t44 -33.5q38 -26 84 -45t95 -32.5t99.5 -20t98.5 -6.5q78 0 153 16.5t147 48.5q12 7 23 20l22 26.5t22.5 24.5t24.5 16zM1047 7
q0 5 -5 7t-10 2q-11 0 -22.5 -9t-23 -21.5l-23 -25.5t-23.5 -22l31 14.5t34 17.5t28 18t14 17v2z" />
    <glyph glyph-name="M" unicode="M" horiz-adv-x="1198" 
d="M776 28q-38 -29 -85 -49.5t-96 -20.5q-14 0 -28.5 4t-26.5 11.5t-20.5 19.5t-9.5 29q-28 13 -54 27.5t-54 26.5q-104 52 -223 52q-19 0 -41.5 -2t-44 -8.5t-39 -18.5t-26.5 -32q-5 -13 -5.5 -26.5t-2.5 -27.5v-5q0 -6 2.5 -10.5t7.5 -4.5q7 0 11 8.5t4 16.5q0 11 -7 21.5
t-7 22.5q0 8 4 14.5t9 11.5l1 -1q-5 -5 -9 -10.5t-4 -12.5t3 -12.5t7 -11.5t7 -12.5t3 -13.5q0 -8 -4.5 -18t-14.5 -10q-7 0 -11 5.5t-4 11.5l-3 1q3 15 3 31.5t7 32.5q10 24 31.5 38.5t47.5 22t54 9.5t51 2q106 0 203 -44q26 -12 50.5 -26l49.5 -27q7 29 30 46.5t52 17.5
q9 0 19.5 -2.5t19 -8t14.5 -14.5t6 -22q0 -31 -18.5 -46t-41.5 -15q-19 0 -36 5t-33 12q5 -26 28 -36.5t46 -10.5q14 0 29.5 2.5t29.5 6.5q66 19 118.5 59.5t92 94t66 115.5t39.5 122q2 9 4 23t3.5 26.5t3 22t3.5 9.5t5 -3l1 1l5 9q2 0 3 -1q-4 -77 -9.5 -155t-5.5 -156
q0 -34 1.5 -67t6.5 -66q0 -2 0.5 -4t0.5 -4q-2 -6 -2 -7q0 -2 1 -3h-1q2 0 1 -1t0 0l3 3l-1 1l1 1q-1 2 -1 3t-1 3q2 4 5 7.5t4 6.5l30 54l87.5 162.5t91.5 159.5l25 39l5 7l-2 -4l-8 -22.5l-8 -22.5l-2 -4q-47 -80 -88.5 -162l-83.5 -163l-29 -54q-1 -1 -3 -6t-5.5 -11
t-8.5 -11t-11 -5q-8 0 -13 7t-5 10q-7 17 -7 44.5v48.5q0 79 9 156t16 155q1 7 1.5 17t1 19t1 15t0.5 5q-1 -3 -3 -6.5t-4 -3.5q-1 0 -1.5 1.5t-1.5 1.5t-1 -7q0 -3 -1 -6q-5 -47 -20 -103t-41.5 -111t-63.5 -104.5t-85 -85.5zM564 85q-15 -5 -25.5 -18.5t-13.5 -29.5
q15 -8 33 -14t35 -6t30.5 10.5t13.5 30.5q0 15 -14 24t-32 9q-15 0 -27 -6zM1249 437q-2 1 -3.5 1.5t-2.5 1.5l1 1q1 -1 2 -1l4 -2q3 -2 6 -3l-2 1l-2 -5q-6 -14 -11.5 -28.5l-10.5 -28.5l-31 -92t-29 -97.5t-21 -100.5t-8 -100q0 -14 2 -30.5t8 -30.5t17.5 -23t30.5 -9
q14 0 26.5 6.5t12.5 20.5q0 10 -6.5 18.5t-16.5 10.5q1 0 1 -1l3 -1h-3h-5q-6 0 -10.5 -2.5t-6.5 -3.5q-1 0 -2 1l2 -4l2 2v1q1 -2 4 -2h5q3 0 6.5 0.5t7.5 0.5q5 0 11 -2v-1q-2 1 -8 1t-11.5 -1.5t-12.5 -1.5q-5 0 -6 1h-1q-1 0 -3 4l2 3q2 10 14 10q3 0 7 -2v1
q13 0 21.5 -9.5t8.5 -21.5q0 -16 -14.5 -23.5t-28.5 -7.5q-21 0 -33 10.5t-18 26.5t-7.5 34t-1.5 32q0 48 7.5 97.5t19 99t26.5 97.5l30 93l2 6t2 7l14 22l13 20l1 2z" />
    <glyph glyph-name="N" unicode="N" horiz-adv-x="603" 
d="M406 449q8 0 11.5 -4.5t3.5 -10.5q0 -8 -4 -18l-33 -95.5t-31.5 -97.5t-24 -99t-9.5 -100q0 -73 34 -119t98 -46q24 0 47 8t41 23t29 35.5t11 45.5q0 21 -7 39t-20 35q1 0 -7 -0.5t-18.5 1t-19 6t-8.5 12.5q0 7 3.5 12t10.5 5q5 0 8.5 -3t5.5 -5l1 1q23 -19 38.5 -45
t15.5 -56q0 -27 -11.5 -49t-30.5 -37t-43.5 -23.5t-50.5 -8.5q-39 0 -65.5 16t-42 41.5t-22.5 57t-7 61.5q0 85 22 171t51 167q2 8 7.5 18.5t5.5 18.5q-31 -43 -70 -85.5l-77 -87.5t-70 -93.5t-48 -103.5q-3 -14 -3 -28q0 -7 2 -14t2 -12l-3 -1q-4 8 -5.5 20.5t-1.5 23.5
q0 43 18.5 82.5t42.5 78.5l47 78t31 82q1 5 1 15q0 34 -21 57t-57 23q-28 0 -54.5 -11t-47.5 -30t-33.5 -44.5t-12.5 -54.5q0 -26 14 -42.5t48 -19.5l2 1q3 3 6 6.5t3 4.5v2q0 -4 -4 -4q-2 0 -4.5 0.5t-4.5 0.5q-4 0 -7.5 -0.5t-7.5 -0.5q-6 0 -11.5 1t-11.5 3l1 1
q6 -3 15 -3q6 0 12 2.5t13 2.5q8 0 18 -7q-4 -5 -8 -6.5l-9 -3.5l-1 -4q-39 7 -56.5 24t-17.5 51q0 31 12.5 58.5t33.5 47t48 31t56 11.5q49 0 74.5 -26t25.5 -67q0 -5 -0.5 -10.5t-1.5 -10.5q-11 -45 -35 -83.5l-49 -76t-44 -76t-19 -83.5q0 4 2 12q14 60 46.5 114
t71.5 104.5t80 96.5t72 90l1 2q2 2 3 2.5t2 1.5t2 1v-1zM541 48q4 0 10 -2q-11 14 -25 25v1q-5 3 -10 3q-7 0 -9 -5t-2 -7q0 -8 12.5 -10.5t23.5 -4.5z" />
    <glyph glyph-name="O" unicode="O" horiz-adv-x="533" 
d="M317 443q7 1 13 1.5t13 0.5q25 0 53 -5v-1q3 0 8 -0.5t10.5 -2.5t9.5 -5.5t4 -8.5q0 -7 -6.5 -9.5t-11.5 -2.5q-10 0 -18.5 6l-14.5 10q-23 12 -47 15q-53 0 -97 -24.5t-76.5 -63t-50.5 -86.5t-18 -95t14.5 -81.5t39.5 -57t58 -33.5t70 -11q76 0 135 35.5t86 101.5
q-9 -9 -22.5 -14.5t-29 -9t-30.5 -4.5t-27 -1q-33 0 -67 9t-61.5 27.5t-45 47.5t-17.5 69q0 31 15.5 54t39.5 37t52 21t53 7q78 0 124 -44.5t46 -121.5q0 -26 -6 -50q22 31 22 74q0 10 -4 17t-8.5 12.5t-8 11.5t-3.5 15q0 2 2 5.5t7 3.5q6 0 8 -7.5l3 -11.5v1q3 -11 5 -23
t2 -24q0 -23 -6.5 -44t-20.5 -38q-12 -41 -35 -73t-55.5 -55t-72 -35t-83.5 -12t-80 13t-62 38t-40.5 61t-14.5 82q0 52 19 101t52.5 87.5t78.5 63t97 27.5zM534 253q0 -2 0.5 -2.5t0.5 -1.5l-2 12t-3 12h1q-4 9 -10 11v1q-1 -1 -1 -2v-5q0 -7 5 -12.5t9 -12.5zM485 125
q7 4 11.5 14t7 21.5t3.5 24t1 21.5q0 38 -12.5 67t-34 48t-51 28.5t-62.5 9.5q-27 0 -54 -7t-48.5 -21.5t-35 -36t-13.5 -50.5q0 -38 17 -65t44 -44.5t60 -26t65 -8.5q26 0 52.5 5.5t49.5 19.5zM395 438v-1q-15 2 -30 3.5t-30 1.5q11 -1 21.5 -5t20 -8.5l18 -8.5t15.5 -4
q2 0 6.5 2t4.5 5q0 5 -9 9t-16 6h-1z" />
    <glyph glyph-name="P" unicode="P" horiz-adv-x="465" 
d="M70 396q18 21 43 35t52.5 22.5t55 12t51.5 3.5q45 0 83.5 -15t66.5 -41.5t44 -62.5t16 -77q0 -53 -24 -97.5t-62 -76.5t-86.5 -50t-97.5 -18q-32 0 -62.5 7.5t-58.5 22.5l-15.5 -40t-13.5 -41l-3 1l12.5 42l12.5 42q-26 19 -37.5 40.5t-11.5 51.5q0 24 8 47t23 40
q-9 -12 -15 -28q8 10 21.5 18t13.5 16q0 5 -5 5q-8 0 -15 -11q1 2 2 3t2 3l-1 -1l-2 -3l-1 1l2 3q2 3 6 7.5t10 4.5q10 0 10 -11t-7.5 -15.5t-16.5 -8.5t-16.5 -10t-7.5 -18h-1q-3 -11 -5 -22t-2 -22q0 -26 10.5 -49.5t36.5 -36.5l16.5 57.5l16.5 57.5l19.5 36t11.5 34h3v-2
q0 -17 -5 -37.5t-8 -37.5q-11 -29 -23 -56.5t-23 -55.5q52 -27 113 -27q48 0 95 17.5t83.5 48.5t59 73.5t22.5 91.5q0 46 -19 81t-49.5 57.5t-70 34t-80.5 11.5q-21 0 -45 -3t-47 -9.5t-45 -18t-38 -28.5q-6 -6 -6 -11q0 -10 7 -20t7 -23q0 -8 -4 -14t-12 -6
q-10 0 -13.5 7.5t-3.5 12.5q0 4 1 7.5t2 7.5v4l1 1q4 20 19 36zM73 351q-2 8 -5 15t-3 15v4q-10 -14 -13 -32h-1v-5q0 -8 3 -14t11 -6q4 0 6.5 4.5t2.5 10.5q0 5 -1 8z" />
    <glyph glyph-name="Q" unicode="Q" horiz-adv-x="702" 
d="M38 201q21 13 49 20t59 11t62.5 5.5t59.5 2.5q2 4 4 10q15 36 38.5 71t54 62.5t67 44.5t78.5 17h15q-10 2 -16 2h-8l8 1q4 0 8 0.5t9 0.5q8 0 20 -4.5t12 -18.5q0 -6 -5 -8.5t-10 -2.5q-21 0 -39.5 7t-38.5 7q-31 0 -59.5 -18.5t-52 -46t-41.5 -59.5t-28 -59q-1 -2 -1 -3
t-1 -2q34 0 67.5 1t68.5 1q-1 3 -1 11q0 33 19.5 59.5t48 45.5t61 29.5t57.5 10.5q31 0 52.5 -12.5t35 -33t20 -45.5t6.5 -49q0 -39 -10.5 -76.5t-29.5 -70.5t-46.5 -60.5t-61.5 -45.5q48 -32 102.5 -60t111.5 -48.5t115.5 -32.5t115.5 -12q69 0 134.5 21t116.5 71
q5 5 9 13.5t4 16.5q0 17 -16 25t-31 8q-17 0 -30 -7.5t-21 -19.5q4 4 7 6v-1q-3 -3 -6 -6.5t-4 -8.5q0 -12 4.5 -22.5t4.5 -23.5v-6v-2q0 -3 -3.5 -6.5t-8.5 -3.5q-7 0 -9.5 8.5t-2.5 13.5q0 7 1 10l1 2q2 27 19.5 48.5t47.5 21.5q17 0 33.5 -9t16.5 -28q0 -9 -4 -17.5
t-9 -13.5q-53 -54 -122.5 -77t-143.5 -23q-57 0 -117 11.5t-118.5 32t-114 48.5t-105.5 61q-29 -12 -58.5 -17t-59.5 -5q-44 0 -77.5 12.5t-56 35t-34.5 52.5t-12 65q0 26 5 50.5t13 47.5q-47 -2 -94.5 -5t-92.5 -17q-12 -3 -18 -10t-9 -15.5t-4 -18.5l-2 -20
q-15 0 -19.5 10t-4.5 16q0 16 15 24zM40 157q2 14 6.5 29t15.5 23q-14 -5 -25 -12t-11 -21v-1q2 -7 6.5 -11t7.5 -7q-1 -1 -1 -5l3 3l1 1l-2 1h-1zM1176 -29q0 3 2 5q-11 -19 -11 -41v-5h-1q1 -5 4.5 -10.5t5.5 -5.5t3 5.5t1 11.5q0 8 -2.5 16.5t-2.5 16.5q0 5 1 7zM454 433
q-9 -2 -20 -9q17 7 37 7q18 0 34 -4.5t33 -4.5q12 0 12 4q0 5 -4.5 9.5t-9.5 6.5v-1q-6 1 -12 1.5t-12 0.5q-15 0 -29.5 -2.5t-28.5 -7.5zM486 -1l21 4t20 6q-22 16 -50 34.5t-57.5 34t-57.5 25.5t-50 10q-17 0 -25 -9.5t-9 -24.5q19 -45 61 -64.5t92 -19.5q14 0 27.5 1
t27.5 3zM281 238q-8 -21 -12 -43t-4 -45q0 -32 9 -60q3 15 13.5 23.5t31.5 8.5q24 0 53.5 -9t61 -24t62 -33.5t55.5 -37.5q35 16 63 41.5t48 57.5t30.5 68t10.5 74q0 24 -5.5 47t-17.5 41t-31 29.5t-47 11.5q-24 0 -54.5 -10t-57.5 -27.5t-46 -42.5t-19 -55q0 -7 1 -10
q22 -2 44 -1t44 -1l14 -1q2 0 2 -7q0 -19 -15 -31.5t-32 -12.5q-23 0 -41 13.5t-24 35.5q-17 1 -35 1h-36q-17 0 -33 -0.5t-33 -0.5zM427 238q5 -18 20.5 -30t33.5 -12q14 0 28.5 9t14.5 26l1 4h-11q-44 3 -87 3z" />
    <glyph glyph-name="R" unicode="R" horiz-adv-x="786" 
d="M1064 -159q-11 -1 -21 -1.5t-21 -0.5q-81 0 -159.5 21.5t-146.5 67.5q-48 32 -85.5 71t-74.5 84q-10 0 -25.5 1.5t-30 6.5t-25 15t-10.5 28q0 4 4 14t21 10q12 0 22 -7t18.5 -16.5t15.5 -20t13 -17.5q29 1 67.5 11.5t73 31t58.5 51t24 71.5q0 51 -23.5 84.5t-60 53.5
t-80.5 28t-84 8q-38 0 -78.5 -10.5t-74.5 -32.5t-56 -55.5t-22 -78.5q0 -25 9 -42.5t24 -29t34.5 -17t39.5 -5.5q16 0 31 3q8 24 15 48l14 48q8 21 17.5 41.5t16.5 43.5l4 14l3 -1l-4 -14q-7 -48 -20 -90t-30 -87q12 3 23.5 6.5t23.5 8.5q3 3 6 9t7.5 12t9.5 10.5t11 4.5
q13 0 13 -13q0 -5 -9 -11t-23.5 -11.5t-31.5 -10.5t-32 -8q-8 -22 -17 -43t-17 -43q12 0 28 -9.5t16 -29.5q0 -10 -7 -23.5t-18 -25.5t-24.5 -20.5t-27.5 -8.5q-11 0 -11 10q0 2 1 5l2 6h-1l2 5l20 53q2 5 3 10t3 10q-10 2 -19.5 2h-20.5q-53 0 -106 -6t-108 -6
q-17 0 -38.5 2.5t-40 10t-31.5 21t-13 36.5q0 14 4 28.5t9 26.5l3 -2q-5 -12 -9 -25.5t-4 -27.5q0 -20 10.5 -32t26 -19t33.5 -9t34 -2q31 0 61.5 3.5t60.5 8t60.5 8t61.5 3.5q8 0 16.5 -0.5t16.5 -1.5q7 20 13 40.5t13 40.5q-17 -3 -35 -3q-21 0 -41 6t-35.5 18.5t-25.5 32
t-10 46.5q0 49 24 85.5t61 60.5t81.5 35.5t84.5 11.5q42 0 87 -10.5t82.5 -33.5t61.5 -59t24 -87q0 -45 -24 -79t-59 -56.5t-75 -34.5t-72 -13q93 -119 204 -179.5t251 -60.5q92 0 180.5 21t174.5 54l-1 1q9 4 16.5 14l15 20t17 17.5t22.5 7.5q3 0 7 -4.5t4 -12.5
q-1 -11 -9 -16.5t-16 -7.5l-5 -2q-88 -37 -179 -63t-187 -32zM1397 -67q-8 -8 -17 -14l28 11.5l28 11.5l1 -2q14 7 14 19v3v3q0 4 -1 6h1l-1 1v-1q-1 0 -3 0.5t-3 0.5q-12 0 -24 -13.5zM430 59q-5 1 -9 2t-9 2q-2 -5 -7 -16.5l-10.5 -24.5t-10 -26t-4.5 -21q0 -5 3 -6
q12 0 23.5 8.5t21 19.5t15 23t5.5 18q0 18 -18 21zM510 191q-1 -1 -1.5 -2t-2.5 -2q6 2 11.5 4.5t10.5 4.5v-1q8 5 12 8t4 8t-7 5q-8 0 -14 -8.5t-13 -16.5zM481 122q9 -14 27 -19.5t37 -5.5l-11.5 14l-13 15.5t-13.5 13t-13 6.5q-3 0 -10 -2.5t-7 -10.5q0 -5 4 -11zM37 130
q1 10 5 19.5t9 17.5l9 14.5t4 11.5q0 2 -3 2h-1h-2q-5 0 -9.5 -6.5t-7.5 -12.5l-2 -5l-1 1l2 5q2 7 5.5 15.5t15.5 10.5q3 0 6.5 -2t4.5 -7q0 -5 -4 -11q-8 -12 -14 -20t-9.5 -15.5t-5.5 -16t-2 -22.5h-1v10.5t1 10.5z" />
    <glyph glyph-name="S" unicode="S" horiz-adv-x="444" 
d="M409 93q-11 -38 -36 -65l82.5 -35t86.5 -32.5t89 -24t90 -9.5q36 0 74 4.5t74 16t68 30t57 47.5q30 35 47.5 78t17.5 89q0 45 -18.5 87.5t-50 74.5t-72.5 51.5t-87 19.5q-41 0 -72 -16.5t-52 -44.5t-33 -63.5t-15 -73.5h-2q4 38 16 74t33.5 64t52.5 45t72 17
q47 0 89 -19.5t74 -52t51 -75.5t19 -89q0 -47 -17.5 -91.5t-47.5 -79.5q-26 -30 -59 -50t-70 -31.5t-76 -16.5t-76 -5q-47 0 -92.5 9.5t-90 24.5t-87 33l-82.5 36q-41 -41 -90.5 -56t-99.5 -15q-21 0 -47.5 5t-50 16.5t-39.5 30.5t-17 48q0 16 5 29h-1q1 0 1 2
q10 25 29 31.5t37 6.5q36 0 72 -9t71 -22.5t67.5 -28.5t61.5 -27q14 16 25 36t11 41q0 32 -26 53.5t-65.5 37.5t-85.5 29.5t-85.5 30t-65.5 39t-26 56.5q0 29 20.5 48t49.5 30t62 15t57 4q44 0 80.5 -11.5t63 -33t41 -52t14.5 -68.5q0 -35 -8 -75h-3v1q-2 -2 -1.5 -8
t-2.5 -6q-9 0 -12.5 11.5t-3.5 16.5q0 20 8 33l17 28l1 4q-5 69 -53 105.5t-125 36.5q-19 0 -50 -3t-61 -12t-52 -25t-22 -41q0 -27 25.5 -45.5t63.5 -34t83 -30t83 -32.5t63.5 -42.5t25.5 -59.5q0 -5 -2 -15zM431 271v8.5t-1 8.5v-1q-5 -15 -13.5 -31.5t-8.5 -33.5
q0 -3 3 -13t9 -10q2 0 2 6t2 8v-1q3 14 5 29t2 30zM333 1q7 5 13 11l12 12l-62 29t-68.5 30t-72 24t-72.5 10h2q-1 -1 -2 -1h-5h2q-22 0 -38.5 -20.5t-16.5 -46.5q0 -27 15.5 -45.5t38 -29.5t47.5 -15.5t45 -4.5q42 0 84.5 10.5t77.5 36.5z" />
    <glyph glyph-name="T" unicode="T" horiz-adv-x="251" 
d="M258 264q-20 -57 -42 -112t-47 -110l-13 -27t-16 -26.5t-21 -22t-29 -12.5q-25 0 -39 18.5t-14 40.5q0 27 18 39.5t40 12.5q4 0 11.5 -0.5t15.5 -2.5t14 -7.5t6 -15.5q0 -6 -1.5 -10.5t-3.5 -9.5l-3 1q5 10 5 19q0 8 -4.5 12.5t-11 7t-13.5 3t-12 0.5q-20 0 -38 -10.5
t-18 -35.5q0 -20 12 -37t31 -17q14 0 25.5 9t20.5 22t15.5 27.5l11.5 26.5q44 109 79 224q33 82 57 168q-12 2 -26 4t-27 6t-24 9t-16 13q23 -10 47 -14.5t49 -8.5l7 29h3l-7 -29q18 -2 36 -2.5t36 -0.5q65 0 128.5 10t131.5 10q13 0 29.5 -3t31.5 -10.5t26 -20t13 -31.5
q-3 -23 -18 -36.5t-33.5 -21t-37 -10t-27.5 -3.5v4q8 0 15.5 1t15.5 3h-6q-11 0 -21.5 1.5t-15.5 1.5q-2 -4 -2 -5q0 -4 12 -5l3 -1l-3 -1h-3h-7q-6 0 -7 4t-1 7q0 5 6.5 5.5t9.5 0.5q11 0 19.5 -3t16.5 -3q5 0 10.5 2t12.5 5l1 -1q19 9 33.5 22.5t14.5 32.5q-3 16 -15 25
t-27.5 13t-32 5t-29.5 1q-57 0 -114.5 -6t-115.5 -6q-43 0 -88 6q-8 -44 -18 -87t-22 -87zM218 426q-3 9 -7 18.5t-9 19.5q6 -3 8 -8.5t5 -11.5v1q7 -5 14 -13t11 -19l2 -9l-1 -1h1l-3 -3h-1h-10h-1q-1 0 -0.5 -0.5t-0.5 -0.5t-5 3l-1 4q0 2 -0.5 3t-0.5 3q0 5 2 15v4l1 -4
q1 -10 6 -19v-1h-2l3 -2l-1 2h7l1 -3l-1 -1q1 0 4 3l-4 1v5q-2 11 -7.5 17.5t-12.5 13.5q2 -4 3 -8t3 -8zM174 482q9 -4 15 -6t13 -12l-17.5 7t-25.5 12.5t-24 17.5t-12 23q3 1 9 1q12 0 22.5 -6t19.5 -14.5t16 -18t11 -15.5l-34.5 35t-40.5 16q1 -7 6.5 -12.5t12.5 -10.5
t15 -9t14 -8z" />
    <glyph glyph-name="U" unicode="U" horiz-adv-x="416" 
d="M488 447q1 2 4 5t6 3t5 -5h-2l1 -1q-36 -86 -67.5 -171t-54.5 -176q-10 -26 -19 -53t-17 -55l-3 -18h-3l3 18q2 10 2.5 19t2.5 18q-20 -32 -47.5 -48t-73.5 -16q-44 0 -80.5 10.5t-63 31t-41.5 51.5t-15 73q0 62 14.5 116.5t37.5 110.5l22 36l22 37l5 12q2 7 5.5 13.5
t12.5 7.5q12 -5 12 -17q0 -5 -5 -13.5t-12 -16.5t-14.5 -14t-11.5 -6q-10 -34 -24.5 -64.5t-27.5 -61t-22 -62.5t-9 -69q0 -47 19.5 -77t49.5 -47.5t66.5 -24.5t70.5 -7q27 0 48.5 9.5t37 26t25 39t12.5 47.5l34.5 112t39.5 111l24 61t31 55zM124 432q-2 -8 -4.5 -15.5
t-5.5 -15.5q10 11 22.5 21.5t12.5 24.5q0 10 -4 10h-1h-3q-4 0 -7 -4t-5 -9l-3 -10zM468 379l15.5 35.5l15.5 35.5q0 2 -2 2t-3.5 -2.5t-3.5 -4.5q-29 -49 -51 -106.5t-38 -114.5q32 80 67 155z" />
    <glyph glyph-name="V" unicode="V" horiz-adv-x="380" 
d="M1140 249q13 -5 25 -9t24 -9l-1 -3q-73 27 -151 45t-158 28t-160 14t-157 4q-42 0 -82 -3t-81 -3q-13 -54 -33 -105.5t-44 -102.5l-20 -41.5t-25.5 -47.5t-27.5 -40.5t-27 -19.5q-9 2 -12.5 6t-8.5 7q-24 30 -45 67t-36.5 78t-25 84.5t-11.5 85.5q-23 4 -42 17t-19 41
q0 10 3 23.5t9 25.5t14.5 20.5t19.5 8.5q6 0 10 -5.5t6.5 -13t3 -15.5t0.5 -14v-13.5t-1 -13.5h1q-3 -20 -3 -39q3 -17 8.5 -18t17.5 -1q23 0 46.5 2.5t46.5 7.5q48 9 96 16t96 12q6 24 10 47.5t4 49.5q0 34 -16 60t-53 26h-6.5t-7.5 -1v3q5 1 14 1q35 0 53.5 -25t18.5 -61
q0 -24 -3 -49.5t-8 -50.5q2 1 7 1q102 9 206 9q137 0 267.5 -20t257.5 -66zM82 313q0 15 1.5 30t1.5 29q0 5 -0.5 13t-2.5 15t-5.5 12t-9.5 5q-8 0 -15.5 -8t-13.5 -19.5t-9.5 -25t-3.5 -23.5q0 -25 18 -36.5t40 -15.5q-1 5 -1 8.5v8.5v7zM311 111q25 48 46.5 98t35.5 103
q-48 -3 -94.5 -8.5t-93.5 -13.5q-21 -4 -42 -6.5t-43 -2.5q-8 0 -16 1t-16 1q7 -54 26 -105t44 -99q13 -29 29 -57.5t36 -47.5l-1 -1q0 -1 2 -1q0 1 -1 2q4 2 8 8q23 29 42.5 62t37.5 67zM310 488q-5 4 -5 5t0.5 1.5t0.5 1.5v1q0 11 8 16t16 5t18 -4l5 -2l-6 1q-2 0 -4 0.5
t-4 0.5q-11 0 -18.5 -5.5t-7.5 -13.5h-3q1 -3 3 -3v3h3q9 0 19 1t21 1q15 0 26.5 -6.5t15.5 -22.5h-1q-5 12 -13 19t-22 7q-11 0 -22 -2t-24 -4h-6z" />
    <glyph glyph-name="W" unicode="W" horiz-adv-x="613" 
d="M644 357q23 2 46 3.5t46 1.5q138 0 265.5 -38t249.5 -95l-2 -2q-112 54 -235.5 86.5t-249.5 32.5q-62 0 -123 -9q-16 -76 -45 -147.5t-65 -140.5q-6 -12 -15 -28t-19 -30.5t-19.5 -24.5t-17.5 -10q-10 0 -21 11.5t-21.5 27t-20 32.5t-15.5 29q-6 -12 -18.5 -29
t-27.5 -32.5t-30 -26.5t-25 -11q-5 0 -8.5 0.5t-7.5 1.5q-41 12 -68 40.5t-44.5 65t-25.5 76.5t-9 75q-17 7 -33.5 18t-29.5 25.5t-21 33t-8 39.5q0 14 5.5 29.5t14.5 28.5t21 21.5t26 8.5q12 0 19.5 -7.5t12.5 -18t7 -22.5t2 -20q0 -32 -2.5 -62.5t-2.5 -60.5
q16 -6 33.5 -9t34.5 -3q32 0 61.5 11.5t59.5 25.5q-3 22 -3 45t4 45t14 41t27 34.5t44 24.5l1 -1l16.5 4t16.5 2q17 0 28 -7t17 -17.5t8.5 -24t2.5 -26.5t-2 -25.5t-2 -24.5q74 23 151 33q2 14 4 30.5t2 32.5q0 37 -17 61.5t-52 24.5q-10 0 -14 -1v3q-5 -2 -9 -5.5t-7 -7.5
q-4 -4 -6 -9l1 2q9 -3 17 -3q14 1 26.5 5t30.5 4v-1q-20 0 -30.5 -5.5t-25.5 -7.5q-6 0 -11 1.5t-10 1.5h-1q-2 0 -4 5l2 5q5 14 15 16t19 2h5l-5 -2h-1h8q36 0 54 -24.5t18 -64.5q0 -16 -2 -32.5t-4 -30.5zM118 234q0 29 2 58.5t2 58.5q0 9 -2.5 18.5t-6.5 18t-9.5 14
t-12.5 5.5q-9 0 -18.5 -8t-16.5 -19t-11.5 -24t-4.5 -23q0 -35 23.5 -60t54.5 -39zM344 393q-10 -17 -14 -37t-4 -40q0 -14 2 -27.5l4 -27.5q37 19 76 34t78 28q4 7 4.5 22.5t0.5 26.5q0 13 -2 26t-8 23.5t-16.5 17t-27.5 6.5q-29 0 -54 -14.5t-39 -37.5zM373 52q4 6 6 10
q-20 42 -35.5 84.5t-23.5 88.5q-29 -14 -58.5 -25t-62.5 -11q-17 0 -35 3.5t-35 8.5q0 -24 9 -66t27.5 -82t47 -69.5t66.5 -29.5q10 0 22.5 9t25.5 22t25 28.5t21 28.5zM358 169q7 -23 15.5 -45t18.5 -44q31 51 55 107.5t35 112.5q-75 -26 -146 -58l10 -37t12 -36zM520 56
q38 66 68.5 136t47.5 145l-75.5 -16.5t-75.5 -19.5q-11 -59 -35 -117t-56 -109q6 -14 14 -30t16.5 -31t17.5 -26.5t19 -16.5l-1 -1q5 0 13.5 10.5t17 24.5l16.5 28.5t13 22.5z" />
    <glyph glyph-name="X" unicode="X" horiz-adv-x="555" 
d="M42 49q-5 9 -6.5 18.5t-1.5 18.5q0 25 10 44.5t27 33t39 21t47 7.5q11 0 27 -3t30.5 -10t25 -19t10.5 -30h-2q0 -15 -9 -25t-24 -10q-9 4 -9 10t-1 11q2 12 8.5 21t7.5 20q-1 6 -6 9.5t-10 5.5l1 1q5 -2 10 -5.5t6 -10.5q0 -11 -6 -20.5t-6 -20.5q0 -4 1.5 -9.5t3.5 -5.5
q11 2 21 12t10 24v1q-3 15 -13 24.5t-23.5 15t-27.5 8t-26 2.5q-50 0 -82.5 -27.5t-32.5 -72.5q0 -23 10 -40.5t26 -29t36 -17t39 -5.5q33 0 55.5 12t42.5 32l60 55l43 40.5t41 42.5l-71 106.5l-71 106.5l-18.5 25t-20 25t-22 21.5t-26.5 12.5q-10 -3 -12.5 -13t-4.5 -19h-2
q0 -7 3 -10v-1q0 -1 1 -2t1 -3v-1q0 -1 -2 -1q5 0 9 5.5t4 10.5q0 6 -2.5 11t-5.5 10l1 1q3 -6 6.5 -12t3.5 -14q0 -7 -4 -10.5t-8 -7.5q-8 3 -10 6.5t-2 8.5q0 8 3 16v3l1 -3v-5q2 9 5 19t14 14q18 0 30 -11t25 -21q56 -57 100.5 -122.5l87.5 -131.5l88.5 107.5t85.5 110.5
l23 34l2 -2l-22 -34l-38 -61l-39 -61.5t-42 -59t-47 -52.5l134 -210.5t145 -202.5l28.5 -31.5t30.5 -30.5t34 -25t39 -14v-3q-22 4 -40.5 14.5t-35 25t-31 31l-28.5 31.5q-81 95 -150 197l-138 205q-20 -21 -41.5 -40.5l-43.5 -38.5q-18 -15 -35.5 -32.5t-37.5 -31.5
t-42.5 -23.5t-49.5 -9.5q-35 0 -67 15.5t-47 48.5z" />
    <glyph glyph-name="Y" unicode="Y" horiz-adv-x="470" 
d="M1164 -21q0 -4 -1 -5h1q-39 -45 -85.5 -77.5t-98 -53.5t-107 -31t-112.5 -10q-109 0 -216 28t-209 66q-13 4 -28 11l-18 -23t-25 -27t-31 -22.5t-35 -9.5q-11 0 -24 4t-24 11.5t-18.5 18t-7.5 24.5q0 15 9 27.5t22.5 21.5t29 13.5t29.5 4.5q16 0 31 -5t27 -10l24 -10
q15 22 28 45l26 47q1 4 5 8q-32 -29 -72 -42t-82 -13h-14.5t-32.5 2t-40.5 7.5t-40 16t-31 28t-12.5 44.5t9.5 53t21.5 49q15 29 25.5 62l21.5 65q9 25 19 50t19 51q2 8 7 20t5 20q0 7 -6 8.5t-11 1.5l-5.5 -7.5t-4.5 -8.5q-3 -6 -5.5 -16t-6 -20t-9 -17t-13.5 -7t-9.5 4
t-1.5 9t2 10t4 9l-1 1q3 7 8.5 15.5t13 16t16 12.5t17.5 5q8 0 14.5 -4.5t6.5 -12.5q0 -5 -1.5 -9.5t-1.5 -7.5l-6 -26q-14 -61 -34 -119t-49 -113q-12 -23 -21.5 -48.5t-9.5 -50.5q0 -13 3 -25q4 -15 22.5 -26.5t43 -19.5t51.5 -12t49 -4q42 0 79.5 14.5t67.5 44.5
q51 96 94 195l86 199q4 9 8.5 22t10.5 24.5t12.5 20t14.5 8.5t9.5 -4.5t1.5 -8.5q0 -14 -8 -27.5t-19 -26.5t-22.5 -25t-19.5 -23l-45 -121t-47.5 -123t-55 -118.5t-65.5 -108.5l25 -10q102 -41 209.5 -71t219.5 -30q37 0 81 5t88 17t85 33t73 53q6 9 9 20.5t7 22.5
t11.5 19.5t21.5 12.5q4 0 10 -1t8 -7v-3zM544 428l-6 -16l-6 -16q7 11 17.5 23.5t20 25.5t16.5 26t7 25q0 3 -3 3.5t-5 0.5q-5 0 -7 -1.5t-5 -4.5h1l-15 -33zM131 433q2 4 4.5 7.5t4.5 7.5q-14 -3 -26 -16.5t-19 -27.5h-1q-1 -4 -1 -11q0 -4 1.5 -9t3.5 -5q5 0 9.5 6t8.5 14
t7.5 17.5t7.5 16.5zM275 -104l7 9l7 9q-19 8 -38 14.5t-37 6.5q-9 0 -22 -4t-24 -10.5t-19 -16t-8 -19.5q0 -8 5.5 -16t13.5 -14t17.5 -9.5t17.5 -3.5q23 0 43.5 17t36.5 37zM1159 -27q0 1 0.5 1.5t0.5 2.5q0 6 -8 6q-13 0 -20.5 -7.5t-12.5 -18t-9.5 -22t-11.5 -20.5
q17 14 32 28t29 30z" />
    <glyph glyph-name="Z" unicode="Z" horiz-adv-x="371" 
d="M848 -58q15 -5 26.5 -17t11.5 -29q0 -18 -11 -32.5t-28 -25t-36.5 -16t-36.5 -6.5q-27 0 -52 4t-51 10q-69 16 -135 39.5t-131.5 49.5l-131.5 51.5t-133 45.5l-29 -22.5t-33 -11.5q-9 0 -20.5 6.5t-11.5 19.5q0 9 5 14.5t12 8.5t14 4t11 1q12 0 25.5 -3t20.5 -6q3 2 7 6
q75 64 145 131l141 135l21 20q-40 7 -81 26q-51 23 -103.5 41t-109.5 18q-49 0 -84.5 -23.5t-46.5 -71.5q2 -18 15 -18q6 0 11.5 7t5.5 15t-2.5 17t-2.5 18t4.5 16.5t11.5 13.5l1 -1q-6 -5 -10.5 -11t-4.5 -15q0 -10 4 -19.5t4 -19.5t-6 -19.5t-19 -9.5q-10 3 -12.5 10.5
t-2.5 15.5h-1q2 6 2 8l1 3q15 46 53.5 68t85.5 22q43 0 81 -10.5t74 -24l71.5 -26t74.5 -17.5l106 101q20 20 41.5 38t54.5 26q9 0 12.5 -6t3.5 -11q0 -23 -15.5 -52t-41 -54.5t-58 -43t-66.5 -17.5q-8 0 -14.5 0.5t-14.5 1.5l-31 -29l-143.5 -132.5l-146.5 -130.5
q67 -20 131.5 -46l129 -52.5t129.5 -50.5t133 -41q23 -6 47 -9.5t47 -3.5q16 0 36 5t38 14t30 22.5t12 31.5q0 20 -13.5 34t-36.5 14q-21 0 -40 -13t-30 -31q2 -1 6 -1q9 0 16.5 7.5t14.5 16.5l8 11l-7 -12q-5 -9 -13.5 -20t-22.5 -11q-6 0 -7 3t-1 6q0 6 4.5 8t6.5 6l2 3
l-1 -3q-2 -2 -2 -3q12 15 28.5 25.5t36.5 10.5q5 0 8.5 -0.5t8.5 -1.5zM760 -103h1h-1zM486 330h16t16 1q25 5 48.5 21t42.5 37t32 44.5t17 42.5q-1 -1 -3 -1q-20 -8 -38 -23.5l-36 -32.5zM125 20q-8 0 -18 3t-19 3q-13 0 -22 -6t-9 -12q0 -5 6.5 -9.5t14.5 -4.5q11 0 24 9
t23 17z" />
    <glyph glyph-name="a" unicode="a" 
d="M203 9q13 7 22 18.5t16 25.5l3 -1q-9 -18 -25 -35t-36 -17q-17 0 -26.5 12t-9.5 32q0 11 3 23q-10 -10 -20 -21.5t-22 -21t-26 -16t-31 -6.5q-21 0 -41.5 12.5t-20.5 43.5q0 27 12.5 50.5t33 41t45 27.5t48.5 10q13 0 25.5 -2l24.5 -4v-3q-9 1 -18.5 2.5t-18.5 1.5
q-26 0 -49.5 -11t-42 -29t-29.5 -41t-11 -48q0 -17 13.5 -26t31.5 -9q16 0 32.5 9.5t30.5 22.5t25.5 27.5t18.5 24.5l8 17q4 8 5 12l7 16v1q-1 0 4.5 -1.5t5.5 -2.5l-2 1v-1v1l-1 -3l1 2l-2 -9q-8 -14 -13 -27t-14 -27v-1q-8 -21 -8 -39q0 -38 31 -38q11 0 20 6z" />
    <glyph glyph-name="b" unicode="b" horiz-adv-x="173" 
d="M115 93q-8 -15 -19.5 -33t-24.5 -33t-27.5 -25t-28.5 -10q-13 0 -17.5 8.5t-4.5 16.5t2 15.5t3 14.5q22 100 58 197t80 191q3 7 9.5 21t14 28t16 24.5t17.5 10.5q15 0 15.5 -10.5t0.5 -16.5q0 -25 -4.5 -46.5l-9.5 -44.5q-27 -92 -73 -173.5t-108 -154.5l-1 1
q-3 -14 -7.5 -29t-4.5 -30q0 -6 2.5 -11.5t10.5 -5.5q13 0 27 9.5t27 24t24.5 31t19.5 31.5q1 1 1 2q-11 7 -11 24q0 10 5 19t15 9q4 0 6 -1.5t2 -7.5q0 -11 -4 -21.5t-9 -20.5q6 -3 15 -3q17 0 33.5 11.5t29.5 23.5l2 -2q-13 -11 -30 -23.5t-34 -12.5q-10 0 -17 4
q0 -1 -1 -2zM107 110q1 -6 8 -11q5 10 9 19.5t4 19.5q0 7 -6 7q-7 0 -12 -8t-5 -17q0 -4 2 -10zM70 240q-7 -18 -15.5 -42l-16.5 -47.5t-14 -43t-9 -28.5q59 71 99 155t60 173q3 10 5 24t4.5 28.5t5.5 25.5t7 15q-1 5 -2 5v1q0 -1 -1 -2q-2 -2 -3 -2v1h-1l1 -1
q0 -7 -5 -14.5l-10 -15.5q-30 -57 -56 -114.5t-49 -117.5z" />
    <glyph glyph-name="c" unicode="c" horiz-adv-x="202" 
d="M57 144q-19 -17 -35 -41.5t-16 -49.5q0 -26 17.5 -35.5t40.5 -9.5q38 0 73.5 13.5t64.5 37.5l2 -2q-29 -26 -69 -42t-78 -16q-11 0 -22.5 3t-21.5 9.5t-16 17.5t-6 28q0 18 9 40.5t24 42.5t36 34t45 14q22 0 30.5 -12t17.5 -29l-3 -1q-9 18 -16 25t-20 7q-16 0 -31.5 -11
t-25.5 -23z" />
    <glyph glyph-name="d" unicode="d" horiz-adv-x="273" 
d="M276 51l-18 -16t-20.5 -17t-21 -13.5t-19.5 -5.5t-14.5 6.5t-9 16t-4.5 20t-1 18.5v10q-9 -15 -19 -29.5t-22 -29.5q-28 -14 -54 -14q-13 0 -28 4t-27.5 13t-20.5 23t-8 34q0 30 15.5 52t39 36.5t50 21.5t48.5 7q6 0 12 -0.5t12 -0.5l-1 -3q-6 0 -11.5 0.5t-11.5 0.5
q-23 0 -47.5 -8t-44.5 -23t-33.5 -35.5t-13.5 -45.5q0 -27 19.5 -42t42.5 -15q22 0 38.5 9.5t28.5 24.5t21.5 34l19.5 38l5 11q32 65 61.5 131t49.5 135q3 9 5 20.5t2 19.5v6l2 2q-3 -3 -3 -2h1v-1q-21 -32 -39 -69.5t-33 -78.5t-26.5 -82.5t-19.5 -80.5q-1 -3 -2 -5.5
t-3 -5.5q8 51 22.5 99.5t32.5 96.5l12.5 34.5t14 36t15.5 33.5t17 28l2 3q3 3 4 3h1h3q9 0 10 -8.5t1 -13.5q-1 -11 -3 -20l-4 -18q-23 -83 -56.5 -165t-71.5 -151q-1 -4 -1 -8v-8q0 -9 1.5 -19.5t4.5 -19.5t8 -15.5t13 -6.5t17.5 5t19.5 12.5t20 16.5l18 16l2 -2v0z" />
    <glyph glyph-name="e" unicode="e" horiz-adv-x="216" 
d="M153 149q-8 -23 -22.5 -38t-32.5 -24t-37.5 -14t-37.5 -9l-19 -4q2 -25 18.5 -40t47.5 -15q41 0 78 17t69 40l2 -2q-32 -24 -72.5 -42.5t-81.5 -18.5q-38 0 -55 20.5t-17 49.5q0 22 9.5 43.5t25.5 38.5t37.5 27.5t46.5 10.5q15 0 28 -9.5t13 -27.5v-3zM22 67
q17 5 36.5 13.5t36 19.5t27 25t10.5 31q0 8 -7 11t-18 3q-20 0 -38.5 -9t-33 -24t-23 -34t-8.5 -39z" />
    <glyph glyph-name="f" unicode="f" horiz-adv-x="86" 
d="M5 65q35 90 65 180t66 180l18 45.5t24 41.5l5 5q0 2 6 2q5 0 7 -3l4 -6q2 -4 2 -8q-1 -11 -1 -20.5t-2 -19.5q-8 -57 -26.5 -108t-43 -97.5t-54.5 -90.5l-60 -87l-1 1q2 4 3 7q41 54 70.5 113.5t51.5 122.5q14 35 25.5 70t17.5 72q2 10 2.5 19.5t4.5 17.5l2 2q0 1 -2 2
t0 2q-2 -3 -3 -2.5t-1 -1.5q0 -1 0.5 -1.5t0.5 -1.5q0 -5 -2 -7.5t-4 -5.5q-19 -35 -39.5 -81t-40 -95.5l-38 -99.5l-34 -93l-27 -76t-17.5 -48q18 0 32 5t26 13.5t23 19.5t24 22l2 -2q-12 -10 -23 -21t-23.5 -20t-27 -14.5t-34.5 -5.5q8 -13 8 -31q0 -55 -16.5 -118
t-41.5 -115l-11 -22t-14 -22.5t-17.5 -19t-21.5 -11.5l-3 -1q-1 0 -1.5 -0.5t-1.5 -0.5q-4 0 -5 3t-1 5v1v5v5q0 8 1 15.5t3 15.5q16 79 49 150l65 141l-5 1q5 0 10.5 8.5t10.5 20.5t8.5 24zM-17 -71q1 8 2 17.5t1 19.5q0 14 -4 23l-30 -81t-29 -82l-30.5 -77.5t-19.5 -77.5
q20 10 38 39t32.5 66.5t24.5 78.5t15 74z" />
    <glyph glyph-name="g" unicode="g" horiz-adv-x="239" 
d="M164 0q-6 -2 -12.5 -3l-13.5 -2q5 -11 5 -24q0 -6 -0.5 -11.5t-0.5 -10.5v-5q-5 -51 -19.5 -99.5t-35.5 -96.5q-6 -14 -13.5 -28.5t-16.5 -27.5t-20.5 -23.5t-25.5 -14.5l-3 -1h-2q-1 0 -4 1t-3 5v6q0 5 0.5 9.5t1.5 9.5q18 83 53 159l70 152q2 5 3 4.5t1.5 0.5t2.5 6.5
t7 22.5q-17 -17 -36 -26t-45 -9q-10 0 -22.5 3t-23 9.5t-17.5 17t-7 26.5q0 28 13 52.5t34 43.5t46.5 30t50.5 11q11 0 23 -2l23 -4l-1 -3q-8 1 -15.5 2.5t-15.5 1.5q-28 0 -53.5 -14t-44.5 -34.5t-30.5 -44t-11.5 -41.5q0 -21 19 -30.5t40 -9.5q25 0 44 12t36 29l7 26.5
l7.5 29.5t8 24t9.5 10t7.5 -8.5t2.5 -15.5q0 -14 -6 -28t-14 -27.5t-17.5 -27t-16.5 -26.5l3 -1q21 0 40 6.5t39 17.5l30 20l2 -2l-31 -20q-12 -8 -24.5 -15.5t-26.5 -11.5zM164 110q-5 -14 -8 -28t-7 -28q17 17 24 37t7 28q0 3 -1 9t-4 6q-2 0 -5.5 -9t-5.5 -15zM113 -109
q5 19 9.5 40t4.5 40q0 5 -0.5 10t-1.5 10q-15 -39 -31.5 -77l-32 -76t-28.5 -77t-20 -79q-1 -3 -1 -6.5v-6.5q1 0 2 1q19 11 35 37t28.5 58t21 66z" />
    <glyph glyph-name="h" unicode="h" horiz-adv-x="223" 
d="M229 53q-8 -18 -26 -36t-40 -18q-11 0 -18.5 5t-7.5 16q0 12 5.5 25t12.5 26.5t12.5 28t5.5 28.5q0 23 -12.5 33t-30.5 10q-22 0 -42 -14.5t-38 -37t-35 -50.5l-32 -54q-2 -5 -4.5 -9t-5.5 -8l-2 2q3 4 5.5 8t4.5 9l38.5 102l36.5 104l16.5 54l20 63.5t22 64.5t22.5 57
t21 40.5t19 15.5q4 0 6.5 -3.5t3 -8.5t0.5 -9.5v-7.5q0 -43 -11 -87t-29 -87t-41.5 -83.5t-48.5 -74.5q14 13 32 21.5t37 8.5q22 0 40 -13.5t18 -42.5q0 -18 -6.5 -33.5t-14.5 -29t-14.5 -26t-6.5 -22.5q0 -7 5.5 -12t14.5 -5t19 5t19 12.5t16 16.5t10 16h3zM45 145
q26 43 46.5 88t36.5 93q16 39 30 85t14 82v4q1 1 1.5 2t1.5 2l2 2q0 2 -2 4q1 0 1 1q1 0 -1.5 -1.5t-2.5 -2.5q0 -8 -6 -17q-47 -84 -80 -179.5t-59 -188.5q3 8 8 13t10 13z" />
    <glyph glyph-name="i" unicode="i" horiz-adv-x="107" 
d="M30 0q-18 0 -29.5 11t-11.5 35q0 37 14 67.5t33 59.5l5 10l2 -1l-4 -10q-5 -17 -9 -33l-8 -32q-7 -17 -13.5 -35t-6.5 -35t12.5 -24t25.5 -7q17 0 35.5 10.5t31.5 27.5h4q-15 -20 -33.5 -31.5t-47.5 -12.5zM79 254q-5 -7 -10 -15.5l-9.5 -16.5t-7 -14.5t-1.5 -9.5
q8 2 14 12.5t6 20.5q0 2 -0.5 3.5t-0.5 3.5l3 1q1 -3 1 -8q0 -2 -1 -8.5t-4 -14t-7.5 -13t-11.5 -5.5q-6 0 -7.5 5t-1.5 8q0 29 15 50.5t30 40.5l3 6l3 -1l-3 -6q-2 -10 -5 -19.5t-5 -19.5z" />
    <glyph glyph-name="j" unicode="j" horiz-adv-x="56" 
d="M69 254q-5 -7 -10.5 -15.5t-10 -16.5t-7 -14.5t-1.5 -9.5q8 2 14 12t6 21q0 5 -1 7l3 1q1 -3 1 -8q0 -2 -1 -8.5t-4 -13.5t-7.5 -13t-11.5 -6q-6 0 -7.5 5t-1.5 8q0 29 15 50.5t30 40.5l3 6l3 -1l-3 -6zM-142 -345h2h-1l-1 2l-7 11q-4 10 -5 19.5t-1 18.5q0 29 10 55.5
t21 51.5q15 33 37 70t47 62l31 99.5l29 99.5l8 36l3 -1l-8 -36q-9 -41 -16.5 -81t-18.5 -82q17 20 32.5 35l38.5 38l-1 -5q-5 -6 -14 -15.5t-19.5 -19.5l-20.5 -20t-17 -19q-11 -51 -26.5 -99l-32.5 -98l-11 -31.5t-13 -32.5t-15 -30t-17 -23l-3 -4l-1 -1h-10zM-117 -190
q-10 -24 -19 -50t-9 -52q0 -20 7 -35l2 -2q3 3 7 11q12 23 24.5 53.5t24 64.5t21 69t16.5 68q0 -1 -1 -1q-21 -30 -40 -61.5t-33 -64.5z" />
    <glyph glyph-name="k" unicode="k" horiz-adv-x="201" 
d="M69 151q-15 -14 -28.5 -32.5t-24.5 -39.5l-21.5 -42.5l-19.5 -40.5l-2 2q7 12 11 23q3 7 8.5 22l11 30l10 27t6.5 14v-1l35.5 135t44.5 132q8 16 14 34t13.5 35.5t18 34t27.5 29.5q1 0 2 0.5t2 0.5q10 0 10.5 -9.5t0.5 -15.5q0 -28 -7.5 -66.5t-21.5 -80.5t-33.5 -83.5
t-42.5 -74.5q18 5 32 5q11 0 24.5 -2t25 -7.5t19.5 -14.5t8 -23q0 -15 -8.5 -30.5t-21.5 -29.5t-29.5 -24.5t-32.5 -15.5q5 -17 8.5 -27.5t19.5 -10.5q6 0 15.5 5t20.5 12.5t22 16l20 15.5l2 -3l-20 -15.5t-22 -16t-21.5 -12.5t-17.5 -5q-17 0 -23 14.5t-7 25.5
q-9 -3 -18 -3t-12 2.5t-3 9.5q0 8 3.5 18.5t12.5 10.5t12.5 -11l5.5 -17q15 5 29 15t25 22.5t17.5 26t6.5 25.5q0 17 -17.5 23.5t-38.5 6.5q-15 0 -28 -4t-23 -15zM76 46q9 0 18 3l-5 15t-8 9q-4 0 -6.5 -6.5t-2.5 -12.5q0 -8 4 -8zM26 126q11 21 25 36l39.5 72.5t40.5 85
t31.5 91t12.5 89.5q-13 -10 -22.5 -24.5t-17 -31t-14.5 -34l-14 -33.5q-28 -60 -46 -123.5z" />
    <glyph glyph-name="l" unicode="l" horiz-adv-x="104" 
d="M7 76q-3 -13 -6.5 -25.5t-6.5 -24.5q0 -11 7 -17.5t18 -6.5q28 0 50 14.5t39 37.5h1l3 1q-15 -23 -39 -40t-53 -17q-11 0 -20 7t-9 18v3q22 87 47 167.5t58 162.5q10 19 17 39.5t15 41t19 40t30 36.5q2 1 3.5 2t7.5 1q9 0 10.5 -9.5t1.5 -12.5q0 -52 -16 -108t-42.5 -111
t-61.5 -106t-73 -93zM108 351q-29 -66 -54 -132.5t-45 -135.5q49 56 83 126.5t56 140.5q13 35 23.5 73.5t10.5 71.5q-14 -13 -23.5 -30t-18 -36.5t-16 -39.5t-16.5 -38z" />
    <glyph glyph-name="m" unicode="m" horiz-adv-x="360" 
d="M193 126q-24 -26 -41.5 -58.5t-31.5 -66.5l-3 1l7 19q8 27 20.5 54.5t12.5 53.5q0 19 -11.5 31t-29.5 12q-14 0 -26 -6.5t-21.5 -16.5t-18 -23t-14.5 -25q-17 -23 -29 -47t-26 -48h-1q-2 -6 -4 -8l-3 1q2 4 4 7.5t4 7.5l28 89t38 82l2 7h3l-2 -8q-2 -9 -3 -17t-2 -17
q14 14 30.5 24.5t36.5 10.5q26 0 39.5 -16t13.5 -37q0 -4 -0.5 -7t-0.5 -5q14 26 39.5 46.5t59.5 20.5q25 0 42.5 -14.5t17.5 -43.5q0 -18 -6.5 -33t-15 -28.5t-15 -25t-6.5 -21.5q0 -7 5 -12.5t12 -6.5q21 2 37 19.5t30 34.5l3 -2q-7 -8 -14.5 -17.5t-16 -18t-18 -14
t-20.5 -5.5q-10 0 -17 7t-7 17q0 4 3 9q9 24 21.5 46t12.5 48q0 25 -13 35t-33 10q-21 0 -39.5 -13t-32.5 -32z" />
    <glyph glyph-name="n" unicode="n" horiz-adv-x="213" 
d="M106 167q-20 -7 -37.5 -24.5t-33 -40t-29.5 -48l-27 -48.5h-2l-2 -4t-3 -4l-3 2q3 4 5.5 8t4.5 9q9 22 15.5 44t13.5 43t15.5 41t21.5 40l2 7h3l-2 -8q-2 -11 -3 -20.5t-3 -20.5q16 17 36.5 30.5t45.5 13.5q23 0 40.5 -13.5t17.5 -42.5q0 -19 -6.5 -34.5t-14.5 -29
l-14.5 -25.5t-6.5 -24q0 -5 2 -10.5t8 -5.5q7 0 17.5 6t20 14.5t17 17t9.5 13.5h4q-2 -6 -10 -15t-18.5 -17.5t-21 -14.5t-17.5 -6q-8 0 -11.5 6.5t-3.5 13.5q0 13 5.5 26t12.5 26.5t12.5 27t5.5 27.5q0 22 -12 33t-31 11q-14 0 -23 -4z" />
    <glyph glyph-name="o" unicode="o" horiz-adv-x="219" 
d="M151 54q-19 -28 -43.5 -46t-53.5 -18q-18 0 -30.5 7t-20.5 18t-11.5 24t-3.5 26q0 22 8.5 43.5t23 39t34 28t41.5 10.5q24 0 38 -12.5t24 -32.5l-3 -1q-11 22 -23 28.5t-27 6.5q-17 0 -35 -10.5t-32.5 -27t-23.5 -37t-9 -40.5q0 -24 14 -42t40 -18q32 0 55 20t40 45
q-14 -3 -28 -3q-35 0 -55.5 17.5t-26.5 44.5l-3 9l3 1l3 -8q14 -25 41 -37.5t52 -12.5q8 0 14 1t7.5 20.5t-2.5 35.5l3 1q8 -30 0 -56q48 7 80 47l2 -2q-6 -8 -12.5 -14.5t-14.5 -12.5t-17.5 -11l-19.5 -10t-17.5 -10t-10.5 -11z" />
    <glyph glyph-name="p" unicode="p" horiz-adv-x="237" 
d="M118 -3q18 -6 40 -6q26 0 48.5 11t31.5 37l3 -1q-10 -27 -34 -38.5t-50 -11.5q-23 0 -49.5 7.5t-48.5 21.5q-29 5 -51 18q-33 -57 -61 -115t-47 -121q-3 -11 -7.5 -32.5t-8.5 -43t-7.5 -37.5t-5.5 -17q1 0 1.5 -0.5t1.5 -0.5q1 -1 2 -1q0 -1 1 -1l-1 1q0 2 2.5 7.5
t6.5 12.5l8.5 14.5t6.5 13.5l51 134.5l48 137.5l9 34l3 -1l-9 -33q-15 -54 -27.5 -107.5t-30.5 -106.5l-11.5 -33t-17 -40.5t-20 -34t-21.5 -14.5q-5 0 -9.5 3t-4.5 6q0 42 8.5 75t19.5 68q20 58 47.5 112.5t59.5 106.5q2 2 5 8t3 8q-2 1 -5.5 3.5t-3.5 14.5q0 6 0.5 13.5
t5.5 7.5q1 0 6.5 -3t8.5 -9q14 39 39 75l22 50l3 -2l-17 -37q14 16 32.5 27.5t41.5 11.5q13 0 27 -4t25.5 -12.5t19 -21t7.5 -29.5q0 -23 -9.5 -43t-25 -35t-35.5 -24t-41 -9q-8 0 -15.5 0.5t-14.5 1.5l21.5 -9.5t22.5 -7.5zM12 58q-2 0 -4 3.5t-4 3.5q-3 0 -3 -7
q0 -3 1.5 -6.5t3.5 -4.5h1q1 3 2 5.5t2 5.5h1zM34 35l-9 7.5t-8 8.5l-2 -4l-2 -4q10 -5 19 -8h2zM48 30q23 -5 41 -5q19 0 38.5 6.5t35 18.5t25 29.5t9.5 39.5q0 21 -15.5 35t-38.5 14h-5h-8q-17 0 -31 -7.5t-26 -19.5t-22.5 -27t-18.5 -30l-12 -26q13 -16 28 -28z" />
    <glyph glyph-name="q" unicode="q" horiz-adv-x="214" 
d="M34 -241q-5 -20 -8.5 -42t-3.5 -40v-5q-6 -4 -5 -4h1q2 0 4 -2v6q9 9 16 23t13 30t11 33t10 31l33.5 91.5t31.5 92.5l8 30l3 -1l-8 -30q-21 -95 -48 -189q-5 -13 -12.5 -35t-17 -43.5t-20.5 -37t-24 -15.5q-11 0 -11.5 9.5t-0.5 11.5q0 8 1 14t2 14q13 85 48.5 160
t77.5 148q-16 -4 -32.5 -7t-33.5 -3q-12 0 -26 3t-26 9.5t-20 18t-8 29.5t9 40.5t24.5 42.5t36.5 33.5t46 13.5q21 0 28.5 -11t17.5 -30l-3 -1q-14 32 -36 32q-15 0 -34 -12t-35.5 -30t-27.5 -40t-11 -41q0 -15 7.5 -24.5t19 -15t25 -7.5t26.5 -2q14 0 27.5 2l27.5 4l28 44
l28 44l3 -2l-27.5 -42.5l-27.5 -43.5q2 1 4 1q38 9 71 27l2 -3q-35 -18 -72 -27q-3 0 -7 -2q-34 -60 -61 -122t-44 -128z" />
    <glyph glyph-name="r" unicode="r" horiz-adv-x="193" 
d="M160 13q16 8 26 21l3 -2q-10 -11 -23 -19t-30 -8q-16 0 -33 5.5t-33 14.5t-29.5 19.5t-21.5 20.5h-1q-5 0 -11.5 -13.5t-13.5 -26.5l-8 -23l-3 1l8 23q2 7 3.5 13t3.5 13q-9 5 -9 15q0 2 2 8.5t10 6.5h3l2 -4l12 39l24 30l2 6l3 -2l-3 -5l-6 -38q-6 -11 -7.5 -13
t-6.5 -13q5 -14 19.5 -17t25.5 -3q32 0 60.5 17.5t30.5 49.5q0 17 -6.5 27t-17.5 15.5t-25.5 7.5t-30.5 2q-8 0 -19.5 -1t-23 -3t-21 -6.5t-13.5 -11.5v-3q-3 3 -3 4q0 7 11.5 12t27.5 8t32.5 4.5t27.5 1.5q28 0 50.5 -12t22.5 -42q0 -35 -26.5 -60t-67.5 -25
q17 -9 35 -22.5t36 -13.5q8 0 12 2zM-1 58q1 4 2 7.5t2 7.5l-2 6h-1q-3 0 -4.5 -3t-2.5 -6q0 -9 6 -12z" />
    <glyph glyph-name="s" unicode="s" horiz-adv-x="179" 
d="M129 150q17 -17 29 -38t12 -47q0 -18 -8.5 -30.5t-21.5 -20.5t-28 -12t-28 -4q-11 0 -26 2t-28.5 7.5t-23 15.5t-9.5 27q0 14 11 24t25 10q4 0 10 -2h2q9 -2 17 -7.5t14 -12.5l-2 -2q-8 8 -18.5 14t-21.5 6q-14 0 -24 -8t-10 -22q0 -13 7.5 -21.5t18.5 -13.5t23.5 -7
t23.5 -2q13 0 27.5 3t27 9.5t21 17.5t8.5 26q0 30 -21 54.5t-46 35.5q-6 -14 -14.5 -26.5l-16.5 -23.5l-14 -20h-2l-1 1l14 21q8 12 14 24.5t10 26.5q-1 1 -2 1t-3 1q-3 1 -10.5 2t-15 3.5t-13.5 8t-6 15.5q0 9 5 14.5t11.5 9t14 5t12.5 1.5q16 0 21 -9.5t5 -17.5
q0 -5 -1.5 -9.5t-1.5 -9.5q17 -7 33 -20zM85 182q0 7 -1.5 12t-6.5 5q-6 0 -14.5 -4t-10.5 -9q-1 0 -2 1q-2 2 0.5 0t8 -5t12.5 -5.5t13 -2.5h1h-1q0 1 0.5 1t0.5 1v6z" />
    <glyph glyph-name="t" unicode="t" horiz-adv-x="54" 
d="M544 244l1 -3l-27 -3q-81 -12 -160 -19t-162 -7q-33 0 -66 1t-65 4l-41.5 -107t-37.5 -108l-3 1q17 54 32 107.5t32 107.5q-23 2 -56 5.5t-64 12t-53 24t-24 41.5h3q1 -26 23 -40t53 -21.5t64 -10t56 -3.5q12 35 26.5 68.5t37.5 63.5l2 -2q-9 -12 -15.5 -28.5t-11 -33.5
l-9.5 -35t-11 -33q13 -1 26 -1h27q58 0 115.5 3.5t116.5 8.5q42 2 82.5 2t82.5 3z" />
    <glyph glyph-name="u" unicode="u" horiz-adv-x="181" 
d="M156 113q-11 -18 -21.5 -39t-10.5 -41q0 -26 28 -26q11 0 20 5t9 15q0 1 1 1q2 0 2 -3q0 -14 -12 -19.5t-23 -5.5q-18 0 -25.5 8.5t-9.5 19.5q-11 -15 -29 -19.5t-34 -6.5q-9 1 -19.5 3.5t-19.5 8t-15 15.5t-6 25q0 14 6.5 29.5t14 30l14 27.5t6.5 22q0 17 -16 19l-1 3
q11 0 15.5 -7t4.5 -15q0 -9 -5 -16l-17.5 -40.5t-8.5 -41.5q0 -16 7 -24.5t16 -13.5q11 -5 24 -7h9q11 0 27.5 2t25.5 11q0 35 16 69t47 72l6 9l2 -2l-5 -8l-12 -30t-11 -30z" />
    <glyph glyph-name="v" unicode="v" horiz-adv-x="137" 
d="M132 173q2 5 9 14l2 -3q-8 -8 -14 -21t-11.5 -28.5l-10.5 -30.5l-9 -27q-6 -10 -12.5 -23t-14.5 -25t-17 -20t-19 -8q-14 0 -22.5 7t-13.5 17.5t-7 23t-2 23.5q0 21 4 41t9 40q2 5 3.5 10t1.5 9q0 5 -5 5q-9 0 -17.5 -4l-17.5 -8v4q8 2 16.5 6.5t17.5 4.5q10 0 10 -8
q0 -22 -6.5 -43.5t-6.5 -44.5q0 -10 1.5 -22t5.5 -22t10 -17t14 -7t14.5 7.5t12 18.5t10.5 23t11 22l26 43t28 43z" />
    <glyph glyph-name="w" unicode="w" horiz-adv-x="273" 
d="M237 78q-12 -30 -38 -56t-62 -26q-27 0 -38 16.5t-11 39.5q0 4 0.5 7.5t0.5 7.5l-19.5 -37.5t-31.5 -29.5q-14 0 -22.5 6.5t-13 16.5t-6 22t-1.5 22q0 25 8 50.5t8 45.5q0 5 -4 6q-8 0 -15 -3.5l-15 -7.5v3q7 3 14.5 7t16.5 4q6 -4 6 -10q0 -17 -5 -38.5t-5 -42.5
q0 -10 1 -21.5t4.5 -21.5t9.5 -17t16 -7q10 7 22 27t23.5 46t22.5 53.5l20 48.5l3 -1l-5 -14q-7 -27 -16.5 -57.5t-9.5 -54.5q0 -20 7 -36.5t25 -16.5q34 0 53.5 19.5t33 48.5t25 62.5t28.5 61.5l3 -2q-7 -9 -11.5 -23.5t-7.5 -31.5l-6 -34.5t-8 -31.5z" />
    <glyph glyph-name="x" unicode="x" horiz-adv-x="140" 
d="M146 186q4 3 14 7l1 -3q-15 -8 -25 -19t-18 -23.5l-16 -25.5t-19 -24l22 -55.5t28 -47.5l-2 -3q-17 18 -30.5 44.5t-27.5 49.5l-43 -49.5t-39 -37t-51 -26.5t-79 -18v3q50 7 79.5 20t49 31t35 42t37.5 54q-5 8 -9.5 16.5t-9.5 16.5q-4 13 -8 31t-12 26l3 3l2 -4l2 -4
q14 -17 23.5 -32t20.5 -38q17 17 33 35.5t39 30.5z" />
    <glyph glyph-name="y" unicode="y" horiz-adv-x="259" 
d="M226 20q10 7 17.5 15.5l15.5 17.5l3 -2q-15 -18 -36 -36t-45 -18q-12 0 -23.5 10.5t-11.5 22.5l-7 -25q-11 -49 -23.5 -97t-26.5 -96l-16 -45.5t-19.5 -50.5t-22 -40.5t-22.5 -16.5q-7 0 -11.5 5t-4.5 11q0 2 0.5 4t0.5 4q4 46 20 92t37 90.5t44 87.5t41 84q1 1 1 2
q-12 -17 -29 -28.5t-43 -11.5q-11 0 -24.5 2.5t-25 8.5t-19.5 16.5t-8 27.5q0 13 5.5 29t14 32l17.5 31.5l16 27.5l7 16l2 -1l-7 -16l-16.5 -52t-14.5 -52q-5 -10 -5 -17q0 -19 21 -29t44 -10t40 14.5t31 33.5q0 35 12.5 64t28.5 55l5 10h3q-1 -20 -6.5 -38.5t-12 -36.5
t-11.5 -36t-5 -36q0 -20 8 -28.5t22 -8.5q10 0 20.5 4t18.5 10zM187 179l1 2q-3 -31 -14 -63q3 15 5.5 30.5t7.5 30.5zM145 36q-1 2 -1 4.5t-1 4.5q-2 -6 -4 -9q-17 -40 -39 -83.5t-41.5 -88.5t-33.5 -90.5t-16 -90.5q0 -7 -2 -7t-2 -2q0 -1 1 -1t1 -0.5t2 -0.5v5
q7 0 15.5 17t16.5 40.5l15.5 47t12.5 37.5l34 93l33 93l8 31h1z" />
    <glyph glyph-name="z" unicode="z" horiz-adv-x="222" 
d="M260 -38q5 -2 11 -2h11q23 0 44.5 9t38.5 26l2 -2q-17 -17 -39 -26.5t-46 -9.5q-26 0 -52.5 8t-53 17l-52 17t-49.5 8h-13l-2 1v-2q0 -1 1 -1q-1 0 -3.5 7t-1.5 6l3 3l1 -1q0 1 -1 1l4 5q29 29 54.5 60.5t49.5 64.5l18 25v1v-1q-10 2 -19.5 3t-20.5 1q-29 0 -58 -7.5
t-55 -21.5l-22 -15l-2 2l22 16q32 20 68 31.5t74 11.5h13.5t13.5 -1l5 -1l2 -1q1 0 4.5 -3t3.5 -8q0 -2 -2 -6l-4 -5l-25 -33q-25 -32 -52.5 -62t-56.5 -58l3 -1q24 -3 47 -10t45.5 -16l44.5 -17.5t46 -12.5z" />
    <glyph glyph-name="comma" unicode="," horiz-adv-x="121" 
d="M99 5l3 -1l-2 -5q-1 -10 -1.5 -19t-2.5 -19q-12 -20 -26 -39.5t-32 -34.5q-4 -5 -8.5 -8.5t-9.5 -8.5l-2 3l9.5 7.5t8.5 8.5q14 18 23.5 38.5t16.5 42.5l10.5 14.5t10.5 15.5z" />
    <glyph glyph-name="semicolon" unicode=";" horiz-adv-x="147" 
d="M100 5l3 -1l-2 -5q-1 -10 -1.5 -19t-2.5 -19q-17 -28 -35 -48t-41 -43l-2 3q24 20 36.5 44.5t21.5 52.5l10.5 14.5t10.5 15.5zM118 28q5 7 5 12h4q-2 -7 -6.5 -13.5t-11.5 -6.5q-8 0 -14 8t-6 17q0 5 4 13.5t13 8.5q7 0 13 -4.5t6 -10.5v-2l1 -4h-3l-1 3q-1 0 -1 0.5
t-1 0.5q-3 0 -6.5 -7t-3.5 -12q0 -4 3 -4t5 1z" />
    <glyph glyph-name="colon" unicode=":" horiz-adv-x="116" 
d="M64 28q5 7 5 12h4q-2 -7 -6.5 -13.5t-11.5 -6.5q-8 0 -14 8t-6 17q0 5 4 13.5t13 8.5q7 0 13 -4.5t6 -10.5v-2l1 -4h-3l-1 3q-1 0 -1 0.5t-1 0.5q-3 0 -6.5 -7t-3.5 -12q0 -4 3 -4t5 1zM87 100q5 7 5 12h4q-2 -7 -6.5 -13.5t-11.5 -6.5q-8 0 -14 8t-6 17q0 5 4 13.5
t13 8.5q7 0 13 -4.5t6 -10.5v-2l1 -4h-3l-1 3q-1 0 -1 0.5t-1 0.5q-3 0 -6.5 -7t-3.5 -12q0 -4 3 -4t5 1z" />
    <glyph glyph-name="period" unicode="." horiz-adv-x="92" 
d="M63 7q5 5 5 11h4q-2 -9 -7 -14q-7 -8 -15 -5t-12.5 11t-3 18.5t13.5 16.5q8 2 16 -4t6 -13l1 -4h-3l-1 3q-2 2 -5.5 -2t-5.5 -9t-1 -8.5t8 -0.5z" />
    <glyph glyph-name="hyphen" unicode="-" horiz-adv-x="229" 
d="M73 191q26 -4 53 -6.5t54 -4.5h28v-4l-28 1l-54 -4l-54 -4l-42 12h-7v3h7l43 7v0z" />
    <glyph glyph-name="slash" unicode="/" horiz-adv-x="199" 
d="M176 485q-5 -29 -11.5 -59l-13.5 -60l-51.5 -145l-53.5 -144l-26 -78l-3 1l27 78l44 147t42 148l22 56t21 57l5 19l3 -1l-5 -19v0z" />
    <glyph glyph-name="question" unicode="?" horiz-adv-x="388" 
d="M310 432q9 -1 18.5 -4.5t17.5 -9.5t13.5 -14.5t5.5 -19.5q0 -24 -13 -49.5t-32 -51t-40.5 -50t-38.5 -46.5l-49 -64.5t-33 -72.5h-3q4 21 13 39t20.5 35t24 33t24.5 33l37.5 46.5t38 49.5t29.5 49t12 44q0 16 -9 24.5t-22.5 12.5t-28.5 4.5t-28 0.5q-29 0 -55 -5
t-45.5 -17t-31 -33.5t-11.5 -54.5q0 -9 2 -29t8 -40.5t17.5 -36.5t29.5 -17q17 2 33.5 13t31 26.5t25 32.5t16.5 31l3 -1q-1 -2 -9.5 -20t-23.5 -39t-35 -38.5t-44 -17.5q-19 0 -33 13.5t-23.5 33t-14 42.5t-4.5 42q0 63 40.5 96t112.5 33q27 0 54 -3zM158 3q5 3 7 11l3 -1
q-2 -6 -7 -11.5t-11 -5.5q-8 0 -13 7.5t-5 16.5q0 8 4 14.5t15 9.5q7 0 13 -5.5t6 -12.5q0 -3 -1 -4v-3l-4 1l1 3h-1q-4 0 -9.5 -6.5t-5.5 -11.5q0 -3 4 -3q2 0 4 1z" />
    <glyph glyph-name="exclam" unicode="!" horiz-adv-x="171" 
d="M28 1q2 2 4 5t4 5h3q-2 -5 -7 -10.5t-11 -5.5q-8 0 -13 7.5t-5 17.5q0 8 4.5 15t15.5 9q8 -2 13 -7.5t5 -11.5q0 -3 -1 -5v-3h-3l1 3q-1 0 -1 0.5t-1 0.5q-4 0 -10 -6t-6 -11q0 -3 5 -3h3zM155 413l-20 -85l-82 -207l-19 -56l-3 1l19 56l64 212l38 80l4 13h3z" />
    <glyph glyph-name="circumflex" unicode="&#x2c6;" horiz-adv-x="122" 
d="M116 210l-1 -3l-3 1q-17 0 -27 11t-21 19q-4 -8 -14.5 -16.5t-17.5 -13.5l-18 -2l1 4q3 2 5 5.5t5 6.5q10 4 22.5 8t16.5 12l3 -1q0 -4 5.5 -7.5t13.5 -6.5t15.5 -7t12.5 -10h2z" />
    <glyph glyph-name="acute" unicode="&#xb4;" horiz-adv-x="121" 
d="M96 241q3 2 6 5.5t5 6.5l2 -1q-13 -16 -29.5 -28t-37.5 -19q-13 0 -26 5h-4v2l4 -1q14 2 38 9t42 21z" />
    <glyph glyph-name="grave" unicode="`" horiz-adv-x="121" 
d="M25 241q17 -14 41.5 -21t38.5 -9l4 1v-2h-4q-13 -5 -26 -5q-21 7 -38 19t-29 28l2 1q2 -3 5 -6.5t6 -5.5z" />
    <glyph glyph-name="dieresis" unicode="&#xa8;" horiz-adv-x="103" 
d="M38 252h3q0 -15 -4.5 -29.5t-12.5 -17.5l-2 -2l-2 2l-2.5 7.5t-3.5 6.5q5 6 11.5 12.5t10.5 13.5zM89 252h2q0 -9 -3 -26t-14 -21v-2l-3 2l-5 14q3 6 8 12l12 14z" />
    <glyph glyph-name="dotaccent" unicode="&#x2d9;" horiz-adv-x="99" 
d="M69 231q5 0 6 -1q3 -3 2 -6q0 -6 -3.5 -11.5t-11.5 -7.5t-15 4q-3 4 -3.5 8.5t0.5 8.5q9 11 20 9h3l-1 -2h-2q-8 -4 -8 -12q-1 -2 -1 -5q1 -3 6 -3q11 -2 15 11q0 7 -7 5v2v0z" />
    <glyph glyph-name="space" unicode=" " horiz-adv-x="150" 
 />
    <glyph glyph-name="agrave" unicode="&#xe0;" 
d="M203 9q13 7 22 18.5t16 25.5l3 -1q-9 -18 -25 -35t-36 -17q-17 0 -26.5 12t-9.5 32q0 11 3 23q-10 -10 -20 -21.5t-22 -21t-26 -16t-31 -6.5q-21 0 -41.5 12.5t-20.5 43.5q0 27 12.5 50.5t33 41t45 27.5t48.5 10q13 0 25.5 -2l24.5 -4v-3q-9 1 -18.5 2.5t-18.5 1.5
q-26 0 -49.5 -11t-42 -29t-29.5 -41t-11 -48q0 -17 13.5 -26t31.5 -9q16 0 32.5 9.5t30.5 22.5t25.5 27.5t18.5 24.5l8 17q4 8 5 12l7 16v1q-1 0 4.5 -1.5t5.5 -2.5l-2 1v-1v1l-1 -3l1 2l-2 -9q-8 -14 -13 -27t-14 -27v-1q-8 -21 -8 -39q0 -38 31 -38q11 0 20 6zM86 241
q17 -14 41.5 -21t38.5 -9l4 1v-2h-4q-13 -5 -26 -5q-21 7 -38 19t-29 28l2 1q2 -3 5 -6.5t6 -5.5z" />
    <glyph glyph-name="aacute" unicode="&#xe1;" 
d="M203 9q13 7 22 18.5t16 25.5l3 -1q-9 -18 -25 -35t-36 -17q-17 0 -26.5 12t-9.5 32q0 11 3 23q-10 -10 -20 -21.5t-22 -21t-26 -16t-31 -6.5q-21 0 -41.5 12.5t-20.5 43.5q0 27 12.5 50.5t33 41t45 27.5t48.5 10q13 0 25.5 -2l24.5 -4v-3q-9 1 -18.5 2.5t-18.5 1.5
q-26 0 -49.5 -11t-42 -29t-29.5 -41t-11 -48q0 -17 13.5 -26t31.5 -9q16 0 32.5 9.5t30.5 22.5t25.5 27.5t18.5 24.5l8 17q4 8 5 12l7 16v1q-1 0 4.5 -1.5t5.5 -2.5l-2 1v-1v1l-1 -3l1 2l-2 -9q-8 -14 -13 -27t-14 -27v-1q-8 -21 -8 -39q0 -38 31 -38q11 0 20 6zM157 241
q3 2 6 5.5t5 6.5l2 -1q-13 -16 -29.5 -28t-37.5 -19q-13 0 -26 5h-4v2l4 -1q14 2 38 9t42 21z" />
    <glyph glyph-name="acircumflex" unicode="&#xe2;" 
d="M203 9q13 7 22 18.5t16 25.5l3 -1q-9 -18 -25 -35t-36 -17q-17 0 -26.5 12t-9.5 32q0 11 3 23q-10 -10 -20 -21.5t-22 -21t-26 -16t-31 -6.5q-21 0 -41.5 12.5t-20.5 43.5q0 27 12.5 50.5t33 41t45 27.5t48.5 10q13 0 25.5 -2l24.5 -4v-3q-9 1 -18.5 2.5t-18.5 1.5
q-26 0 -49.5 -11t-42 -29t-29.5 -41t-11 -48q0 -17 13.5 -26t31.5 -9q16 0 32.5 9.5t30.5 22.5t25.5 27.5t18.5 24.5l8 17q4 8 5 12l7 16v1q-1 0 4.5 -1.5t5.5 -2.5l-2 1v-1v1l-1 -3l1 2l-2 -9q-8 -14 -13 -27t-14 -27v-1q-8 -21 -8 -39q0 -38 31 -38q11 0 20 6zM181 210
l-1 -3l-3 1q-17 0 -27 11t-21 19q-4 -8 -14.5 -16.5t-17.5 -13.5l-18 -2l1 4q3 2 5 5.5t5 6.5q10 4 22.5 8t16.5 12l3 -1q0 -4 5.5 -7.5t13.5 -6.5t15.5 -7t12.5 -10h2z" />
    <glyph glyph-name="adieresis" unicode="&#xe4;" 
d="M203 9q13 7 22 18.5t16 25.5l3 -1q-9 -18 -25 -35t-36 -17q-17 0 -26.5 12t-9.5 32q0 11 3 23q-10 -10 -20 -21.5t-22 -21t-26 -16t-31 -6.5q-21 0 -41.5 12.5t-20.5 43.5q0 27 12.5 50.5t33 41t45 27.5t48.5 10q13 0 25.5 -2l24.5 -4v-3q-9 1 -18.5 2.5t-18.5 1.5
q-26 0 -49.5 -11t-42 -29t-29.5 -41t-11 -48q0 -17 13.5 -26t31.5 -9q16 0 32.5 9.5t30.5 22.5t25.5 27.5t18.5 24.5l8 17q4 8 5 12l7 16v1q-1 0 4.5 -1.5t5.5 -2.5l-2 1v-1v1l-1 -3l1 2l-2 -9q-8 -14 -13 -27t-14 -27v-1q-8 -21 -8 -39q0 -38 31 -38q11 0 20 6zM122 252h3
q0 -15 -4.5 -29.5t-12.5 -17.5l-2 -2l-2 2l-2.5 7.5t-3.5 6.5q5 6 11.5 12.5t10.5 13.5zM173 252h2q0 -9 -3 -26t-14 -21v-2l-3 2l-5 14q3 6 8 12l12 14z" />
    <glyph glyph-name="egrave" unicode="&#xe8;" horiz-adv-x="216" 
d="M153 149q-8 -23 -22.5 -38t-32.5 -24t-37.5 -14t-37.5 -9l-19 -4q2 -25 18.5 -40t47.5 -15q41 0 78 17t69 40l2 -2q-32 -24 -72.5 -42.5t-81.5 -18.5q-38 0 -55 20.5t-17 49.5q0 22 9.5 43.5t25.5 38.5t37.5 27.5t46.5 10.5q15 0 28 -9.5t13 -27.5v-3zM22 67
q17 5 36.5 13.5t36 19.5t27 25t10.5 31q0 8 -7 11t-18 3q-20 0 -38.5 -9t-33 -24t-23 -34t-8.5 -39zM72 241q17 -14 41.5 -21t38.5 -9l4 1v-2h-4q-13 -5 -26 -5q-21 7 -38 19t-29 28l2 1q2 -3 5 -6.5t6 -5.5z" />
    <glyph glyph-name="eacute" unicode="&#xe9;" horiz-adv-x="216" 
d="M153 149q-8 -23 -22.5 -38t-32.5 -24t-37.5 -14t-37.5 -9l-19 -4q2 -25 18.5 -40t47.5 -15q41 0 78 17t69 40l2 -2q-32 -24 -72.5 -42.5t-81.5 -18.5q-38 0 -55 20.5t-17 49.5q0 22 9.5 43.5t25.5 38.5t37.5 27.5t46.5 10.5q15 0 28 -9.5t13 -27.5v-3zM22 67
q17 5 36.5 13.5t36 19.5t27 25t10.5 31q0 8 -7 11t-18 3q-20 0 -38.5 -9t-33 -24t-23 -34t-8.5 -39zM143 241q3 2 6 5.5t5 6.5l2 -1q-13 -16 -29.5 -28t-37.5 -19q-13 0 -26 5h-4v2l4 -1q14 2 38 9t42 21z" />
    <glyph glyph-name="ecircumflex" unicode="&#xea;" horiz-adv-x="216" 
d="M153 149q-8 -23 -22.5 -38t-32.5 -24t-37.5 -14t-37.5 -9l-19 -4q2 -25 18.5 -40t47.5 -15q41 0 78 17t69 40l2 -2q-32 -24 -72.5 -42.5t-81.5 -18.5q-38 0 -55 20.5t-17 49.5q0 22 9.5 43.5t25.5 38.5t37.5 27.5t46.5 10.5q15 0 28 -9.5t13 -27.5v-3zM22 67
q17 5 36.5 13.5t36 19.5t27 25t10.5 31q0 8 -7 11t-18 3q-20 0 -38.5 -9t-33 -24t-23 -34t-8.5 -39zM159 210l-1 -3l-3 1q-17 0 -27 11t-21 19q-4 -8 -14.5 -16.5t-17.5 -13.5l-18 -2l1 4q3 2 5 5.5t5 6.5q10 4 22.5 8t16.5 12l3 -1q0 -4 5.5 -7.5t13.5 -6.5t15.5 -7
t12.5 -10h2z" />
    <glyph glyph-name="edieresis" unicode="&#xeb;" horiz-adv-x="216" 
d="M153 149q-8 -23 -22.5 -38t-32.5 -24t-37.5 -14t-37.5 -9l-19 -4q2 -25 18.5 -40t47.5 -15q41 0 78 17t69 40l2 -2q-32 -24 -72.5 -42.5t-81.5 -18.5q-38 0 -55 20.5t-17 49.5q0 22 9.5 43.5t25.5 38.5t37.5 27.5t46.5 10.5q15 0 28 -9.5t13 -27.5v-3zM22 67
q17 5 36.5 13.5t36 19.5t27 25t10.5 31q0 8 -7 11t-18 3q-20 0 -38.5 -9t-33 -24t-23 -34t-8.5 -39zM109 252h3q0 -15 -4.5 -29.5t-12.5 -17.5l-2 -2l-2 2l-2.5 7.5t-3.5 6.5q5 6 11.5 12.5t10.5 13.5zM160 252h2q0 -9 -3 -26t-14 -21v-2l-3 2l-5 14q3 6 8 12l12 14z" />
    <glyph glyph-name="igrave" unicode="&#xec;" horiz-adv-x="107" 
d="M30 0q29 1 47.5 12.5t33.5 31.5h-4q-13 -17 -31.5 -27.5t-35.5 -10.5q-13 0 -25.5 7t-12.5 24t6.5 35t13.5 35l8 32t9 33l4 10l-2 1l-5 -10q-19 -29 -33 -59.5t-14 -67.5q0 -24 11.5 -35t29.5 -11zM18 241q17 -14 41.5 -21t38.5 -9l4 1v-2h-4q-13 -5 -26 -5q-21 7 -38 19
t-29 28l2 1q2 -3 5 -6.5t6 -5.5z" />
    <glyph glyph-name="iacute" unicode="&#xed;" horiz-adv-x="107" 
d="M30 0q-18 0 -29.5 11t-11.5 35q0 37 14 67.5t33 59.5l5 10l2 -1l-4 -10q-5 -17 -9 -33l-8 -32q-7 -17 -13.5 -35t-6.5 -35t12.5 -24t25.5 -7q17 0 35.5 10.5t31.5 27.5h4q-15 -20 -33.5 -31.5t-47.5 -12.5zM89 241q3 2 6 5.5t5 6.5l2 -1q-13 -16 -29.5 -28t-37.5 -19
q-13 0 -26 5h-4v2l4 -1q14 2 38 9t42 21z" />
    <glyph glyph-name="icircumflex" unicode="&#xee;" horiz-adv-x="107" 
d="M30 0q-18 0 -29.5 11t-11.5 35q0 37 14 67.5t33 59.5l5 10l2 -1l-4 -10q-5 -17 -9 -33l-8 -32q-7 -17 -13.5 -35t-6.5 -35t12.5 -24t25.5 -7q17 0 35.5 10.5t31.5 27.5h4q-15 -20 -33.5 -31.5t-47.5 -12.5zM105 210l-1 -3l-3 1q-17 0 -27 11t-21 19q-4 -8 -14.5 -16.5
t-17.5 -13.5l-18 -2l1 4q3 2 5 5.5t5 6.5q10 4 22.5 8t16.5 12l3 -1q0 -4 5.5 -7.5t13.5 -6.5t15.5 -7t12.5 -10h2z" />
    <glyph glyph-name="ograve" unicode="&#xf2;" horiz-adv-x="219" 
d="M151 54q-19 -28 -43.5 -46t-53.5 -18q-18 0 -30.5 7t-20.5 18t-11.5 24t-3.5 26q0 22 8.5 43.5t23 39t34 28t41.5 10.5q24 0 38 -12.5t24 -32.5l-3 -1q-11 22 -23 28.5t-27 6.5q-17 0 -35 -10.5t-32.5 -27t-23.5 -37t-9 -40.5q0 -24 14 -42t40 -18q32 0 55 20t40 45
q-14 -3 -28 -3q-35 0 -55.5 17.5t-26.5 44.5l-3 9l3 1l3 -8q14 -25 41 -37.5t52 -12.5q8 0 14 1t7.5 20.5t-2.5 35.5l3 1q8 -30 0 -56q48 7 80 47l2 -2q-6 -8 -12.5 -14.5t-14.5 -12.5t-17.5 -11l-19.5 -10t-17.5 -10t-10.5 -11zM74 241q17 -14 41.5 -21t38.5 -9l4 1v-2h-4
q-13 -5 -26 -5q-21 7 -38 19t-29 28l2 1q2 -3 5 -6.5t6 -5.5z" />
    <glyph glyph-name="oacute" unicode="&#xf3;" horiz-adv-x="219" 
d="M151 54q-19 -28 -43.5 -46t-53.5 -18q-18 0 -30.5 7t-20.5 18t-11.5 24t-3.5 26q0 22 8.5 43.5t23 39t34 28t41.5 10.5q24 0 38 -12.5t24 -32.5l-3 -1q-11 22 -23 28.5t-27 6.5q-17 0 -35 -10.5t-32.5 -27t-23.5 -37t-9 -40.5q0 -24 14 -42t40 -18q32 0 55 20t40 45
q-14 -3 -28 -3q-35 0 -55.5 17.5t-26.5 44.5l-3 9l3 1l3 -8q14 -25 41 -37.5t52 -12.5q8 0 14 1t7.5 20.5t-2.5 35.5l3 1q8 -30 0 -56q48 7 80 47l2 -2q-6 -8 -12.5 -14.5t-14.5 -12.5t-17.5 -11l-19.5 -10t-17.5 -10t-10.5 -11zM145 241q3 2 6 5.5t5 6.5l2 -1
q-13 -16 -29.5 -28t-37.5 -19q-13 0 -26 5h-4v2l4 -1q14 2 38 9t42 21z" />
    <glyph glyph-name="ocircumflex" unicode="&#xf4;" horiz-adv-x="219" 
d="M151 54q-19 -28 -43.5 -46t-53.5 -18q-18 0 -30.5 7t-20.5 18t-11.5 24t-3.5 26q0 22 8.5 43.5t23 39t34 28t41.5 10.5q24 0 38 -12.5t24 -32.5l-3 -1q-11 22 -23 28.5t-27 6.5q-17 0 -35 -10.5t-32.5 -27t-23.5 -37t-9 -40.5q0 -24 14 -42t40 -18q32 0 55 20t40 45
q-14 -3 -28 -3q-35 0 -55.5 17.5t-26.5 44.5l-3 9l3 1l3 -8q14 -25 41 -37.5t52 -12.5q8 0 14 1t7.5 20.5t-2.5 35.5l3 1q8 -30 0 -56q48 7 80 47l2 -2q-6 -8 -12.5 -14.5t-14.5 -12.5t-17.5 -11l-19.5 -10t-17.5 -10t-10.5 -11zM160 210l-1 -3l-3 1q-17 0 -27 11t-21 19
q-4 -8 -14.5 -16.5t-17.5 -13.5l-18 -2l1 4q3 2 5 5.5t5 6.5q10 4 22.5 8t16.5 12l3 -1q0 -4 5.5 -7.5t13.5 -6.5t15.5 -7t12.5 -10h2z" />
    <glyph glyph-name="odieresis" unicode="&#xf6;" horiz-adv-x="219" 
d="M151 54q-19 -28 -43.5 -46t-53.5 -18q-18 0 -30.5 7t-20.5 18t-11.5 24t-3.5 26q0 22 8.5 43.5t23 39t34 28t41.5 10.5q24 0 38 -12.5t24 -32.5l-3 -1q-11 22 -23 28.5t-27 6.5q-17 0 -35 -10.5t-32.5 -27t-23.5 -37t-9 -40.5q0 -24 14 -42t40 -18q32 0 55 20t40 45
q-14 -3 -28 -3q-35 0 -55.5 17.5t-26.5 44.5l-3 9l3 1l3 -8q14 -25 41 -37.5t52 -12.5q8 0 14 1t7.5 20.5t-2.5 35.5l3 1q8 -30 0 -56q48 7 80 47l2 -2q-6 -8 -12.5 -14.5t-14.5 -12.5t-17.5 -11l-19.5 -10t-17.5 -10t-10.5 -11zM110 252h3q0 -15 -4.5 -29.5t-12.5 -17.5
l-2 -2l-2 2l-2.5 7.5t-3.5 6.5q5 6 11.5 12.5t10.5 13.5zM161 252h2q0 -9 -3 -26t-14 -21v-2l-3 2l-5 14q3 6 8 12l12 14z" />
    <glyph glyph-name="ugrave" unicode="&#xf9;" horiz-adv-x="181" 
d="M156 113q-11 -18 -21.5 -39t-10.5 -41q0 -26 28 -26q11 0 20 5t9 15q0 1 1 1q2 0 2 -3q0 -14 -12 -19.5t-23 -5.5q-18 0 -25.5 8.5t-9.5 19.5q-11 -15 -29 -19.5t-34 -6.5q-9 1 -19.5 3.5t-19.5 8t-15 15.5t-6 25q0 14 6.5 29.5t14 30l14 27.5t6.5 22q0 17 -16 19l-1 3
q11 0 15.5 -7t4.5 -15q0 -9 -5 -16l-17.5 -40.5t-8.5 -41.5q0 -16 7 -24.5t16 -13.5q11 -5 24 -7h9q11 0 27.5 2t25.5 11q0 35 16 69t47 72l6 9l2 -2l-5 -8l-12 -30t-11 -30zM55 241q17 -14 41.5 -21t38.5 -9l4 1v-2h-4q-13 -5 -26 -5q-21 7 -38 19t-29 28l2 1q2 -3 5 -6.5
t6 -5.5z" />
    <glyph glyph-name="uacute" unicode="&#xfa;" horiz-adv-x="181" 
d="M156 113q-11 -18 -21.5 -39t-10.5 -41q0 -26 28 -26q11 0 20 5t9 15q0 1 1 1q2 0 2 -3q0 -14 -12 -19.5t-23 -5.5q-18 0 -25.5 8.5t-9.5 19.5q-11 -15 -29 -19.5t-34 -6.5q-9 1 -19.5 3.5t-19.5 8t-15 15.5t-6 25q0 14 6.5 29.5t14 30l14 27.5t6.5 22q0 17 -16 19l-1 3
q11 0 15.5 -7t4.5 -15q0 -9 -5 -16l-17.5 -40.5t-8.5 -41.5q0 -16 7 -24.5t16 -13.5q11 -5 24 -7h9q11 0 27.5 2t25.5 11q0 35 16 69t47 72l6 9l2 -2l-5 -8l-12 -30t-11 -30zM126 241q3 2 6 5.5t5 6.5l2 -1q-13 -16 -29.5 -28t-37.5 -19q-13 0 -26 5h-4v2l4 -1q14 2 38 9
t42 21z" />
    <glyph glyph-name="ucircumflex" unicode="&#xfb;" horiz-adv-x="181" 
d="M156 113q-11 -18 -21.5 -39t-10.5 -41q0 -26 28 -26q11 0 20 5t9 15q0 1 1 1q2 0 2 -3q0 -14 -12 -19.5t-23 -5.5q-18 0 -25.5 8.5t-9.5 19.5q-11 -15 -29 -19.5t-34 -6.5q-9 1 -19.5 3.5t-19.5 8t-15 15.5t-6 25q0 14 6.5 29.5t14 30l14 27.5t6.5 22q0 17 -16 19l-1 3
q11 0 15.5 -7t4.5 -15q0 -9 -5 -16l-17.5 -40.5t-8.5 -41.5q0 -16 7 -24.5t16 -13.5q11 -5 24 -7h9q11 0 27.5 2t25.5 11q0 35 16 69t47 72l6 9l2 -2l-5 -8l-12 -30t-11 -30zM141 210l-1 -3l-3 1q-17 0 -27 11t-21 19q-4 -8 -14.5 -16.5t-17.5 -13.5l-18 -2l1 4q3 2 5 5.5
t5 6.5q10 4 22.5 8t16.5 12l3 -1q0 -4 5.5 -7.5t13.5 -6.5t15.5 -7t12.5 -10h2z" />
    <glyph glyph-name="udieresis" unicode="&#xfc;" horiz-adv-x="181" 
d="M156 113q-11 -18 -21.5 -39t-10.5 -41q0 -26 28 -26q11 0 20 5t9 15q0 1 1 1q2 0 2 -3q0 -14 -12 -19.5t-23 -5.5q-18 0 -25.5 8.5t-9.5 19.5q-11 -15 -29 -19.5t-34 -6.5q-9 1 -19.5 3.5t-19.5 8t-15 15.5t-6 25q0 14 6.5 29.5t14 30l14 27.5t6.5 22q0 17 -16 19l-1 3
q11 0 15.5 -7t4.5 -15q0 -9 -5 -16l-17.5 -40.5t-8.5 -41.5q0 -16 7 -24.5t16 -13.5q11 -5 24 -7h9q11 0 27.5 2t25.5 11q0 35 16 69t47 72l6 9l2 -2l-5 -8l-12 -30t-11 -30zM91 252h3q0 -15 -4.5 -29.5t-12.5 -17.5l-2 -2l-2 2l-2.5 7.5t-3.5 6.5q5 6 11.5 12.5t10.5 13.5z
M142 252h2q0 -9 -3 -26t-14 -21v-2l-3 2l-5 14q3 6 8 12l12 14z" />
    <glyph glyph-name="yacute" unicode="&#xfd;" horiz-adv-x="259" 
d="M226 20q10 7 17.5 15.5l15.5 17.5l3 -2q-15 -18 -36 -36t-45 -18q-12 0 -23.5 10.5t-11.5 22.5l-7 -25q-11 -49 -23.5 -97t-26.5 -96l-16 -45.5t-19.5 -50.5t-22 -40.5t-22.5 -16.5q-7 0 -11.5 5t-4.5 11q0 2 0.5 4t0.5 4q4 46 20 92t37 90.5t44 87.5t41 84q1 1 1 2
q-12 -17 -29 -28.5t-43 -11.5q-11 0 -24.5 2.5t-25 8.5t-19.5 16.5t-8 27.5q0 13 5.5 29t14 32l17.5 31.5l16 27.5l7 16l2 -1l-7 -16l-16.5 -52t-14.5 -52q-5 -10 -5 -17q0 -19 21 -29t44 -10t40 14.5t31 33.5q0 35 12.5 64t28.5 55l5 10h3q-1 -20 -6.5 -38.5t-12 -36.5
t-11.5 -36t-5 -36q0 -20 8 -28.5t22 -8.5q10 0 20.5 4t18.5 10zM187 179l1 2q-3 -31 -14 -63q3 15 5.5 30.5t7.5 30.5zM145 36q-1 2 -1 4.5t-1 4.5q-2 -6 -4 -9q-17 -40 -39 -83.5t-41.5 -88.5t-33.5 -90.5t-16 -90.5q0 -7 -2 -7t-2 -2q0 -1 1 -1t1 -0.5t2 -0.5v5
q7 0 15.5 17t16.5 40.5l15.5 47t12.5 37.5l34 93l33 93l8 31h1zM165 241q3 2 6 5.5t5 6.5l2 -1q-13 -16 -29.5 -28t-37.5 -19q-13 0 -26 5h-4v2l4 -1q14 2 38 9t42 21z" />
    <glyph glyph-name="ydieresis" unicode="&#xff;" horiz-adv-x="259" 
d="M226 20q10 7 17.5 15.5l15.5 17.5l3 -2q-15 -18 -36 -36t-45 -18q-12 0 -23.5 10.5t-11.5 22.5l-7 -25q-11 -49 -23.5 -97t-26.5 -96l-16 -45.5t-19.5 -50.5t-22 -40.5t-22.5 -16.5q-7 0 -11.5 5t-4.5 11q0 2 0.5 4t0.5 4q4 46 20 92t37 90.5t44 87.5t41 84q1 1 1 2
q-12 -17 -29 -28.5t-43 -11.5q-11 0 -24.5 2.5t-25 8.5t-19.5 16.5t-8 27.5q0 13 5.5 29t14 32l17.5 31.5l16 27.5l7 16l2 -1l-7 -16l-16.5 -52t-14.5 -52q-5 -10 -5 -17q0 -19 21 -29t44 -10t40 14.5t31 33.5q0 35 12.5 64t28.5 55l5 10h3q-1 -20 -6.5 -38.5t-12 -36.5
t-11.5 -36t-5 -36q0 -20 8 -28.5t22 -8.5q10 0 20.5 4t18.5 10zM187 179l1 2q-3 -31 -14 -63q3 15 5.5 30.5t7.5 30.5zM145 36q-1 2 -1 4.5t-1 4.5q-2 -6 -4 -9q-17 -40 -39 -83.5t-41.5 -88.5t-33.5 -90.5t-16 -90.5q0 -7 -2 -7t-2 -2q0 -1 1 -1t1 -0.5t2 -0.5v5
q7 0 15.5 17t16.5 40.5l15.5 47t12.5 37.5l34 93l33 93l8 31h1zM130 252h3q0 -15 -4.5 -29.5t-12.5 -17.5l-2 -2l-2 2l-2.5 7.5t-3.5 6.5q5 6 11.5 12.5t10.5 13.5zM181 252h2q0 -9 -3 -26t-14 -21v-2l-3 2l-5 14q3 6 8 12l12 14z" />
    <glyph glyph-name="divide" unicode="&#xf7;" horiz-adv-x="231" 
d="M73 191l-50 -7v-3h7l42 -12l54 4l54 4l28 -1v4h-28q-27 2 -54 4.5t-53 6.5zM150 225q-3 4 -5 4q-4 0 -5.5 -6t-1.5 -11q0 -7 3 -7l3 2l2 -2l-3 -3q-1 -7 -12 -7t-15 5.5t-4 13.5q0 11 8.5 17.5t16.5 6.5q6 0 11 -4t5 -13q0 -5 -2 -11l-4 2q3 3 3 13zM129 152q-3 4 -5 4
q-4 0 -5.5 -5.5t-1.5 -10.5q0 -8 4 -8l2 2l3 -2l-3 -2q-3 -8 -14 -8q-9 0 -13.5 5.5t-4.5 13.5q0 11 9 18t17 7q6 0 10.5 -4.5t4.5 -13.5q0 -3 -0.5 -5.5t-1.5 -5.5l-4 2q3 3 3 13z" />
    <glyph glyph-name="greater" unicode="&#x3e;" horiz-adv-x="770" 
d="M742 235v-2q-2 1 -5.5 2t-3.5 3zM710 285q-1 0 -1.5 0.5t-1.5 0.5q-4 0 -6.5 -4.5t-2.5 -9.5t4 -9.5t9 -8.5l9 -7.5t4 -6.5q0 1 -2 1q-9 5 -18.5 13t-9.5 20q0 6 3 11.5t10 5.5t12 -5.5t8 -12.5t4.5 -15t1.5 -12v-8q-6 2 -9 4v8q0 11 -3 20t-11 15zM-111 70
q57 -54 127.5 -87.5t150.5 -33.5q49 0 101.5 16.5t96.5 47t72.5 72.5t28.5 93v11q6 0 7 -1t1 -7q0 -53 -29 -96.5t-73.5 -75t-98.5 -48.5t-104 -17q-81 0 -153 35t-129 89zM473 198h12.5t12.5 1q-7 17 -7 32q0 28 15.5 52.5t44.5 31.5v-1q9 3 17 3q19 0 32 -11t13 -30
q0 -20 -11 -35t-27.5 -25t-35.5 -15.5t-34 -8.5q12 -22 35.5 -35t49.5 -13h5h8q19 0 40 7.5t39 20t30 30t12 38.5q2 -1 4.5 -2t4.5 -2q0 -23 -13 -41t-32.5 -31t-42 -20t-40.5 -7q-32 0 -60 13t-43 42q-8 -1 -14.5 -1.5t-13.5 -1.5q0 2 -0.5 4.5t-0.5 4.5zM495 250
q-1 -5 -1 -8.5v-7.5q0 -20 7 -35q15 2 34 7t35.5 14t28 23t11.5 34q0 15 -10.5 27t-27.5 12q-29 0 -50.5 -18.5t-26.5 -47.5zM449 239q-11 14 -28 23t-34 9q-10 0 -19.5 -4t-9.5 -12q0 -14 11 -24.5t27.5 -17.5t35 -11t33.5 -4q1 -3 1 -9q-12 0 -31.5 3t-39 10t-33.5 19.5
t-14 31.5q0 17 14 21.5t25 4.5q17 0 32 -7t26.5 -18.5t18.5 -26t9 -29.5q-8 0 -12 15t-12 26z" />
    <glyph glyph-name="less" unicode="&#x3c;" horiz-adv-x="736" 
d="M528 366q33 0 62 -15.5t50.5 -40t33.5 -56t12 -63.5q0 -30 -11.5 -57t-30 -49.5t-43.5 -38.5t-52 -23l-26 -7q-6 -2 -10 -2q-13 0 -17 14q9 9 18 9q5 0 8.5 -1.5t7.5 -1.5q1 0 1.5 0.5t1.5 0.5q4 -1 12 -1q19 0 35 8v-1q2 2 3 2q41 23 67 63t26 89q0 30 -11.5 59t-31 52
t-47 37.5t-58.5 14.5q-32 0 -60.5 -13.5t-49.5 -35.5t-33.5 -51.5t-12.5 -60.5q0 -53 33 -93q10 3 20 3q8 0 18 -3t19 -8.5t15 -13.5t6 -17q0 -5 -5 -7t-11 -2q-7 0 -15.5 3t-9.5 5v-1q-4 2 -7.5 5t-9.5 9v-1q-11 8 -19 19q-20 -6 -38 -18.5t-34.5 -27t-32 -30.5l-28.5 -29
l-38.5 -39t-34.5 -29t-36 -18.5t-44 -6.5q-20 0 -38 8.5t-31.5 22.5t-22 32.5t-9.5 38.5q5 0 8 -3q1 -18 8.5 -34t20 -28.5t28 -20t33.5 -7.5q27 0 50 10t40 22.5t27.5 24t12.5 13.5h-1l10.5 10l10.5 10l5 5q30 30 62 58t66 42q-17 20 -24.5 44.5t-7.5 50.5q0 32 12.5 62.5
t34 54.5t51 38.5t62.5 14.5zM445 98q-5 1 -8.5 1.5t-7.5 0.5q-10 0 -19 -3q10 -10 27 -23.5t31 -13.5q7 0 10 3q0 8 -10.5 19t-23.5 16h1zM518 21q6 2 12.5 3t14.5 3h-15h-11q-10 0 -13 -2q0 -2 3.5 -3t8.5 -1zM546 28l-1 -1q8 1 18 3t12 4l-2 3l-11.5 -4.5t-14.5 -4.5h-1z
M-100 65q7 -7 20.5 -17t30 -20t35 -18t35.5 -11v-4q-34 5 -67.5 24.5t-58.5 42.5l3 3h2zM74 -2q-13 -4 -29 -4h-9t-9 1v-2q-3 3 -8 3q0 16 5 34v-1q4 17 12 38t19 39.5t25 31t31 12.5q22 0 35 -19t13 -38q0 -15 -7.5 -30.5t-19.5 -28.5t-27 -22.5t-31 -13.5zM32 27
q-3 -7 -4 -14t-1 -14q3 -1 6.5 -1h6.5q15 0 34.5 6.5t37 19t29.5 30t12 39.5q0 17 -10.5 33.5t-30.5 16.5q-14 0 -27 -11.5t-23.5 -29t-18.5 -37.5t-11 -37v-1z" />
    <glyph glyph-name="zero" unicode="0" horiz-adv-x="320" 
d="M295 290q1 -36 -5 -71t-17 -70q-6 -19 -16.5 -45t-26 -49t-36.5 -39.5t-47 -16.5q-32 0 -54.5 21.5t-37 53t-21.5 68t-7 66.5q0 40 11 81t32.5 73t52 52.5t69.5 20.5q11 0 21 -1t20 -7l-2 -2q-8 5 -18.5 6.5t-20.5 1.5q-16 -2 -32.5 -4.5t-29.5 -11.5q-23 -16 -39.5 -41
t-27.5 -54t-16 -60t-5 -59q0 -27 5.5 -60.5t18 -63.5t33 -50t49.5 -20q33 0 60 29t45.5 72.5t28.5 92.5t10 90q0 26 -4.5 52t-15 46.5t-28 34t-44.5 15.5v2q29 -2 46.5 -15t27.5 -31.5t14.5 -40.5t6.5 -43v-23z" />
    <glyph glyph-name="oe" unicode="&#x153;" horiz-adv-x="371" 
d="M151 54q-19 -28 -43.5 -46t-53.5 -18q-18 0 -30.5 7t-20.5 18t-11.5 24t-3.5 26q0 22 8.5 43.5t23 39t34 28t41.5 10.5q24 0 38 -12.5t24 -32.5l-3 -1q-11 22 -23 28.5t-27 6.5q-17 0 -35 -10.5t-32.5 -27t-23.5 -37t-9 -40.5q0 -24 14 -42t40 -18q32 0 55 20t40 45
q-14 -3 -28 -3q-35 0 -55.5 17.5t-26.5 44.5l-3 9l3 1l3 -8q14 -25 41 -37.5t52 -12.5q8 0 14 1t7.5 20.5t-2.5 35.5l3 1l-3 -61q-4 -13 -7 -19zM309 149q-8 -23 -22.5 -38t-32.5 -24t-37.5 -14t-37.5 -9l-19 -4q2 -25 18.5 -40t47.5 -15q41 0 78 17t69 40l2 -2
q-32 -24 -72.5 -42.5t-81.5 -18.5q-38 0 -55 20.5t-17 49.5q0 22 9.5 43.5t25.5 38.5t37.5 27.5t46.5 10.5q15 0 28 -9.5t13 -27.5v-3zM178 67q17 5 36.5 13.5t36 19.5t27 25t10.5 31q0 8 -7 11t-18 3q-20 0 -38.5 -9t-33 -24t-23 -34t-8.5 -39z" />
    <glyph glyph-name="quoteright" unicode="&#x2019;" horiz-adv-x="215" 
d="M154 371l3 -1l-2 -5q-1 -10 -1.5 -19t-2.5 -19q-12 -20 -26 -39.5t-32 -34.5q-4 -5 -8.5 -8.5t-9.5 -8.5l-2 3l9.5 7.5t8.5 8.5q14 18 23.5 38.5t16.5 42.5l10.5 14.5t10.5 15.5z" />
    <glyph glyph-name="idieresis" unicode="&#xef;" horiz-adv-x="107" 
d="M30 0q-18 0 -29.5 11t-11.5 35q0 37 14 67.5t33 59.5l5 10l2 -1l-4 -10q-5 -17 -9 -33l-8 -32q-7 -17 -13.5 -35t-6.5 -35t12.5 -24t25.5 -7q17 0 35.5 10.5t31.5 27.5h4q-15 -20 -33.5 -31.5t-47.5 -12.5zM39 252h3q0 -15 -4.5 -29.5t-12.5 -17.5l-2 -2l-2 2l-2.5 7.5
t-3.5 6.5q5 6 11.5 12.5t10.5 13.5zM90 252h2q0 -9 -3 -26t-14 -21v-2l-3 2l-5 14q3 6 8 12l12 14z" />
    </font>
</defs>
</svg>
