<?xml version="1.0" standalone="no"?>
<!DOCTYPE svg PUBLIC "-//W3C//DTD SVG 1.1//EN" "http://www.w3.org/Graphics/SVG/1.1/DTD/svg11.dtd" >
<svg>
<metadata>
Created by FontForge 20090622 at Mon Nov 28 23:10:58 2016
 By deploy user
</metadata>
<defs>
<font id="EstrelaFulguria.1748." horiz-adv-x="238" >
  <font-face 
    font-family="Estrela Fulguria .1748."
    font-weight="400"
    font-stretch="normal"
    units-per-em="1000"
    panose-1="2 0 0 0 0 0 0 0 0 0"
    ascent="800"
    descent="-200"
    x-height="195"
    cap-height="994"
    bbox="-904.632 -1174 2978 1092.44"
    underline-thickness="50"
    underline-position="-50"
    unicode-range="U+0020-U+007A"
  />
<missing-glyph horiz-adv-x="500" 
 />
    <glyph glyph-name=".notdef" horiz-adv-x="500" 
 />
    <glyph glyph-name="B" unicode="B" horiz-adv-x="1013" 
d="M1005 492q42 -30 60 -76q19 -49 16 -96q-1 -25 -7 -48.5t-16 -46.5q-20 -45 -51.5 -81.5t-69.5 -65.5q-37 -26 -81 -47q-22 -9 -44 -16t-44 -12q-46 -10 -93 -11.5t-93 9.5q-21 4 -44 15q-5 2 -9.5 4.5t-9.5 7.5q-3 -1 -5.5 -2t-5.5 -2q-23 -8 -46 -12t-46 -6
q-12 -2 -23.5 -3l-22.5 -2q-12 -2 -23.5 -2h-23.5q-55 0 -109 12l-45.5 -54.5l-44.5 -55.5h-1h-1v1l44.5 55l45.5 54q-6 2 -12.5 3.5t-11.5 3.5q-33 -20 -73 -25q-23 -3 -45 -0.5t-43 8.5l-2 1q-11 6 -20 13.5t-17 18.5q-15 21 -15 49q0 11 2.5 22.5t6.5 21.5q-1 2 -2 2.5
t-2 1.5q-34 37 -52 84q-9 23 -15 46.5t-10 47.5q-8 48 -7 97t11 97q11 48 32.5 92t51.5 82q29 39 64 71.5t74 59.5q38 29 79 51.5t85 41.5q44 18 88 31.5t90 24.5q45 11 91 18.5t93 9.5q48 2 94.5 -1t92.5 -17q22 -5 42.5 -14.5t39.5 -20.5l25 31.5l25 31.5q2 2 5 0
q3 -3 0 -6q-11 -16 -23 -31.5t-23 -31.5q19 -13 35.5 -29.5t30.5 -36.5t23 -43.5t14 -47.5q6 -24 8.5 -49t-1.5 -51q-2 -25 -11 -48.5t-24 -43.5q-25 -34 -61 -59q33 -8 60 -26zM145 50q11 -5 23.5 -8.5t23.5 -7.5q36 24 65 57.5t61 65.5l41 47l41 49l21.5 28l21.5 29
q3 3 6 7t5 7q-3 0 -6 -0.5t-7 -0.5q-34 -5 -75 -14.5t-82.5 -22t-80.5 -28.5t-69 -32q-37 -19 -68 -45.5t-53 -55.5q30 -24 63.5 -43t68.5 -32zM501 377l21 27h-4l-9.5 -13.5l-9.5 -13.5h2zM602 513q2 0 3 0.5t3 0.5l98.5 128l97.5 129l-101 -128.5zM542 442q-10 -4 -18 -8
l-16 -8q1 -1 2 -1h1q4 -4 15 -4q5 5 8.5 10.5t7.5 10.5zM536 421q2 4 6 8q4 5 7 9.5t8 9.5q-1 0 -7 -2q-5 -6 -9 -12.5t-9 -12.5h4zM549 422q7 2 13 2.5t12 1.5q23 3 45 7.5t45 8.5l45.5 9.5t44.5 10.5q14 4 28.5 7.5t28.5 8.5q-46 -2 -100.5 -5t-102.5 -12l-18 -3
q-4 -1 -8 -2.5t-8 -2.5l-12 -15.5l-12 -15.5h-1zM1020 673q4 34 -2 73q-17 42 -42.5 71.5t-59.5 51.5q-1 0 -3 2q-7 5 -16 9l-137 -182l-138 -182q5 1 8 1.5t7 0.5q23 4 46.5 5.5t46.5 3.5q23 1 46.5 1.5t46.5 0.5t46.5 0.5t46.5 -4.5h2q4 2 5 3q19 13 36 28t30 33
q26 39 31 84zM-57 222q9 -22 20 -41t27 -36q5 7 9.5 14t9.5 14q29 39 67 68t81 49t86.5 35t89.5 28q23 6 45.5 10.5l45.5 9.5q17 2 34.5 3.5t34.5 1.5l21 27q-3 0 -4 1q-3 0 -4 1q-1 0 -2 1h-1l-11.5 8t-9.5 11q-2 2 -4 6.5t0 9.5q0 8 5 16q5 6 10 10t10 7q20 13 43 21
q12 5 24 8.5t24 6.5l145.5 187l147.5 187q-64 31 -142 38t-157.5 -2t-153.5 -29.5t-128 -42.5q-56 -22 -112 -54.5t-105.5 -74.5t-90 -93t-64.5 -111q-8 -16 -13 -39q-15 -81 -1 -166q6 -47 23 -90zM114 6q29 3 57 16q-91 27 -168 87l-6 -10.5l-6 -11.5q-2 -3 -2.5 -6.5
t-2.5 -6.5q2 -19 12 -32q12 -16 33 -29q20 -5 41 -7.5t42 0.5zM207 31q7 -2 17 -4q2 3 8 9l26 34l27 34l-10 -10t-10 -11l-28 -27.5t-30 -24.5zM503 40q4 2 8 2q-1 2 -2 5t1 5q0 6 2.5 11.5t6.5 10.5t8.5 8.5t8.5 8.5q21 13 42 19q1 0 2 -1l-1 -1q-11 -3 -21.5 -8t-19.5 -13
q-11 -7 -16 -15q-9 -9 -9 -21q-1 -2 1 -8q18 7 36 15.5t36 19.5q18 13 35 28.5t31 33.5t25.5 38t17.5 43q2 6 2.5 12.5t1.5 13.5q-14 29 -49 48q-34 17 -73.5 23t-74.5 7h-11h-18q-8 -11 -16.5 -20.5t-16.5 -20.5q-56 -71 -115 -136q-5 -5 -9 -9.5t-8 -9.5l-37 -48l-37 -47
l-7 -7q46 -10 96 -10q23 -1 45.5 1l45.5 4l45 7.5t44 10.5zM1070 340q-9 34 -26 58.5t-39.5 40.5t-50 24.5t-56.5 11.5l-13.5 2t-14.5 1q-27 -12 -55 -20.5t-56 -15.5q-23 -5 -45.5 -9t-45.5 -9l-45.5 -9.5t-45.5 -7.5l-21 -2t-21 -1l-21 -27h3q23 -2 46.5 -5t46.5 -10
l22.5 -8t22.5 -9t21 -12.5t18 -18.5q15 -18 20 -47q3 -25 -5 -51q-7 -24 -18.5 -45t-26.5 -41q-31 -39 -71 -66q-16 -11 -33.5 -19t-35.5 -15q3 -4 7 -6.5t8 -4.5q11 -5 22 -8t22 -5q45 -10 91 -8t91 13q23 5 45 12t43 17q43 18 79 47q36 28 66 63.5t50 78.5q19 46 22 91v20
z" />
    <glyph glyph-name="C" unicode="C" horiz-adv-x="759" 
d="M879 430q32 24 61.5 51t54.5 60q48 64 62 145t-9 157q-14 41 -38 69q-4 6 -9.5 10.5t-10.5 9.5q1 -2 0 -3q-3 -5 -7 -3q-30 17 -67.5 26.5t-82.5 9.5q-38 0 -76.5 -6t-74 -16t-66.5 -21.5t-54 -23.5q-80 -39 -163 -97.5t-152 -132.5t-115 -162.5t-52 -187.5
q-8 -132 61 -213q21 -20 47 -34.5t53 -25.5q8 -2 15.5 -4.5t15.5 -5.5l57.5 32.5l58.5 34.5l70 38.5t73 35.5q9 5 18 9l18 8q18 7 40 12q21 4 41 6t43 0q11 -1 21.5 -3t21.5 -9q10 -7 15 -21q2 -6 1.5 -13t-1.5 -12q-7 -23 -19.5 -39t-28.5 -31q-32 -27 -69.5 -44.5
t-76.5 -28.5q-20 -6 -40 -10t-40 -7q-20 -2 -42 0q-10 0 -20 1t-19 3l-40.5 4t-41.5 6q-1 -1 -1.5 -1t-1.5 -1l-7 -4q-42 -23 -82.5 -42.5t-83 -34.5t-88 -24.5t-97.5 -13.5q-10 -1 -20.5 -1h-21.5q-59 0 -107.5 13t-84.5 39q-2 0 -3 0.5t-2 0.5q-18 11 -34.5 23.5
t-29.5 28.5q-27 36 -36 76q-5 20 -6 41t1 41t7 40t12 40q7 19 16 38t21 36q23 34 52 63t64 49q18 11 37 18t41 9q42 6 81 -19q35 -22 53 -60t18 -78q1 -20 -3.5 -40.5t-15.5 -37.5q-6 -8 -14.5 -14.5t-17.5 -11.5q-17 -9 -40 -7q-1 0 -1 1l1 1q10 0 20 1t19 6q19 10 29 26
q11 17 15 36t3 39q-1 39 -20 75q-5 11 -12.5 20l-15.5 18q-1 -1 -3 -1t-3 1q-18 10 -41 12q-5 1 -16 1q-35 0 -70.5 -18t-66 -46t-54 -60.5t-35.5 -62.5q-28 -74 -24.5 -133.5t38.5 -103.5q22 -22 51.5 -36t62.5 -22q39 -8 78 -9t78 4q80 8 153 36q76 23 140 61
q-16 7 -30 15.5l-28 17.5q-16 8 -29.5 18.5t-24.5 21.5q-8 8 -15 16t-15 16q-25 34 -38.5 73.5t-16.5 80.5q-4 40 0.5 81.5t15.5 79.5q23 79 67 147t100 127q57 59 121.5 106.5t135.5 86.5q70 42 147.5 64.5t158.5 27.5q42 2 82 -5t77 -24q20 -10 35.5 -22.5t28.5 -26.5
q27 -33 39 -73q11 -39 13 -79.5t-5.5 -80t-23.5 -76.5t-41 -69q-24 -33 -54 -60.5t-63 -50.5t-69.5 -40t-76.5 -24l-1 1l1 1q40 7 76 24.5t68 39.5zM240 701l-21.5 -24.5t-20.5 -24.5q36 43 77 81t85.5 71.5t90 61.5t89.5 50l34 15t48 19t59 18.5t67 13.5q-54 -7 -109 -23
l-38.5 -14t-36.5 -15q-38 -17 -72 -36q-141 -79 -252 -193zM757 983q-2 0 -3.5 -0.5t-3.5 -0.5q2 0 3.5 0.5t3.5 0.5zM-214 401q-5 -3 -9.5 -6t-9.5 -6q24 17 50.5 27.5t54.5 11.5h-14q-20 -3 -37.5 -10t-34.5 -17zM731 154q2 10 0 16q-8 2 -16.5 3.5t-19.5 1.5
q-28 0 -56 -6.5t-45 -13.5q-64 -28 -118 -57.5l-104 -58.5q-10 -5 -19.5 -11l-17.5 -11q14 -2 29.5 -3.5t30.5 -3.5q9 -1 19 -1.5t20 -0.5q11 -1 20.5 -0.5t19.5 1.5q20 2 38.5 5.5t38.5 9.5q38 11 72.5 28t63.5 42q8 7 14.5 14.5t11.5 15.5q7 7 11 14.5t7 15.5zM892 978
q20 -5 39.5 -11.5t36.5 -17.5q-5 2 -10 5.5t-10 5.5q-14 7 -27.5 11t-28.5 7z" />
    <glyph glyph-name="D" unicode="D" horiz-adv-x="1213" 
d="M1317 813q20 -39 30.5 -80.5t15.5 -85.5q9 -86 -7.5 -171.5t-54.5 -163.5q-18 -38 -41.5 -74t-50.5 -69q-14 -17 -29 -31.5t-32 -28.5t-35 -26l-36 -23q-38 -21 -78 -36.5t-81 -26.5q-42 -11 -84 -17t-85 -7t-85.5 5t-84.5 20q-41 14 -76 39t-61 62q-13 18 -22.5 36
l-20.5 37q-9 19 -19 38l-20 37h-2l-15.5 -21t-15.5 -19l-53 -66l-55 -65q-14 -17 -28.5 -32l-29.5 -30q-4 -4 -8.5 -7t-8.5 -7q-5 -3 -9 -6t-9 -5l-19.5 -9.5l-19.5 -9.5q-23 -7 -43 -8q-22 -1 -44 8q-5 5 -9 8t-8 7q-5 4 -8 8q-4 6 -7 9q-11 19 -18 40q-14 43 -10 85
q0 6 1 11t2 11q2 5 3.5 10t3.5 10l6 17.5l6 16.5q19 49 48.5 85t66.5 58t80.5 29t90.5 -3q35 -8 63.5 -37.5t52.5 -68.5h-1q1 -1 1 -2l81 102.5l80 104.5q-17 24 -29 50t-18 55q-13 57 -4.5 114t34.5 108q20 45 57 87t95.5 75t141 53t194.5 20q75 0 133 -26.5t101 -69.5
q28 -26 49.5 -58t37.5 -66zM521 499q-8 11 -15 25.5l-14 30.5l16.5 -40t21.5 -38l189 248.5l187 251.5q-96 -11 -164 -39.5t-114.5 -67t-73.5 -83t-39.5 -88.5t-13.5 -83.5t5 -67.5q3 -14 6.5 -26t8.5 -23zM321 211q8 11 16.5 21l17.5 21l-15.5 22t-16.5 22q-11 9 -23.5 16
t-26.5 10q-51 11 -98 1.5t-86 -37t-68.5 -71.5t-45.5 -103q-6 -19 -5.5 -46.5t9.5 -55.5l-10 16t-9 18q6 -20 17 -37q2 -2 3.5 -4t2.5 -4q2 -2 3 -4t3 -5q5 -3 8 -6t8 -5q17 -10 37.5 -8.5t40.5 9.5q21 6 38 16q5 2 9.5 5.5t8.5 5.5t7.5 5.5t8.5 7.5l29 29t29 31l54.5 64.5z
M1284 322q35 75 51 157t8 166q-5 42 -15.5 82t-28.5 77q-15 33 -35.5 62.5t-47.5 53.5q-38 30 -86.5 47t-106.5 17q-32 0 -59.5 -2t-53.5 -5l-187 -252.5l-189 -251.5l-1 -1l15.5 -19.5t17.5 -17.5q15 -14 32.5 -25.5t37.5 -19.5q37 -19 80 -21h1q0 -1 -1 -1q-43 0 -82 18
q-20 8 -38.5 19.5t-33.5 25.5q-20 16 -33 36l-80 -105.5l-81 -103.5q2 -4 2 -5q12 -18 21.5 -36.5l19.5 -36.5l21 -38t22 -36q23 -34 57.5 -57t72.5 -37q40 -14 81.5 -19t83.5 -4t82.5 7t82.5 17q82 23 154 63l35 22t34 25l28.5 28.5t28.5 30.5q53 64 90 140z" />
    <glyph glyph-name="E" unicode="E" horiz-adv-x="868" 
d="M1112 881q8 -28 3 -57t-21 -52q-16 -24 -39.5 -39t-49.5 -20q-13 -3 -26 -3.5t-26 -0.5t-26.5 1t-26.5 4q-51 11 -95 42q-22 15 -42 31.5l-40 33.5q-10 8 -19.5 17t-19.5 17l-8 4q-2 -1 -6 -5q-18 -16 -35 -34t-32 -37q8 -2 16 -3t16 -3q27 -7 50.5 -19.5t44.5 -29.5
t38.5 -38t27.5 -49q5 -14 7 -29t-2 -29q-6 -31 -30 -50q-11 -10 -23 -17t-24 -12q-13 -5 -26.5 -7.5t-27.5 -2.5q-28 1 -53.5 10.5t-47.5 26.5t-39 39.5t-23 50.5t-3.5 55.5t10.5 53.5q-54 -13 -103.5 -33.5t-81.5 -43.5q-43 -30 -80 -75t-63.5 -96.5t-41 -106t-12.5 -103.5
q2 -37 6 -71t19 -68q9 -12 19.5 -24t22.5 -23q19 -20 41.5 -33.5t47.5 -24.5q18 7 37 17q94 44 184.5 92t185.5 93l22 11q6 2 12.5 4.5t12.5 5.5q12 4 25 6.5t26 5.5q13 2 26 2.5t26 -0.5q8 -1 14 -2t13 -5q7 -2 13 -6t11 -12q3 -8 3.5 -16t-1.5 -15q-4 -12 -11 -26
q-7 -13 -14 -23.5t-16 -21.5q-18 -20 -38.5 -36.5t-42.5 -30.5q-45 -29 -94 -46.5t-100 -28.5t-102.5 -14t-102.5 5q-50 7 -96 27q-35 -16 -70.5 -29.5t-72.5 -24.5q-50 -16 -100.5 -26t-101.5 -12q-26 -1 -51.5 1t-51.5 8q-25 5 -49.5 14t-46.5 24q-46 28 -71 77
q-12 25 -17 52t-4 53q1 28 7 54t15 51q8 26 21.5 49t30.5 44q16 20 35 38.5t40 32.5q21 16 45 27.5t49 16.5q26 5 52.5 1t47.5 -20q22 -15 35 -39t18 -50q5 -27 2 -54.5t-14 -50.5q-6 -13 -14.5 -23.5t-19.5 -17.5q-11 -8 -23.5 -11t-24.5 -2h-1v1l1 1q26 -2 47 13
q20 14 33 40q11 23 14 49.5t-2 52.5q-4 15 -9 28.5t-13 26.5q-27 21 -71 21q-39 0 -77 -19t-71 -47.5t-58.5 -63.5t-37.5 -66q-26 -72 -24.5 -128.5t24.5 -99.5q18 -18 38 -31q22 -14 46 -23t48 -14q26 -5 51 -6.5t51 -0.5q51 3 100.5 13t98.5 26q32 10 63 21.5t62 24.5
l-19 13.5t-17 14.5l-18 14t-18 15q-19 19 -36 40t-29 47q-12 24 -18 51t-8 54q-3 27 -3 54q0 14 1.5 27.5t3.5 27.5q4 27 11.5 52.5t18.5 51.5q41 100 118 177q37 37 86 63q43 23 96 40q24 8 49.5 14t51.5 8q3 1 8 1q7 13 14.5 24.5t15.5 22.5q14 17 29 32l31 30
q-41 21 -81 32q-25 7 -49.5 10.5t-50.5 2.5q-27 0 -50 -8q-6 -2 -12 -3.5t-11 -4.5q-13 -6 -22 -13q-10 -8 -19 -18t-16 -21q-3 -5 -5.5 -11t-1.5 -13q0 -12 16 -16v-2h-1q-4 1 -12 5q-5 5 -5 13q-1 8 1.5 14t5.5 12q12 21 35 40l10 8t11 6q6 3 12.5 5.5l11.5 4.5
q14 3 26.5 5t25.5 3q26 2 51 -1.5t51 -9.5q23 -6 44.5 -14.5t41.5 -19.5q3 2 9 8q5 4 10 7.5t10 8.5l10.5 8t11.5 7q12 7 24 12.5t25 10.5q24 10 49.5 15.5l50.5 10.5q26 3 52 4.5t52 -0.5q14 -1 27 -2.5t25 -4.5q7 -2 13.5 -3t12.5 -3t12.5 -5l13.5 -6q24 -11 42.5 -33
t26.5 -50zM-277 345q-18 -23 -33 -48q16 29 41.5 58t55.5 52t63.5 37.5t66.5 14.5q35 0 59 -13t40 -35q-13 17 -30 31q-20 14 -46 18t-51 -1t-48 -16t-44 -26q-40 -28 -74 -72zM329 36q-6 -4 -13 -7t-15 -6q39 -16 78 -20q50 -8 100 -5.5t101 13.5q50 10 97.5 27.5
t90.5 44.5q45 26 79 65q18 20 28 41q7 11 10 24q4 12 -1 20q-4 8 -16 13q-6 3 -11.5 4t-12.5 2q-12 1 -24.5 0.5t-24.5 -2.5q-13 -2 -25 -5l-24 -6l-23.5 -10t-23.5 -11q-94 -43 -184.5 -91t-185.5 -91zM781 587q4 21 -4 46q-8 23 -22 41t-32 33q-33 21 -69 28
q-18 4 -38.5 4.5t-41.5 -1.5q-17 -29 -25.5 -61t-6.5 -66q0 -15 6 -28q6 -10 14.5 -18t18.5 -16q41 -32 90 -33q23 0 45 8q11 5 22 11t19 14q19 16 24 38zM1081 781q14 20 17.5 45.5t-2.5 50.5q-8 26 -24 43q-17 9 -36 15q-37 9 -83 10t-93 -6.5t-90 -23.5t-74 -40
q-4 -2 -6.5 -4t-4.5 -4q1 -1 2 -1.5t2 -1.5q11 -8 20.5 -17t20.5 -17l40 -33t41 -31q22 -14 44.5 -24t47.5 -15q23 -4 50 -4q12 0 25 1t24 4q24 5 44.5 18.5t34.5 34.5z" />
    <glyph glyph-name="F" unicode="F" horiz-adv-x="864" 
d="M1235 419q-8 -31 -26.5 -57t-42.5 -44q-26 -20 -54 -31t-57 -18t-59 -10t-60 -3q-12 -1 -24.5 -1h-23.5q-4 -5 -6.5 -8.5l-5.5 -7.5q-38 -50 -81.5 -95t-94.5 -81q-25 -17 -52 -32t-55 -27q-56 -20 -118 -31q-61 -12 -119 -11l-30.5 2t-30.5 6q-24 5 -42 16
q-29 -3 -56 -3q-60 -3 -120 3q-29 4 -58.5 10t-58.5 17t-55 28t-47 41t-33 55t-15 63q-2 33 2.5 65t12.5 63t19 61t27 57q31 57 75.5 101t97.5 76q29 17 59.5 31t61.5 25q-71 -24 -133.5 -61.5t-110.5 -91.5q51 76 124 124.5t159.5 77t181.5 40.5t189.5 15.5t184 1.5
t164.5 -2h190q17 38 37.5 73t46.5 67q20 24 43 45.5t49 38.5t55 29t59 20q30 7 60 9.5t61 1.5q31 -2 60.5 -9t57.5 -21l28 -16.5t26 -19.5q11 -11 20 -26t13 -33t1.5 -35.5t-10.5 -32.5q-7 -16 -17 -29t-21 -24q-22 -23 -47.5 -41.5t-55.5 -29.5q-29 -11 -59.5 -15.5
t-60.5 -5.5q-29 -1 -59 -1h-59l-120 1h-108l-7.5 -19l-7.5 -20q-38 -121 -93 -236q-19 -39 -40.5 -77t-44.5 -74q20 -2 39 -2t38 1q42 0 86.5 5.5t86.5 20.5q44 34 63 91q0 1 1 1l1 -1h-1zM1213 909q-23 -29 -41.5 -60.5t-34.5 -65.5h302q48 0 94.5 -1t88.5 11q14 8 26 19
l23 22q10 11 19 23t14 26q13 27 8 54q-3 14 -10.5 26.5t-18.5 22.5q-10 10 -22 17.5t-25 14.5q-26 13 -54.5 19t-57.5 8q-61 3 -116 -10q-28 -8 -55 -19t-52 -28q-25 -16 -46.5 -36t-41.5 -43zM197 -7q11 0 22 0.5t22 1.5q-1 1 -1.5 2t-1.5 2q-12 14 -14 33q-1 9 0.5 17.5
t3.5 16.5q6 16 14.5 29.5t18.5 27.5q21 24 42 45l22.5 22t24.5 20q11 8 23 15.5t25 14.5q39 31 83 48t90.5 24t94.5 6.5t97 -3.5q-10 26 -27.5 46.5t-38.5 37.5q-47 35 -106 54q-29 9 -58 13.5t-59 6.5q-30 1 -59.5 0t-58.5 -6q-60 -8 -117 -24.5t-110 -47.5
q-26 -15 -49 -34.5t-42 -44.5t-31.5 -54t-15.5 -61q0 -1 -1 -1t-1 1q3 32 15.5 62t30.5 55q20 25 43 45t49 36q53 31 111 48t118 25q29 4 58.5 5.5t59.5 -0.5q30 -1 60 -5t59 -13q28 -10 55.5 -23t51.5 -33q23 -17 41.5 -39t28.5 -49h2q31 -3 62 -5.5t62 -4.5q26 38 49 78
t43 82q28 56 50.5 114t41.5 119q3 8 5.5 15.5t5.5 15.5h-107h-120l-118 1q-120 2 -238 -3.5t-236 -30.5q-58 -14 -113.5 -33.5t-107.5 -50.5t-96 -74t-74 -98q-30 -54 -45 -116q-8 -29 -12.5 -60.5t-2.5 -62.5q3 -32 14 -60.5t31 -50.5q20 -23 45 -39.5t53 -26.5
q28 -11 57 -17t58 -11q58 -6 118 -3zM248 10q7 -8 18 -12q42 3 83.5 10t83.5 16q29 7 57.5 15t56.5 18q29 10 56.5 21.5t53.5 26.5q26 16 49 35t41 45q20 26 24 55q2 5 2 10v10q-48 5 -96.5 8t-97.5 1q-59 -2 -116 -18q-29 -8 -55.5 -21t-49.5 -32q-13 -8 -24 -18.5
l-22 -21.5t-20.5 -22.5l-19.5 -22.5q-9 -13 -16.5 -25.5t-12.5 -26.5q-6 -15 -5 -28t10 -23zM869 264q-8 1 -15.5 1t-15.5 1q8 -1 15 -1t15 -1h1zM860 252q1 3 2 3q-11 1 -22.5 1t-22.5 1q-10 1 -19 1.5t-18 1.5q0 -6 -0.5 -11t-1.5 -10q-7 -33 -26 -59q-18 -26 -42 -46
t-50 -36t-54 -27.5t-56 -21.5q-29 -10 -58 -18l-58 -16q-38 -8 -75 -14.5t-75 -10.5q6 -3 14 -5q14 -3 29 -4t29 -1q56 -1 117 11q29 5 57.5 12.5t55.5 18.5q28 11 53.5 25.5t50.5 32.5q49 35 91 79t79 93zM1054 275q48 9 88 33q-48 -26 -104 -35t-107 -9h-37h42
q29 0 59 2.5t59 8.5z" />
    <glyph glyph-name="G" unicode="G" horiz-adv-x="430" 
d="M1097 808q4 -8 4 -7q12 -29 16 -59.5t-3 -61.5q-6 -31 -21 -57.5t-35 -50.5q-20 -23 -43 -42.5t-48 -37.5q-26 -17 -52 -32t-52 -27l-55.5 -25t-56.5 -22l-58.5 -16t-58.5 -14q-29 -4 -59.5 -6t-61.5 1q-30 2 -59 7.5t-58 16.5q-15 5 -28 12.5t-25 15.5q-26 17 -43 43
q-8 12 -14 26.5t-9 28.5q-1 16 0 31t6 31q8 29 24.5 54.5t40.5 43.5q24 20 53.5 30t59.5 6l2 -2h-2q-29 4 -58 -6t-53 -30q-23 -18 -39.5 -43.5t-23.5 -54.5q-9 -29 -6 -58q6 -32 22 -56q16 -25 41.5 -41t51.5 -27q29 -11 58.5 -16.5t58.5 -7.5q63 -3 119 7q31 5 59.5 13.5
t57.5 18.5t56.5 20.5t53.5 23.5q28 14 53.5 28.5t50.5 33.5q49 32 89 78q20 22 34.5 48.5t19.5 55.5q2 8 3 17.5t1 17.5q-3 15 -8 29.5t-12 29.5q-24 48 -68 79t-99.5 48.5t-118 22.5t-123 1t-115.5 -16t-95 -29q-90 -35 -178 -93t-163 -131.5t-130.5 -159.5t-80.5 -179
q-2 -5 -2 -10.5t-2 -9.5q-2 -16 -3.5 -31t-0.5 -29q0 -14 3 -28.5t9 -26.5q10 -27 29 -49.5t45 -36.5q25 -14 53.5 -21t57.5 -9q14 -1 28 -0.5t26 2.5q41 31 79.5 56.5t73.5 44.5l21 10t18 10q3 0 3 2l59.5 68.5t69.5 59.5q2 3 6 2t7 -4q2 -5 0 -9l-34 -47t-35 -44
q17 6 35 9q11 3 23.5 4.5t24.5 -0.5q6 -2 12 -3.5t11 -4.5q12 -9 16 -18v-2h-1q-6 11 -16.5 17.5t-21.5 8.5q-12 2 -23.5 -0.5l-24.5 -5.5q-10 -1 -20.5 -4.5t-20.5 -8.5q-28 -31 -63 -61q-2 -3 -3.5 -4.5t-3.5 -4.5q-4 -4 -8 -4q-2 -3 -5 -4t-6 -3q-39 -62 -84 -117
q-4 -6 -8 -10t-6 -9q-5 -5 -9 -9.5t-8 -9.5l-14 -19.5l-14 -19.5l-29.5 -39l-28.5 -39l-55.5 -78t-53.5 -80l-108.5 -159.5l-107.5 -161.5l-52 -82l-26 -41q-6 -7 -13 -20l-15 -21l-14 -19.5l-15 -19.5q-9 -8 -18 -17t-22 -16q-12 -7 -27 -7q-9 1 -16 4.5t-12 8.5
q-18 20 -26 46q-5 13 -6.5 25t-3.5 25v48q0 26 4 50.5t11 48.5q13 48 36 91t52 84q27 39 57 78l31 38t32 36l68.5 68.5l71.5 67.5l51.5 45l52.5 46l28 23l28 25q15 13 31 25.5l32 24.5l4.5 4.5t4.5 3.5h-32q-30 2 -60 9t-57 24q-28 16 -49 40t-32 53q-6 14 -8.5 30t-2.5 31
q-2 16 -0.5 31t3.5 31q9 61 32 117q10 23 21 45.5l23 45.5q39 70 94 134.5t119.5 119t136.5 98t145 72.5q40 16 95 28t115.5 16t123 -1t118 -22t99.5 -48t68 -79q1 -5 3 -9.5t4 -9.5zM235 26q15 17 28 35.5t27 36.5q-25 -15 -57 -28q-26 -17 -52 -36t-52 -40
q-65 -51 -130.5 -109.5t-124.5 -117t-107.5 -113.5t-78.5 -99q-23 -34 -40.5 -63.5t-31 -60t-22 -64.5t-13.5 -77q0 -2 1 -16t1.5 -32.5t0.5 -37t-2 -28.5q3 -4 5 -7t5 -6q13 -13 33 -1q8 4 16.5 11.5t17.5 17.5q7 8 13.5 17.5t14.5 19.5l13 21q4 4 7 9t6 9l27 41l52 82
l107 161.5l107 160.5l55.5 80l56.5 79q27 39 57 78l15 19.5l15 19.5q5 5 7.5 9.5t7.5 9.5q4 5 8 9t7 10zM439 258q-13 -13 -24 -25.5t-22 -26.5h2l22 25.5t22 26.5z" />
    <glyph glyph-name="H" unicode="H" horiz-adv-x="557" 
d="M1187 655q15 -42 12 -87v-3q-3 -37 -14 -69q-7 -18 -18 -37q-1 -3 -2 -5t-3 -4l-7 -7q-3 -4 -5.5 -8t-6.5 -8q-12 -15 -26.5 -28t-30.5 -25q-31 -23 -65 -40t-69 -31q-36 -12 -73 -21t-74 -16q-72 -14 -147 -21l-19 -2l-20 -2h-32q-33 -64 -59.5 -129t-46.5 -129
q-11 -33 -20.5 -71.5t-14.5 -80.5q-2 -2 -2 -3t-2 -2q-4 -51 -3.5 -102t7.5 -102q5 -38 13 -75.5t22 -72.5q14 -36 31.5 -68.5t42.5 -61.5t55.5 -49.5t65 -33t71 -17t72.5 -0.5q37 2 72.5 13t67.5 27q33 17 62.5 41t52.5 53q11 16 18.5 33t12.5 34q6 19 7.5 38.5t0.5 37.5
q-3 19 -8.5 37.5t-14.5 35.5q-16 33 -43 60q-28 26 -63.5 38.5t-72.5 11.5q-38 0 -73 -11t-69 -28h-1l1 1q32 19 68 30t74 11q38 3 74 -11q19 -5 35 -15t31 -22q14 -13 25 -29t21 -33q8 -18 14 -37t9 -39q2 -18 0.5 -38.5t-6.5 -38.5q-5 -20 -13.5 -37.5t-19.5 -33.5
q-23 -32 -53.5 -56t-63.5 -41q-33 -19 -69.5 -29.5t-73.5 -15.5q-39 -5 -76 0q-19 3 -37.5 7t-37.5 11q-35 12 -67 34t-58 51t-45 63t-33 71q-14 38 -23 76t-14 76q-7 52 -7.5 103.5t3.5 103.5q-1 2 -2 3.5t1 3.5q1 10 2 19t3 19q2 14 4 29.5t5 30.5l7.5 38.5t8.5 37.5
q5 20 11.5 37.5t11.5 36.5q13 38 26.5 73.5t29.5 71.5q3 6 5 12h-31h-170l-4 -16.5t-5 -16.5l-14.5 -37.5t-17.5 -35.5q-19 -35 -42.5 -65.5t-52.5 -54.5q-17 -14 -34 -23t-35 -16q-39 -11 -78 0q-9 4 -18 8.5t-17 9.5l-2 2l-4 1l-1 1q-1 0 -2 1q-2 3 -4 4t-3 3q-5 4 -8.5 8
t-6.5 8q-5 9 -9 19.5t-6 19.5q-3 21 0 42q6 42 29.5 76t58.5 54q35 18 73 24t76 4q29 2 58 2h58q2 5 4 11.5t3 12.5q20 75 38 150.5t47 147.5l4 10.5t3 10.5q-59 14 -113.5 44.5t-107 67.5l-104.5 76t-106 70q-90 54 -196.5 76t-216 13.5t-215 -47.5t-193.5 -106
q-17 -13 -31 -29.5t-25 -33.5q-5 -12 -7 -23l-4 -23q-5 -39 -1 -77t15 -74l14 -36t16 -34q10 -17 21 -32.5t23 -29.5q51 -55 119 -91q66 -35 138 -55.5t145 -25.5q37 -2 74 0.5t73 10.5q37 8 71.5 19.5t69.5 26.5q35 14 67 33t60 45q29 25 50 57t30 70q4 19 4.5 38t-4.5 36
q-5 19 -17.5 34.5t-26.5 27.5q-15 11 -31 20t-33 15q-17 7 -35.5 12.5l-35.5 10.5q-1 0 -1 2h1q19 -4 36.5 -9.5t34.5 -13.5q17 -7 34 -15t32 -20q33 -25 46 -62q5 -19 4.5 -39t-4.5 -39q-10 -38 -31.5 -70.5t-50.5 -58.5q-28 -26 -60 -44.5t-67 -35.5q-35 -14 -70.5 -25
t-71.5 -21q-37 -8 -74 -10.5t-74 0.5q-75 4 -147.5 24t-139.5 55q-33 19 -63.5 42t-56.5 52q-12 14 -23.5 29.5t-20.5 32.5q-10 17 -17.5 34.5t-14.5 36.5q-12 37 -16.5 76t0.5 79q5 39 22 74.5t45 63.5l14 13.5t15 11.5t15.5 10.5t15.5 10.5q34 23 66 37q35 17 69.5 30.5
t71.5 23.5q72 20 146.5 25.5t149.5 -2.5t147 -31t136 -63q66 -38 126.5 -83t124.5 -85q31 -20 63.5 -38t67.5 -29q12 -5 24.5 -9.5t24.5 -6.5q10 21 19 42t20 41q19 35 43.5 65t57.5 52q16 11 34 18.5t37 12.5q17 5 36 8.5t38 0.5q22 0 39 -10q20 -10 28 -30q7 -21 7 -43
q0 -4 -1 -9t-1 -10q-1 -5 -1.5 -10.5t-3.5 -9.5q-2 -4 -2.5 -7.5t-2.5 -8.5q-7 -26 -24.5 -47t-40 -37t-47 -27t-44.5 -18q-52 -19 -99 -22t-92 6q-2 -5 -4 -11.5t-5 -11.5q-28 -72 -46 -146.5l-37 -150.5q-2 -5 -3.5 -9.5t-3.5 -9.5q82 -3 165 0h42q29 63 63.5 121
t76.5 112q47 61 102.5 114.5t123.5 90.5q16 8 34 15.5l35 14.5q5 2 9.5 4t8.5 3h5l2 2h3q4 2 9 2q22 5 39 5q20 -2 40 -7.5t36 -17.5q17 -11 29.5 -28t20.5 -37zM494 719l-19 -39.5t-17 -40.5q20 -2 39 -3.5t39 -1.5q37 2 72.5 11.5t68.5 23.5l33.5 16.5t30.5 20.5t25 27
t16 32q4 17 5.5 35.5t-5.5 34.5q-10 19 -23 25q-14 9 -32 9q-19 2 -36.5 -1.5t-34.5 -9.5q-36 -8 -67 -30q-31 -20 -54 -48t-41 -61zM313 211q3 7 4.5 14.5t4.5 13.5h-111h-4h-4h-1h-9h-20q-17 0 -35 -3q-17 -3 -34 -8.5t-33 -14.5q-32 -17 -52.5 -48t-27.5 -67
q-2 -17 0.5 -35t12.5 -32q2 -3 5 -6.5t5 -6.5q5 -1 7 -5l4 -4h2l1 -1q8 -5 16 -9.5t16 -6.5q33 -11 67 0q35 11 64 35q28 23 50.5 52.5t41.5 62.5q9 17 17 34.5t13 34.5zM1166 503q5 16 8.5 31.5t3.5 32.5q-5 28 -19 50t-34 36q-23 15 -51.5 18t-60.5 -5q-66 -20 -124.5 -59
t-110.5 -92t-97 -118t-83 -135h21l18 2l17 2q38 4 75 9t72 12q38 7 73.5 16t70.5 21q34 12 67 29t62 39l28.5 23t25.5 26l6 8t5 6l5 7q2 3 3 5t3 4q7 16 16 32z" />
    <glyph glyph-name="I" unicode="I" horiz-adv-x="469" 
d="M375 266l-40 -72t-43 -70q-5 -9 -11.5 -18.5t-11.5 -18.5q48 3 91.5 8.5t76.5 16.5q5 2 8.5 -0.5t4.5 -7.5q4 -8 -7 -13q-38 -12 -86.5 -17.5t-102.5 -8.5q-27 -41 -59 -77q-14 -16 -28.5 -31t-31.5 -28q-35 -28 -69 -47q-37 -20 -76 -35.5t-81 -23.5q-20 -5 -41.5 -7
t-44.5 0q-21 1 -42 9q-11 5 -21 11.5t-18 17.5q-7 11 -9 21.5t-4 22.5q-3 23 5 45q6 21 18.5 39.5t29.5 32.5q8 8 16 14.5t18 11.5q17 13 39 19q20 8 41 12.5t41 7.5q42 5 83 6.5t83 0.5q32 0 63 -1t63 -1h20q7 12 14.5 23.5l15.5 23.5l43 69.5l41 71.5l80.5 144t83.5 143
q43 71 90.5 138.5t105.5 127.5q23 23 47.5 45t52.5 41q-143 -22 -285 -59.5t-270 -85.5q-26 -9 -65.5 -27t-84.5 -41t-93 -50.5t-91.5 -56.5t-79.5 -58t-57 -55q1 -5 6 -11q5 -5 12 -9t14 -6q14 -5 31 -7q15 -3 31 -4l32 -2l1 -1l-1 -2q-16 2 -32 2.5t-32 2.5
q-8 2 -15.5 3.5t-15.5 3.5q-17 6 -28 17q-7 6 -9 14.5t0 16.5q4 17 13 30l4 4q2 2 3 4.5t3 4.5q1 0 1 1q20 23 58 53l18 15q14 11 29 21l31 20q26 18 53.5 35t55.5 32l56.5 31t56.5 29l58 28t60 25q60 22 120 41.5t122 36.5q63 17 125 31t125 25q66 11 127 18q16 2 32 2.5
t32 2.5l64 4q32 2 64.5 3t64.5 -1q32 -3 63.5 -7.5t63.5 -14.5t60.5 -25.5t50.5 -40.5q3 -4 6.5 -8t6.5 -9q12 -16 20.5 -36.5t12.5 -45.5q-1 1 -1.5 2.5t-2.5 2.5q2 -7 2.5 -13t1.5 -12l-1 -1q-1 0 -1 1q-3 20 -9 38q-29 47 -80.5 71.5t-113 34t-127 8t-122.5 -6.5
q-80 -6 -163 -18q-59 -39 -107 -92q-57 -60 -103 -127.5t-88 -138.5l-81 -144.5zM182 -1q14 16 26.5 32l25.5 33q-13 -1 -25.5 -1t-26.5 -1q-53 -2 -105.5 -5.5t-100 -10.5t-87.5 -19.5t-67 -33.5q-28 -22 -43 -40.5t-21 -33t-5 -26t5 -20.5q1 -2 1.5 -3.5t2.5 -3.5
q8 -14 26 -20.5t38 -7.5q37 -3 79 5q80 17 151 56q18 10 35 20.5t33 23.5q17 12 31 26t27 30z" />
    <glyph glyph-name="J" unicode="J" horiz-adv-x="565" 
d="M1624 858q-28 45 -78 69t-110 33t-123.5 7.5t-117.5 -6.5q-51 -2 -104.5 -8.5t-108.5 -15.5q-1 -2 -2 -2t-2 -1q-32 -23 -58.5 -51t-49.5 -59t-42.5 -64t-37.5 -68l-34.5 -68l-35.5 -67q-36 -69 -78 -133.5l-84 -128.5q-40 -66 -85.5 -128t-96.5 -121t-105.5 -113
t-111.5 -105q-60 -53 -120.5 -99t-128.5 -86q-65 -42 -136 -75t-146 -51q-38 -10 -77 -15t-77 -3q-39 2 -78 12.5t-74 28.5q-35 17 -65.5 43t-54.5 59q-24 30 -38 67.5t-18 76.5q-1 20 -0.5 40t5.5 40q2 20 8.5 38.5t15.5 35.5q17 37 41.5 67t53.5 59q28 28 59 51t64 43
t70 37q38 16 73 27q36 11 74.5 21t76.5 15q39 6 79.5 5.5t78.5 -14.5q20 -7 37 -17.5t31 -24.5q7 -7 13 -15.5l12 -16.5q5 -9 9.5 -18t8.5 -19q16 -38 16 -77q0 -22 -5 -41.5t-13 -37.5q-18 -36 -46 -64.5t-60 -50.5q-33 -22 -69.5 -38.5t-74.5 -25.5q-18 -5 -37.5 -8.5
t-39.5 -3.5t-40.5 4t-37.5 14q-9 5 -16 13.5t-11 18.5q-5 11 -4 21.5t4 19.5q7 20 18.5 35.5t25.5 29.5q29 28 63 46.5t71 29.5q18 7 37.5 11t39.5 7q18 2 37.5 0.5t38.5 -10.5q0 -2 -2 -2q-17 7 -36.5 7.5t-37.5 -1.5q-20 -2 -39 -6.5t-37 -9.5q-35 -13 -68 -32.5
t-61 -46.5q-13 -14 -23.5 -29t-15.5 -32q-8 -18 0 -33q2 -8 8 -15t14 -13q32 -16 72 -13q38 0 74 12q37 11 71.5 26.5t66.5 37.5q31 20 56.5 47t40.5 62q18 31 18 71q0 36 -16 70q-4 9 -8 17t-9 16t-10.5 15l-10.5 14q-13 13 -31 23q-35 11 -76 10t-83 -8t-82 -18t-73 -21
q-52 -16 -109.5 -49.5t-108.5 -79t-88.5 -99.5t-47.5 -111q-14 -66 -1 -122t46 -103q35 -38 84 -63q32 -17 69.5 -27.5t75.5 -12.5q73 -1 150 17q75 18 144.5 49.5t134.5 73.5q66 40 127 85t120 97q57 50 112 104t105 114q51 57 96.5 118.5t87.5 127.5l84 127.5t78 132.5
q20 33 37 67.5l34 69.5l39 66t43 64q23 30 49.5 57.5t58.5 50.5q-126 -23 -249.5 -56.5t-235.5 -75.5q-25 -9 -63.5 -26t-82 -39.5l-90 -49t-88.5 -54.5t-76.5 -55.5t-54.5 -52.5q0 -2 1.5 -4.5t2.5 -4.5q11 -11 26 -16l14.5 -4t14.5 -3q31 -4 62 -6h1q0 -2 -1 -2
q-15 0 -31 1.5t-31 3.5q-16 1 -31 7q-16 5 -27 15q-12 13 -7 31q1 8 4.5 15t8.5 14l1 1l2 2q4 6 6 7v2q11 12 25 24.5l31 26.5q6 6 19 14q14 11 28.5 20.5t28.5 20.5q26 18 52.5 33.5l52.5 31.5l55.5 29.5l53.5 28.5l56.5 26.5t57.5 23.5q58 22 116.5 41t118.5 36
q60 16 120.5 29.5t120.5 23.5q32 5 62.5 9l61.5 8q15 1 30 2.5t31 1.5l62 5q31 2 62 2.5t63 -1.5t62.5 -7t59.5 -14q30 -9 59 -24.5t49 -38.5q8 -8 12 -16q24 -32 32 -80q0 2 -1 2.5t-2 2.5l2 -12.5t1 -12.5v-1h-2v1q-1 9 -3 18.5z" />
    <glyph glyph-name="K" unicode="K" horiz-adv-x="862" 
d="M1346 -210q-5 -23 -14.5 -44.5t-20.5 -41.5q-13 -21 -26.5 -39.5t-30.5 -35.5q-32 -32 -73 -55.5t-88 -28.5q-22 -2 -45.5 1t-44.5 9q-22 8 -42 19t-38 28t-31.5 36.5t-24.5 39.5q-22 47 -32 90q-12 46 -16.5 93t-7.5 95l-2 24v23q0 11 -0.5 23t-0.5 23q-2 24 -4.5 47
t-7.5 46t-10.5 44.5t-14.5 43.5l-18 44t-22 39q-7 13 -16 23.5t-19 18.5q-10 -2 -18.5 -5.5t-18.5 -6.5q-19 -5 -37.5 -11t-38.5 -11q-16 -5 -28 -8q0 -1 -0.5 -1t-0.5 -1v-1q-34 -42 -64.5 -84t-65.5 -83q-35 -40 -75 -74t-87 -59q-5 -5 -12 -7t-12 -6l-11 -4q-5 -3 -6 -3
l-6 -3q-12 -5 -24 -11t-25 -11q-24 -8 -50 -13t-53 -4q-13 2 -26 5.5t-26 8.5q-25 14 -42 37q-2 3 -3.5 6t-3.5 6t-3.5 6.5t-2.5 6.5q-3 8 -3.5 15.5t-0.5 13.5q1 16 6.5 29.5t11.5 25.5q31 48 76 79q21 14 44 27.5t47 24.5q2 0 3 0.5t3 0.5q3 2 7.5 3.5t7.5 3.5q4 0 6 2
q11 3 21.5 6.5t21.5 6.5q8 2 17 4.5t17 4.5l94 24l99.5 26.5t99.5 29.5q12 3 22.5 6t22.5 7l26.5 37t29.5 38q10 15 21.5 27.5l23.5 24.5l123.5 165.5t132.5 157.5q45 46 91.5 87.5t97.5 78.5q-4 -2 -7.5 -2t-6.5 -1q-50 -12 -106 -19t-111.5 -11.5l-106.5 -8.5t-90 -9
q-55 -8 -110 -30.5t-104 -55.5t-88.5 -74t-63.5 -86q-18 -28 -35 -72.5t-21 -92.5v-3q1 -17 4.5 -35t13.5 -32q1 0 0 -2h-2q-1 0 -1 2q-8 14 -11.5 32t-5.5 35q-1 15 0 30.5t4 30.5q6 43 21.5 83.5t32.5 66.5q24 44 63.5 85.5t88.5 74.5t104 56t110 31q43 5 99.5 5.5l117 1
t120.5 3t111 13.5q1 2 4 2q2 0 3 1q29 18 58 34t60 31q4 0 6 -3v-3q-10 -17 -23 -28t-27 -19q-16 -8 -31 -14t-32 -10q-4 -1 -7.5 -2t-6.5 -1q-57 -39 -107.5 -83.5t-96.5 -94.5q-62 -67 -117 -139l-109 -145q14 13 29.5 23.5l32.5 21.5l41 27t41 25q41 26 83 49t87 40
q23 9 46 16t46 10q26 4 52 0q27 -2 49 -21q5 -6 8.5 -12.5t5.5 -14.5q4 -9 2 -22q3 -39 -39 -78.5t-115 -78t-169.5 -75t-202.5 -70.5v-1q9 -8 16 -18l14 -20q13 -20 22.5 -42t17.5 -44t14.5 -45t11.5 -47q3 -24 5 -47l4 -47q1 -11 1 -24v-24v-22l2 -25q2 -48 6.5 -94
t15.5 -91t30.5 -87.5t52.5 -74.5q17 -14 35.5 -25t41.5 -18q41 -17 87 -12q45 4 85 25t72 53q17 16 31 34.5t27 38.5q11 20 21 41t15 44h1h1zM1223 1018q10 6 19.5 13.5t16.5 18.5h-1q-1 0 -1 -3q-11 -11 -24 -20.5t-31 -17.5q9 3 21 9zM1256 1047q-20 -9 -38.5 -19
t-36.5 -22q23 7 42 17t33 24zM793 550l-40 -27.5t-37 -27.5q-31 -24 -55.5 -54l-48.5 -62q4 0 12 3q13 4 30 4l124 40.5l124 43.5q84 34 155 67.5t119 67.5l9 7t10 9q8 9 15 18.5t12 20.5q6 22 -11 38q-16 13 -38 16t-45 -1q-22 -3 -44 -9.5t-43 -14.5q-45 -19 -86.5 -41
t-81.5 -46q-21 -13 -40.5 -26.5t-39.5 -25.5zM414 153q32 36 60.5 75l59.5 78l-178 -48.5l-149 -38.5q-40 -10 -78 -27.5t-70.5 -40t-56.5 -48t-35 -51.5q0 -5 0.5 -10.5t2.5 -12.5q2 -2 3 -5.5t3 -5.5q1 -5 5 -8q15 -20 37 -33q11 -6 22.5 -9t22.5 -4q26 -2 51 3t48 14
q12 4 23.5 9t24.5 10l5 3q5 2 6 4l10 4q8 2 13.5 5t10.5 7q45 23 85 56.5t74 73.5z" />
    <glyph glyph-name="L" unicode="L" horiz-adv-x="485" 
d="M2301 -258q17 -22 31.5 -46.5t22.5 -50.5q17 -56 11 -112v-9t-2 -9q-4 -107 -53 -192.5t-128.5 -150.5t-183 -110.5t-215 -72t-224.5 -34.5t-212 1q-170 15 -299 72.5t-231 148.5t-183.5 212t-156.5 262q-27 53 -49.5 102t-42 97l-37.5 96.5l-37 100.5q-2 2 -2.5 4.5
t-2.5 4.5q-55 -33 -94.5 -48t-56.5 -15q-2 -2 -6 -2q-8 -3 -14.5 -3.5t-14.5 -2.5q-16 0 -31 2.5t-29 10.5q-30 16 -43 43q-6 14 -10 28t-4 28q-2 17 -0.5 31t4.5 28q3 16 9.5 29t15.5 26q2 3 4.5 6t4.5 6q3 3 5.5 5t4.5 5q7 5 12 9.5l11 9.5q13 8 27 13.5t30 7.5
q15 2 30.5 0t27.5 -8q14 -5 26.5 -13.5t23.5 -18.5q24 -22 38 -45l6 -13.5l6 -12.5t5.5 -12.5t4.5 -14.5l14 -29q31 26 58.5 54.5t53.5 60.5q48 60 93 123h-18q-14 0 -27.5 2t-25.5 7q-17 3 -26 12q-6 5 -10.5 10.5t-4.5 12.5v2h3q0 -8 3.5 -14t8.5 -9q12 -9 26 -12
q14 -5 26.5 -6t26.5 -1h22l78.5 118.5l77.5 119.5l59.5 96l62.5 93q31 47 64.5 91.5t75.5 86.5q9 9 19.5 18l21.5 19q5 5 11 9l12 8q5 5 11 8.5t12 8.5q13 6 27 11t30 5t31 -10q6 -5 11 -11l10 -12q8 -13 11.5 -27.5t3.5 -28.5q2 -15 1.5 -29t-4.5 -28q-9 -58 -36 -109
q-12 -25 -28.5 -48.5l-33.5 -45.5l-33 -44l-19 -21l-9 -10l-10 -10q-38 -42 -78.5 -81t-86.5 -73q-46 -32 -96 -57.5t-105 -37.5q-12 -3 -26 -5t-26 -4q0 -2 -4 -6q-7 -9 -13 -18.5l-12 -19.5q-97 -139 -205 -233l15 -41q18 -51 38.5 -102.5l42.5 -103.5l49 -100.5l52 -98.5
q26 -49 55.5 -97t60.5 -93q32 -45 67 -88.5t73 -82.5q40 -40 83 -74t91 -64q48 -29 98.5 -50.5t104.5 -37.5q54 -14 109 -23.5t110 -12.5q55 -5 110.5 -3.5t110.5 7.5q57 5 111.5 16t108.5 25t106 32.5t103 42.5q51 25 97 55t87 68t73.5 82.5t51.5 96.5q9 27 15.5 53.5
t8.5 55.5q3 28 1 55t-13 54q-16 54 -51 96q-20 22 -40.5 40t-43.5 33q-48 30 -100 49t-107 30q-109 22 -222 7q-56 -6 -108 -27q-50 -18 -94 -57h-2v2q23 19 46 33.5t50 23.5q26 11 53 17.5t55 11.5q111 15 224 -6q55 -11 107 -30t100 -50q47 -29 86 -73zM1137 896
q2 11 2 23v23q-6 19 -17.5 31.5t-28.5 15.5t-39 -4.5t-49 -29.5q-52 -36 -104.5 -102t-107 -147.5l-111 -173t-116.5 -179.5q11 2 23 4.5t23 5.5q54 12 103 38t94 61q46 32 85 70t77 80l72 85.5t58 93.5q13 26 22 52t14 53zM1101 1022q-3 2 -7 2h-9q-11 3 -28 -5q24 10 44 3
zM146 10q4 0 12 4q5 0 13 4q26 8 50 21t47 30q6 5 13 9.5t13 10.5q-3 5 -4.5 11t-3.5 12q-12 30 -36 57.5t-55.5 42t-68.5 9t-74 -41.5q-18 -20 -27 -48q-2 -8 -2 -16v-16q2 -12 5 -24.5t10 -25.5q5 -11 13.5 -20t19.5 -15q11 -5 23 -7.5t25 -0.5q7 0 13 1t14 3zM1348 -1010
q84 -8 178 -3t189.5 22.5t187.5 48t172 75.5t143.5 103.5t101.5 132.5q-20 -37 -46.5 -69.5t-56.5 -60.5q-41 -39 -88 -70t-98 -55q-50 -26 -102.5 -45t-108.5 -33q-54 -14 -109.5 -24.5t-110.5 -15.5q-113 -12 -223 -6q-57 3 -112 12t-109 26q-55 14 -106.5 36.5
t-100.5 51.5l-28.5 18t-28.5 19q94 -66 205 -108.5t251 -54.5zM2324 -621q-2 -2 -2 -4q0 2 2 4z" />
    <glyph glyph-name="M" unicode="M" horiz-adv-x="1360" 
d="M41 375q20 35 45.5 67t57.5 57q16 13 32.5 24t35.5 19q38 16 79 19q43 2 81 -11q39 -12 68 -43q14 -14 24 -32t14 -38q5 -20 3.5 -40.5t-9.5 -39.5q0 -1 -1 -1q0 1 -0.5 1t-0.5 1q3 8 5 16t3 17q-6 33 -27.5 61.5t-55.5 45.5t-77 20.5t-92 -12.5q-41 -15 -78 -45
t-66.5 -68t-49 -82t-26.5 -87v-5q1 -41 18 -78q8 -17 21 -32.5t29 -27.5q15 -11 34 -20q16 -7 38 -9q20 -2 39.5 1.5t38.5 8.5q38 12 73.5 31t68.5 41q68 45 129.5 96.5l121.5 106.5l115.5 112l112.5 116l110 118l108 120l109 119l55 58.5l57 57.5q4 6 10 0q4 -4 0 -8
l-88.5 -115l-86.5 -117l-81.5 -118t-77.5 -122q-37 -63 -69 -126.5t-58 -131.5q-48 -124 -65 -255l21.5 21.5l21.5 21.5l29.5 30.5l28.5 31.5q57 63 111 129l110 131.5l109 132.5l108 131l110 131l56 64l57 64q14 17 29 32.5l30 30.5l31.5 29.5t34.5 27.5q8 6 13 -2
q4 -6 1 -11q-50 -85 -108.5 -161.5l-120.5 -152.5l-119.5 -150.5t-113.5 -156.5q-13 -20 -25 -40.5t-21 -42.5q-22 -45 -32 -90q-6 -23 -9 -47t-1 -47q2 -24 11.5 -45.5t27.5 -35.5q18 -15 43 -20q11 -4 22.5 -3.5t22.5 3.5q23 5 42 20.5t31 35.5q5 10 9.5 21.5t5.5 22.5
q3 26 -10 45q-14 20 -38 28q-11 4 -23.5 5t-23.5 1l-1 1q0 1 1 1q13 0 24.5 -1t23.5 -5q26 -6 40 -27q8 -11 10.5 -23.5t1.5 -24.5q-3 -28 -16 -46q-12 -22 -31.5 -38t-43.5 -23q-12 -4 -25 -4t-24 2q-25 6 -46 21q-11 8 -18.5 18t-13.5 21q-9 24 -12 49q-2 25 0.5 49
t7.5 48q6 24 13.5 47t18.5 46q10 23 21.5 44t24.5 42q53 82 112.5 158.5l120.5 151.5l69.5 88.5t66.5 90.5l-124.5 -140l-143.5 -171l-149.5 -181.5l-142.5 -171l-123 -140.5t-91 -90q-17 -7 -24 -8.5t-9 0.5q-5 -2 -8 3q-2 2 -2 6q8 73 25.5 143.5t44.5 139.5
q26 68 59 132.5t70 127.5q33 56 69 109l74 106l-121.5 -133.5l-133 -142.5l-140 -141.5t-141 -130.5t-135.5 -109.5t-125.5 -78t-110.5 -36.5t-89 15q-48 27 -69 69.5t-21 92.5q-1 8 -1.5 16.5t-0.5 16.5q-1 41 10.5 80t29.5 76zM456 481q-8 17 -25 30q2 -2 3.5 -2.5
t3.5 -2.5q11 -13 18 -25zM291 556q-33 -2 -63 -12q63 20 115.5 9t87.5 -42q-14 12 -28.5 21.5t-31.5 14.5q-20 6 -40 8.5t-40 0.5zM214 539q-3 -3 -5 -3q2 1 4.5 2t5.5 2q-2 0 -3 -0.5t-2 -0.5zM195 529l2 1q-1 0 -2 -1z" />
    <glyph glyph-name="N" unicode="N" horiz-adv-x="1010" 
d="M1908 1001q-2 3 -5 5.5t-6 5.5q-28 21 -62.5 33.5t-73.5 13.5q-68 2 -122.5 -10t-101.5 -39t-89 -70t-84 -103l-62 -88.5l-44.5 -63.5l-37 -52l-38.5 -52.5l-49.5 -66l-70.5 -91.5q-4 -4 -6.5 -7.5l-5.5 -7.5q-1 -2 -2.5 -3.5t-3.5 -4.5q-2 -15 -3 -31t-3 -32
q-6 -49 -14 -97t-22 -96q-7 -23 -16.5 -46.5t-23.5 -45.5q-7 -11 -15.5 -20.5t-19.5 -17.5t-25 -11q-7 -2 -14 -2.5t-13 -0.5q-13 1 -26 2.5t-26 9.5q-12 6 -22 19q-7 12 -9 27q-2 14 0.5 27t5.5 25q8 26 19 46q20 42 45 80.5t52.5 75l56 72l57.5 70.5q2 20 2.5 39.5
t1.5 39.5q7 178 0 357q-10 -17 -19.5 -35l-18.5 -36l-50 -99l-52 -100t-55 -97l-58.5 -95.5t-64.5 -91.5q-17 -23 -35 -44.5t-37 -41.5t-39.5 -39.5t-41.5 -37.5q-44 -36 -93 -64.5t-103 -46.5q-27 -9 -54 -15.5t-55 -11.5q-29 -5 -56 -9t-56 -6q-56 -4 -112 -2.5t-111 14.5
q-58 12 -105 42q-50 33 -73 87q-12 26 -16 54.5t-2 56.5q2 29 10 56.5t22 52.5q26 51 66.5 90.5t88.5 69.5q48 29 101 48t110 23q28 3 56 2.5t56 -5.5q58 -9 103 -44t64 -91q9 -28 11.5 -56t0.5 -56q-2 -14 -3.5 -28t-6.5 -28q-3 -13 -8 -26t-11 -26q-30 -51 -74 -84
q-45 -36 -98 -54t-108 -23q-57 -5 -112 4t-108 29q-1 0 -1 1l1 1q107 -40 219 -32q56 5 108.5 23.5t96.5 53.5q22 17 40 38t31 46q14 23 20 51q3 14 5 27.5l4 26.5q2 28 -1 55.5t-11 53.5q-9 26 -25 49t-38 40t-47.5 27.5t-52.5 15.5q-55 8 -111 3q-55 -5 -107 -24t-99 -48
q-8 -5 -15 -10l-15 -11q51 36 106 59t107 30q93 11 156.5 -6.5t101.5 -58.5q-38 29 -96.5 41.5t-137.5 1.5q-62 -8 -127.5 -38t-120 -77t-89 -108t-33.5 -131q0 -58 23 -101q21 -26 46 -41q46 -29 100 -40q54 -13 109.5 -14.5t111.5 3.5q55 5 109.5 14.5t107.5 27.5
q53 17 100.5 45t89.5 64q21 17 41 36.5l39 39.5t36.5 41t34.5 44q34 45 63.5 91l57.5 94l54 98l51 99l51 100l25.5 50t28.5 48q2 4 5.5 5t6.5 -1q4 -6 4 -8q9 -195 3 -389q-1 -13 -1.5 -25.5t-0.5 -25.5l55.5 74l53.5 75l56 79l57 80l29 38l30 39q14 19 29.5 38t32.5 37
q33 36 71.5 67.5t85.5 51.5q45 20 94 27t98 5q51 -2 96 -25t77 -61q33 -37 48 -86q7 -23 8.5 -48t-4.5 -50q-5 -23 -17 -45.5t-29 -39.5t-38.5 -29.5t-44.5 -20.5l-1 1l1 1q23 8 43.5 20.5t37.5 30.5q33 35 44 84q8 47 -8 94t-47 83zM983 150q13 46 21 93.5t14 95.5
q1 8 1.5 17t1.5 17l-59 -74.5t-66.5 -92.5t-52.5 -94t-18 -78l4 -2l4 -2q9 -5 20 -7t23 -2h10.5t10.5 2q11 2 18 9q9 5 16.5 13.5t14.5 17.5q12 20 20.5 42t16.5 45zM1390 912q32 34 63 62t63 48.5t66.5 34t75.5 19.5q-55 -6 -103 -28q-44 -20 -81 -51t-69 -66l-7.5 -9.5z
" />
    <glyph glyph-name="O" unicode="O" horiz-adv-x="733" 
d="M1007 476q-51 -51 -108 -89q-34 -68 -82 -126.5t-108 -105.5q-80 -64 -174.5 -104t-197.5 -48q-26 -2 -51 -1.5t-51 3.5t-51 10t-48 18q-48 25 -78 68q-16 21 -26 45t-17 48q-14 51 -12 102t16 101q8 24 17 47.5t21 46.5q22 45 51 88q57 85 129.5 155.5t156.5 127.5
q42 29 86 53t91 44q95 40 198 40q26 -1 50.5 -3.5t49.5 -9.5q25 -6 48.5 -16t44.5 -24t38.5 -33t29.5 -42t18 -47.5t7 -49.5q1 -23 -2 -51l-4 -25.5t-7 -24.5q-8 -24 -20 -46.5t-26 -42.5q-24 -35 -52 -64q-2 -8 -3 -17t-3 -17v-1q-12 -42 -30 -80q48 33 93 77
q44 42 76.5 93.5t46.5 111.5q0 1 1 1t1 -1q-12 -61 -44 -114t-75 -97zM420 484q-7 -31 -4 -66v-1q1 -29 12.5 -56t33.5 -45q23 -18 51.5 -25.5t58.5 -7.5q29 0 59 5.5t59 13.5t57.5 18t55.5 24l37 20l36 21q13 26 23.5 52t18.5 54q1 1 1 4q-15 -14 -31 -27.5t-33 -26.5
q0 -1 -0.5 -1t-0.5 1q-1 0 -1 0.5t1 0.5l33.5 28t32.5 30q9 55 9 113q-1 20 -2.5 39.5t-6.5 38.5q-3 9 -7 17t-9 16q-15 21 -37.5 35t-55 15.5t-76 -11t-100.5 -43.5q-48 -29 -89 -65q-36 -31 -71.5 -74t-54.5 -97zM698 169q51 41 93 90t74 106l-28 -15.5l-29 -15.5
q-27 -14 -56 -25t-58 -20q-30 -9 -60 -15t-62 -6q-33 -2 -63 7q-15 4 -29.5 10.5t-27.5 17.5q-27 22 -39 51q-7 15 -11 30.5t-4 32.5v-1q-3 32 2.5 64.5t18.5 62.5q14 29 32 56t39 50q22 24 45.5 45t49.5 40l26.5 17.5l27.5 16.5q30 16 58 27q30 13 61 20q16 3 32.5 4
t33.5 -1t32.5 -8t29.5 -17t23.5 -24.5t16.5 -28.5q14 -31 18.5 -63t5.5 -64q0 -45 -6 -88q14 14 26 29t23 32q14 20 26 42.5t20 46.5q4 12 6 24l4 24q1 10 1.5 20t0.5 20q-7 49 -31 85t-59.5 60t-80.5 36.5t-93.5 14.5t-98.5 -6t-95 -25q-79 -31 -158 -80t-150.5 -112.5
t-130.5 -138t-98 -156.5q-23 -48 -35 -100q-5 -36 -4 -72t11 -71q8 -24 17.5 -46.5t23.5 -42.5q30 -41 73 -62q23 -11 46.5 -17.5t47.5 -9.5q25 -2 50 -2.5t49 1.5q100 8 192.5 47.5t170.5 102.5z" />
    <glyph glyph-name="P" unicode="P" horiz-adv-x="882" 
d="M986 608q22 -62 26 -124v-33t-2 -33q0 -15 -3 -31q-2 -5 -2 -9t-2 -8l-3 -16q-14 -62 -43 -116.5t-67 -98.5q-39 -45 -85 -77.5t-98 -50.5q-51 -18 -104.5 -19t-104.5 19t-93 61q-14 14 -26 29.5t-23 32.5l-63 -129l-64 -127l-54 -103l-53 -102q-27 -54 -60.5 -99
t-72.5 -86q-39 -42 -81.5 -75.5t-87.5 -60.5q-47 -26 -97 -43.5t-102 -21.5q-24 -2 -50.5 0t-50.5 8q-26 7 -51 18t-48 25q-22 16 -42.5 35.5t-38.5 42.5q-17 23 -30.5 51t-22.5 58q-17 60 -14.5 123t24.5 122q21 56 60 100q19 22 41.5 37.5t46.5 25.5q25 12 50.5 16.5
t49.5 4.5q14 0 26.5 -0.5t25.5 -2.5q14 -2 26.5 -6.5t23.5 -11.5q23 -13 43 -32t38 -42q17 -22 33 -45t31 -48q2 0 2 -1t-2 -1q-11 14 -20 27.5t-19 26.5l15 -21q-38 37 -82.5 64t-84.5 35q-61 9 -111.5 -4t-89.5 -42.5t-66 -72t-40 -92.5q-9 -78 12 -154q18 -54 50 -98
q32 -42 76 -72q22 -14 45 -24.5t46 -15.5q48 -13 98 -10q50 4 97.5 20t92.5 42q46 25 87.5 57.5t80.5 71.5q76 79 131 180l54 102.5l53 102.5l66.5 128l65.5 131q-4 5 -6.5 10.5t-5.5 11.5v2l2 -2q3 -5 5.5 -10.5t6.5 -10.5l38 77l38 77l101.5 209.5t119.5 195.5
q27 38 58.5 72t67.5 60q-47 38 -98.5 61t-103.5 30q-96 12 -183 -7.5t-161.5 -63t-136 -106.5t-106 -138t-70.5 -157.5t-31 -165.5q0 -8 0.5 -15.5t0.5 -15.5q5 -30 14 -59t23 -55q13 -28 30 -50.5t37 -42.5q21 -20 43 -35.5t48 -23.5q52 -14 100 12q23 13 43.5 33t37.5 43
q34 47 57.5 103t37.5 116l2 2q0 -2 1 -2t-1 0q-13 -61 -36 -118t-57 -105q-18 -24 -38 -44t-45 -33q-51 -29 -103 -14q-26 8 -50 23.5t-44 35.5l-20 20.5t-18 22.5q-9 11 -17.5 24.5t-14.5 27.5q-14 26 -24 55.5t-14 61.5q-8 65 0 128q9 62 29.5 120.5t49.5 111.5
q57 107 140 188q82 81 181 131t205 58q26 2 53 1t53 -3q27 -4 52.5 -12.5t50.5 -20.5q35 -18 68.5 -41.5t62.5 -53.5q20 9 40.5 15t40.5 8q25 1 50.5 -4t48.5 -15q1 0 1 -2h-1q-23 11 -48.5 15t-50.5 2q-41 -5 -77 -21q10 -10 20 -21.5t21 -22.5q38 -45 68.5 -97.5
t50.5 -113.5zM684 939h-2h2zM586 972h-2q0 -1 1 -1q1 -1 3 -1zM665 948q-4 2 -6.5 2.5t-5.5 2.5q3 -2 5.5 -2.5t6.5 -2.5zM643 957q-7 1 -16 5q9 -4 16 -5zM619 963q-5 2 -8.5 3t-5.5 1q2 0 5.5 -1t8.5 -3zM-113 384q3 13 5.5 25.5t4.5 26.5q-12 -57 -15 -116q2 17 2.5 32.5
t2.5 31.5zM-101 444v-2v2zM990 422q1 14 1 29v31q-2 16 -5 33q-18 79 -64 153q-8 14 -16.5 26.5l-17.5 25.5q-25 32 -52 61.5t-57 52.5q-36 -26 -67.5 -60t-60.5 -73q-65 -92 -115.5 -196l-99.5 -211l-39 -78.5l-39 -78.5q12 -17 24 -32t26 -28q43 -37 92 -56
q49 -18 101.5 -15t101.5 22q50 19 94 50.5t80 75.5q37 43 63 96t39 111l4 16q1 4 1 7.5t2 6.5q2 8 3 15.5t1 15.5z" />
    <glyph glyph-name="Q" unicode="Q" horiz-adv-x="778" 
d="M1384 -160q1 1 1 0v-1q-54 -20 -109.5 -32.5t-112.5 -19.5q-29 -4 -57.5 -6t-57.5 -1q-59 0 -115 13q-29 6 -56 17.5t-51 28.5q-27 18 -44 40t-31 51q-21 49 -23.5 102t8.5 104l-6 -6t-7 -5q-81 -66 -176.5 -106.5t-200.5 -48.5q-26 -2 -51.5 -1.5t-51.5 2.5
q-26 4 -52 10.5t-49 17.5q-49 25 -81 67q-31 47 -43 95q-16 51 -14 103t15 103q14 51 37 96.5t52 88.5q17 27 34 49q45 60 99 114t113.5 100t123 82.5t126.5 60.5q66 25 140 30.5t139 -10.5t114 -55.5t66 -105.5q10 -27 11 -53q2 -26 -1.5 -51.5t-8.5 -49.5q-9 -50 -32 -98
q-17 -39 -40.5 -74t-50.5 -69q-28 -78 -75 -145t-107 -122q-15 -56 -14 -109q2 -29 8 -55t18 -52q5 -12 12.5 -24t15.5 -23q16 -20 39 -36q22 -16 47.5 -26t52.5 -17q55 -14 110.5 -15.5t112.5 3.5q29 3 56.5 7t55.5 9q29 5 56.5 11zM614 287q-18 0 -43.5 -9t-50.5 -25
t-46 -38.5t-30 -49.5q1 -15 8 -33q3 -6 6.5 -12l6.5 -11q4 -7 9.5 -11.5t10.5 -9.5q11 -8 24 -12t27 -6q42 -3 86 11l45.5 29t42.5 32q9 8 17.5 14.5t17.5 14.5q2 11 3.5 21.5t1.5 21.5v7q-13 32 -45.5 49t-90.5 17zM345 -10q51 5 99.5 17t93.5 31q18 8 34 16l32 16
q-17 -4 -34.5 -6t-34.5 0q-31 2 -55 18q-10 8 -21 22q-3 5 -7.5 11.5t-6.5 14.5q-7 13 -9.5 27.5t-1.5 29.5q3 24 16 47q12 24 32.5 44t44 34t47 21.5t40.5 7.5q86 0 120 -40q13 -12 21 -29q7 -14 9 -29t2 -29v-12.5t-1 -12.5q59 59 103 129t67 150q22 60 26 122
q1 26 -2.5 50.5t-13.5 47.5q8 -29 10.5 -61.5t1.5 -61.5q-1 37 -8.5 73.5t-26.5 65.5q-15 21 -37.5 35t-55.5 15.5t-77.5 -11.5t-102.5 -44q-62 -37 -111 -84q-21 -20 -41.5 -44t-37.5 -52t-28 -59t-14 -65q-1 19 0 37t5 35q-4 -19 -6 -37.5t0 -37.5q0 -1 -2 -1
q-4 32 1.5 64.5t18.5 62.5q13 29 31 56t39 51q21 25 45.5 46t51.5 40l26 18.5t27 17.5l29.5 14t28.5 12q30 13 64 19q17 2 33 2.5t32 -2.5q18 -3 33.5 -10.5t29.5 -16.5q6 -5 12.5 -11l11.5 -11q6 -5 11.5 -12l10.5 -14q18 -29 24.5 -62.5t5.5 -66.5q-2 -32 -8 -64t-17 -63
v1l-6 -16.5t-5 -16.5q25 33 47 67t39 70q19 45 30 97q8 36 9 73q-7 50 -31 86.5t-60.5 61t-82 37.5t-95 15t-100 -6.5t-96.5 -25.5q-80 -31 -160.5 -81t-152.5 -114.5t-132.5 -140.5t-99.5 -158q-24 -47 -36 -103q-11 -72 9 -141q8 -25 18 -47t25 -42q28 -39 75 -62
q23 -10 46.5 -16.5t48.5 -8.5q25 -3 50 -2.5t50 2.5zM424 474q0 -2 -0.5 -3t-0.5 -2q0 1 0.5 2t0.5 3z" />
    <glyph glyph-name="R" unicode="R" horiz-adv-x="1109" 
d="M1957 -72l1 -1q-29 -48 -66.5 -90t-84.5 -74q-48 -32 -101 -51.5t-110 -22.5t-112.5 8t-108.5 34q-26 11 -50.5 24.5t-48.5 28.5l-23 16l-22 16q-11 11 -22 20t-20 20q-40 42 -69 90t-55 97l-51.5 100t-54.5 98q-14 24 -29 47t-32 45q-18 22 -36.5 42t-39.5 37
q-5 2 -8.5 4.5t-7.5 4.5q-6 1 -11.5 1h-12.5q-45 5 -87 15t-83 24q-1 0 -1.5 1t-2.5 1l-76 -119q-16 -23 -30.5 -46l-29.5 -46q59 3 115 -7q22 -5 43 -11.5t42 -14.5q20 -8 38 -20t34 -30q8 -8 14 -17.5t9 -21.5q6 -22 1 -47q-3 -23 -17 -41q-5 -9 -11.5 -18t-16.5 -17
q-16 -16 -37 -24t-43 -12q-45 -9 -87 -6q-45 4 -87.5 11.5t-84.5 21.5l-41 15t-41 19q-7 5 -14.5 9.5t-15.5 8.5q-18 -6 -36 -11q-5 -1 -11 -2t-12 -1h-23q-5 2 -10 2.5t-10 2.5q-15 3 -21 12q-5 5 -6.5 12t-0.5 13q1 7 4 12t6 9q7 15 21 27q-19 17 -36.5 34.5t-32.5 37.5
q-28 35 -49 74.5t-32 81.5q-13 42 -16.5 85.5t0.5 87.5q3 22 8 43.5l10 42.5q6 21 13 42t17 41q37 83 102 142q32 30 68.5 54.5t75.5 44.5q81 37 166 55.5t172 21.5q45 1 88.5 -1t86.5 -10q30 -4 59 -10t57 -15l30.5 48.5l29.5 48.5q3 3 4 2q2 0 2 -1.5t-2 -2.5l-27.5 -48.5
l-28.5 -49.5l22.5 -8t21.5 -9q42 -18 78.5 -43t65.5 -60q30 -36 43 -77q16 -41 13 -90q-2 -45 -22 -86.5t-51 -73.5t-70 -54t-82 -35q-29 -10 -60.5 -13.5t-61.5 -4.5q23 -17 41 -36.5t35 -42.5q17 -22 32.5 -45.5t29.5 -47.5q28 -50 53 -99.5l51 -99.5q25 -50 54 -97
t66 -89l20 -19.5t21 -17.5q11 -9 22.5 -17.5l22.5 -16.5q47 -31 96 -53q52 -22 106.5 -33t110.5 -9q54 4 107.5 21t101.5 48q46 31 83.5 71.5t66.5 88.5zM1161 689q1 11 0.5 23t-1.5 23q-21 58 -77.5 108.5t-153.5 82.5q-2 0 -3 1q-3 1 -7 2t-9 2l-140 -221.5l-143 -220.5
l-7 -8q27 3 54 2t56 -7q19 -6 38.5 -14.5t37.5 -19.5q37 -1 73.5 2.5t71.5 13.5q41 12 77 33t66 52q29 29 47 67t20 79zM380 193q-45 -11 -89 -33.5t-79 -48.5q13 -9 26 -20q9 -7 19.5 -13.5t19.5 -13.5l17 9.5t15 9.5q34 24 62 54.5t53 63.5l-22.5 -4t-21.5 -4zM234 49
q8 2 14 4t13 5l-15.5 10l-15.5 10q-8 7 -15 12.5l-14 11.5q-6 -4 -10 -8t-9 -7l-13 -15l-11 -13q6 -6 15.5 -8l18.5 -4h21h10.5t10.5 2zM740 49q5 8 9 18t6 20q0 2 1 5t1 5q-12 28 -42 49.5t-70.5 35t-88 19.5t-95.5 4q-6 0 -12 -1.5t-12 -1.5q0 -1 -1 -2q-26 -35 -55 -67
t-64 -58l-14.5 -9t-13.5 -7q10 -9 22 -14q18 -11 37.5 -18.5l39.5 -15.5q84 -26 168 -32q21 -1 42 0t41 5q21 4 40.5 11.5t35.5 21.5q7 7 13.5 14.5t11.5 17.5zM607 476l13 17l83.5 128.5l83.5 129.5l58.5 90.5l56.5 92.5l-44 10l-48 10q-64 9 -138 9t-150 -12t-150 -37.5
t-137.5 -67t-113.5 -101.5t-77 -140q-5 -14 -8.5 -26t-6.5 -26q-2 -11 -4 -28q-5 -42 -2 -83.5t15 -83.5q12 -41 31.5 -78.5t45.5 -70.5l33 -38.5t36 -35.5q15 15 32 27l34 23q38 23 79 39t84 22q11 2 23 3t24 3l32 48.5l33 48.5zM664 464q24 -6 49 -11t50 -8q-10 4 -19.5 7
t-20.5 5q-13 5 -28.5 6t-30.5 1z" />
    <glyph glyph-name="S" unicode="S" horiz-adv-x="1030" 
d="M999 145q3 -4 6 -7t5 -8q3 -10 0 -19q-4 -9 -10 -16t-13 -12q-14 -11 -29.5 -18.5t-31.5 -14.5q-33 -12 -68.5 -13.5t-69.5 9.5q-15 4 -29.5 10.5t-27.5 14.5q-74 -45 -155 -68.5t-165 -31.5q-84 -7 -168 2t-164 37q-40 14 -78 33.5t-73 45.5l-16 12.5t-16 14.5t-15 16.5
l-14 17.5q-12 18 -21.5 38t-14.5 41q-12 44 -11 89t16 87q16 43 45 75q30 32 70 50q39 20 80.5 27.5t84.5 5.5t83 -12q20 -5 40 -13t38 -20q32 -14 60.5 -35.5t54.5 -45.5t49.5 -50l46.5 -53q23 -26 45 -54l44 -56q11 -14 22.5 -26.5l23.5 -26.5q11 -14 22.5 -27t25.5 -24
q23 -19 46 -34q2 1 2.5 1.5t2.5 1.5q35 22 66 49.5t56 61.5q6 8 11.5 16.5t10.5 18.5q5 8 9 18t8 19q12 40 0 78q-7 19 -19 35.5t-26 30.5t-31 26t-35 23q-35 23 -72 41l-75 35l-148.5 62t-146.5 64q-4 2 -8.5 3.5t-8.5 3.5l-39.5 15.5t-39.5 17.5q-40 20 -75 49
q-17 15 -32 33.5t-24 41.5q-8 25 -7 48q0 23 11 47v1q6 11 13.5 20t17.5 17q9 8 18 14.5t20 11.5q21 11 43 17t45 8q46 4 91 -4.5t87 -23.5q43 -15 83 -35t79 -43q10 -5 19.5 -11.5t18.5 -11.5q10 -6 19.5 -13t17.5 -14q17 -15 30 -36q6 -10 10 -20.5t5 -22.5q0 -1 -1 -1
l-1 1q-1 16 -11 34q7 -14 10 -32q-8 16 -19 29t-22 22q-12 11 -26 19q-78 51 -142.5 79.5t-116.5 41t-92 12t-70 -9.5q-70 -20 -107 -80q-5 -13 -7 -25.5t-2 -24.5q1 -2 1 -3.5t1 -3.5q16 -37 52 -67q35 -28 72 -47q19 -9 39 -17.5t41 -14.5h1q76 -35 153 -66l155 -65
l76.5 -35.5t74.5 -41.5q37 -22 69 -52q16 -15 29.5 -33.5t21.5 -41.5q8 -22 7 -46t-9 -46q-3 -11 -7.5 -21t-9.5 -20l-12 -18.5t-12 -17.5q-26 -35 -57.5 -63t-66.5 -51q13 -7 26 -13t27 -11q33 -10 68 -8.5t67 12.5q17 6 32 13.5t29 18.5q15 12 21 26q3 8 0 17q-3 7 -9 13
t-14 9t-16 5q-17 4 -34 1q-19 -3 -30 -16q-7 -5 -10 -13t-5 -17q0 -1 -1 -1l-1 1q3 22 15 32q13 13 31 16q8 2 17 2t18 -2q8 -2 16.5 -5t15.5 -9zM410 -11q79 8 156 30t146 64q-24 15 -44 32q-14 12 -26.5 24.5t-24.5 26.5l-22.5 26.5l-22.5 27.5l-44.5 55l-45.5 54
q-45 52 -96 102q-26 23 -53.5 43.5t-59.5 34.5h-1q-2 2 -4 3t-4 3q-42 11 -90.5 12t-95 -9.5t-86.5 -33.5t-66 -62q-23 -34 -32.5 -78t-4 -89.5t27 -88.5t60.5 -74q20 -17 43 -31.5t49 -26.5q-88 31 -152 83q5 -5 10 -8.5t10 -8.5q34 -25 70.5 -43t75.5 -32
q79 -27 162 -35.5t165 -0.5z" />
    <glyph glyph-name="T" unicode="T" horiz-adv-x="802" 
d="M-522 789q-2 -8 -2.5 -16.5t-1.5 -16.5q-2 -50 7 -99.5t32 -93.5t56.5 -79t74.5 -59q84 -47 181 -58l12 -2l12 -2l24 -2q12 -1 23.5 -1.5t24.5 -0.5h37q2 8 5 15.5t5 15.5q19 49 46 92t60 81q65 79 147 132q41 28 85.5 49t91.5 34q47 12 95.5 14t96.5 -10v-1l-1 -1
q-48 11 -96 9t-94 -14q-93 -27 -176 -83q-41 -28 -77.5 -61t-68.5 -71t-58.5 -81t-44.5 -91q-2 -8 -4.5 -14.5t-4.5 -14.5q13 1 25.5 1.5t25.5 2.5q96 10 189 35.5t187 48.5q48 11 96 20.5t96 13.5t97 3q24 0 48.5 -3.5t47.5 -11.5q25 -6 48 -18t40 -32q8 -11 14 -23t10 -25
q3 -14 3.5 -27.5t-1.5 -25.5q-3 -28 -12.5 -52t-22.5 -46q-12 -23 -27.5 -43.5t-32.5 -39.5q-17 -18 -35.5 -35t-38.5 -32l-20.5 -14.5l-20.5 -13.5q-2 -2 -5.5 -3t-6.5 -3q-4 -4 -10 -7q-5 -3 -11 -6t-11 -6q-44 -23 -91.5 -34.5t-95.5 -19.5q-48 -5 -96.5 -5t-96.5 6
q-47 7 -96 23q-23 9 -45 19.5t-43 23.5q-43 26 -76 65q-33 42 -46 92q-7 26 -8 52t1 52q2 12 3.5 24.5t4.5 25.5h-32q-13 0 -24.5 0.5t-23.5 1.5l-25 2q-5 1 -12 1t-12 1q-48 6 -96 20.5t-91 40.5q-44 24 -80 61t-59 85q-13 23 -21 47.5t-15 50.5q-9 55 -8 105
q2 27 8.5 53.5t19.5 49.5q13 25 31 44t38 34q42 30 88.5 47t94.5 28q23 5 47.5 9t47.5 7q26 3 49.5 5t47.5 3q50 2 98.5 -1t96.5 -11l48 -8t48 -9l47 -10q12 -4 24 -7l24 -6q47 -15 91.5 -34.5t89.5 -41.5q44 -22 86.5 -45.5l84.5 -48.5l86 -49q20 -13 42 -23l45 -21
q88 -39 182.5 -58t191.5 -16q97 2 190 26t183 65q0 1 1 0q0 -1 -1 -1q-52 -26 -105 -45.5t-109 -31.5q-84 -27 -170 -38.5t-171 -6t-168 30.5t-161 72l-112 66t-121.5 67t-126 58t-124.5 38q-79 19 -164 29t-163 3q-59 -5 -122.5 -14.5t-120.5 -30.5t-101.5 -56t-65.5 -90z
M18 345l-29.5 -2t-29.5 -1q-2 -14 -4.5 -27l-4.5 -24q-5 -55 8 -102t46 -89q31 -36 73 -62q41 -26 88 -40q22 -9 45 -14.5t48 -8.5q97 -12 191 1q48 5 94 18t90 34l10 6t11 6l10 6q4 4 12 7q9 7 19.5 13.5t18.5 14.5q41 27 74 65q17 18 31 38t27 42q12 21 20.5 44.5
t11.5 48.5q5 24 -3 49q-5 23 -21 41q-14 18 -35.5 29t-44.5 18q-23 6 -46.5 9t-46.5 4q-23 2 -48 0l-48 -4q-48 -4 -95 -13t-94 -20l-187.5 -50t-190.5 -37z" />
    <glyph glyph-name="U" unicode="U" horiz-adv-x="902" 
d="M909 36q-1 -9 -10 -14q-6 -3 -15 -3q-13 0 -31 5q-14 6 -25 17.5t-19 25.5q-16 29 -23 60.5t-11 62.5q-5 32 -6 64t-1 64t1.5 64t3.5 64q1 5 1 10t1 10l-10.5 -46l-11.5 -46l-11.5 -47.5t-11.5 -46.5q-6 -24 -14.5 -47l-17.5 -46l-10 -22l-10 -22l-11 -22q-2 -6 -5 -11.5
t-6 -12.5q-28 -42 -75 -66q-23 -11 -46 -17.5t-46 -11.5q-25 -3 -49 -4.5t-48 0.5q-23 1 -47 2.5t-48 5.5l-23 3l-12 2t-12 3l-23.5 8t-22.5 9l-4 2l-4 2q-3 -5 -8 -7q-37 -32 -79 -54.5t-87 -37.5q-91 -29 -187 -28t-187 36q-45 17 -85 43.5t-74 61.5q-69 72 -92 170
q-7 25 -9.5 49t-2.5 50q1 24 2.5 48.5t6.5 48.5q8 49 24 95t38 91q10 20 21 39l23 39l-18.5 -26.5l-17.5 -25.5q48 90 120.5 169.5t160.5 139t186.5 93.5t199.5 34h6h2q24 0 48 -3t47 -12q24 -9 44.5 -22.5t37.5 -33.5q17 -19 27.5 -42t17.5 -47q14 -48 14.5 -97.5
t-5.5 -98.5t-18 -97q-8 -24 -17 -46.5t-19 -44.5l-22.5 -45.5l-23.5 -44.5q20 -11 36.5 -27t27.5 -36q22 -46 11 -98q-5 -24 -14.5 -47t-20.5 -43q-20 -35 -44.5 -67.5t-53.5 -60.5q11 -5 21.5 -9t21.5 -6q5 -2 10.5 -3l11.5 -2l24 -3q23 -4 45.5 -5.5t45.5 -2.5
q24 -2 47 -0.5t46 4.5q23 4 45 10t42 17q42 22 66 59q3 5 5.5 10.5t5.5 10.5l10 21l10 22l10 22q10 22 17.5 44.5l14.5 45.5t12.5 47t11.5 47q13 48 23 94t18 94q9 48 16 96t15 97l13.5 96t17.5 96q1 3 3.5 5t4.5 0q8 -2 6 -8l-14.5 -89.5t-14.5 -90.5q0 -2 -0.5 -5.5
t-0.5 -5.5l-10.5 -78.5t-11.5 -78.5q-5 -39 -9 -77.5l-8 -77.5q-4 -64 -6 -128t4 -127q4 -31 10.5 -62t20.5 -59q8 -14 18.5 -25.5t24.5 -17.5q15 -6 29 -6q9 0 14 3q4 2 6 5t4 7q0 1 1 1v-1zM329 362q-10 20 -26 36t-35 27q-1 -1 -1 -3q45 -28 62.5 -74t-5.5 -112
q5 50 -16.5 85t-63.5 58l-57.5 -100l-58.5 -99q-11 -21 -7 -40q2 -11 6.5 -20t11.5 -18q14 -16 30.5 -27.5t34.5 -21.5q30 28 54.5 60.5t44.5 67.5q12 21 21.5 43t14.5 45q5 24 3 48t-13 45zM250 433q-8 5 -16 8l-16 6l16.5 -7.5t15.5 -6.5zM358 775v8v-8zM183 35q4 2 5 3
q-17 10 -34 22t-31 28q-8 11 -14.5 23t-8.5 26q-3 28 10 53l58 99.5l57 99.5q-44 20 -102 28t-122 5.5t-131 -15t-129 -34.5t-115 -52.5t-90 -68.5q-7 -11 -11.5 -22.5t-8.5 -24.5l-1 -1q-1 0 -1 1q2 11 6.5 21t9.5 20q-5 -5 -9 -10.5l-8 -10.5q15 40 48 74.5t77.5 62.5
t98 49.5t110.5 35.5q1 1 5 1h1q68 19 134 23q48 5 95 4t94 -11q20 -5 39.5 -11t37.5 -14l22.5 43.5t22.5 44.5l19.5 43.5t15.5 44.5t11 47t8 47q2 16 3 31.5t3 31.5q-2 -38 -8.5 -75t-15.5 -73q9 45 12 91.5t-2.5 89.5t-20.5 81.5t-42.5 66.5t-68 44.5t-97.5 16.5
q-128 0 -250 -51t-225 -138q-52 -50 -96 -107.5t-77 -123.5q-22 -43 -37.5 -88t-23.5 -93q-7 -48 -8 -96t10 -94q21 -96 90 -166q32 -34 71.5 -59.5t83.5 -42.5q88 -35 182 -37.5t185 26.5q45 15 86 37.5t77 53.5z" />
    <glyph glyph-name="V" unicode="V" 
d="M729 963q9 -29 14 -57q3 -30 2.5 -59.5t-3.5 -58.5q-8 -59 -30 -113q-23 -55 -59 -101.5t-78 -86.5q-42 -41 -88 -76l-92 -70l-91.5 -70t-87.5 -75q-42 -39 -76 -83.5t-54 -97.5l-1 -1q-3 -8 -12 -5q-10 3 -6 13v1q2 4 2 5l5.5 11t4.5 10q32 76 57 154t45 158
q22 87 36 175t15 178q0 30 -1.5 60.5t-6.5 59.5q-16 60 -49.5 101t-89 53t-135 -9.5t-187.5 -84.5q-38 -25 -79 -63t-77.5 -85t-64 -100.5t-37.5 -110.5q-1 -25 0 -50q5 -45 24 -85.5t50 -72.5q15 -16 33 -28.5t39 -20.5q20 -9 42.5 -11.5t43.5 0.5q23 3 43 11t40 20
q20 11 36.5 25t32.5 31q15 17 27.5 35t20.5 39q4 11 6.5 21.5t2.5 21.5q0 25 -16 39q-8 8 -18.5 11.5t-21.5 4.5q-11 2 -22.5 1.5t-22.5 -2.5q-22 -3 -43.5 -9.5l-42.5 -13.5q0 -1 -1 0h-1q0 1 2 1q20 8 41.5 14.5t44.5 9.5q25 3 45 2q11 -1 22 -5t20 -12q9 -7 13 -18t5 -23
q0 -22 -10 -44q-8 -22 -20 -40.5t-27 -35.5q-30 -34 -70 -59q-19 -11 -40.5 -19t-44.5 -11q-23 -5 -45.5 -2t-43.5 11q-22 8 -40.5 21.5t-34.5 29.5q-32 32 -52 74.5t-25 87.5q-5 46 4 90.5t27 86.5t43 79.5t54 72.5q30 35 63.5 65t71.5 56q38 23 78.5 43t83.5 35
q23 8 45 13t44 9q23 2 46.5 1t45.5 -9q47 -14 77 -52q15 -17 25.5 -37.5t18.5 -42.5q14 -44 19 -89t5 -91q0 -45 -4 -90t-11 -91q-6 -45 -15 -88.5t-20 -87.5q-10 -44 -22.5 -87t-26.5 -86l-8 -24l-8 -24q16 20 33.5 39t36.5 37q43 40 88 75l92 70l91.5 70t86.5 75
q42 39 77 83.5t57 95.5q11 26 19 53.5t11 55.5t3.5 56.5t-1.5 56.5q-1 4 -1 7t-1 6q-14 46 -40.5 67.5t-58.5 24t-66.5 -12t-64 -41t-52 -62.5t-29.5 -77q0 -22 4 -38q6 -29 20 -54t34 -46v-2h-2q-20 21 -35 46.5t-22 54.5t-4.5 58t12.5 57q11 27 27 52t38 45
q20 20 45.5 35.5t54.5 22.5q15 3 30 4t31 -4q15 -3 28 -11t23 -19q22 -23 31 -53z" />
    <glyph glyph-name="W" unicode="W" horiz-adv-x="675" 
d="M1662 630q1 0 1 -1l-1 -1q-63 -2 -126.5 -5t-127.5 -4q-64 0 -127 1.5t-127 7.5q-32 3 -63.5 7.5t-63.5 11.5t-63 16.5t-60 23.5q-7 3 -13.5 6.5l-13.5 7.5q-1 -8 -1.5 -16.5t-2.5 -16.5q-9 -63 -28.5 -123.5t-43.5 -117.5q-50 -115 -115 -221l-34 -52t-36 -50
q-38 -51 -81 -96q-6 -6 -11 1l-3 3q-15 61 -17 122.5t3 121.5q5 61 15.5 121t22.5 119l22 119t19 120q8 52 11 104t-2 105q-15 -54 -39 -105q-14 -32 -31 -62.5l-34 -61.5q-36 -61 -74.5 -119l-79.5 -116l-160 -229l-74 -109t-68 -113q-5 -13 -10 -24.5l-10 -23.5h-2v1
l12 33v1q0 1 0.5 1.5t0.5 1.5q25 66 45 135q14 43 25 86.5t21 88.5q20 89 33 178.5t13 180.5q0 22 -1 44t-4 45q-15 64 -47.5 109.5t-86.5 61t-132 -4.5t-185 -85q-36 -25 -75.5 -65t-75 -89.5t-62.5 -105.5t-38 -113v-15t1 -15q5 -45 23 -86t48 -73q15 -16 32.5 -29
t37.5 -21q20 -9 41.5 -11.5t42.5 0.5q43 7 81 30.5t67 56.5q14 17 26.5 35.5t20.5 40.5q8 21 8 43q0 11 -3.5 21.5t-11.5 17.5q-8 8 -18 11.5t-21 4.5q-11 2 -21.5 1.5t-21.5 -2.5q-23 -3 -44 -9.5t-41 -14.5l-1 1v1q40 17 85 25q23 3 45 2q11 -2 21.5 -5t18.5 -11
q9 -8 13 -20t5 -23q0 -12 -2.5 -23t-6.5 -22q-8 -23 -20 -42t-27 -36q-29 -35 -67 -58q-20 -13 -41 -21.5t-43 -11.5q-46 -8 -89 9q-20 9 -38.5 22.5t-34.5 30.5q-32 33 -51.5 75.5t-24.5 88.5q-5 48 4 93.5t27 87.5q17 43 41.5 81.5t53.5 73.5q14 17 29.5 33.5t32.5 32.5
t33.5 30t36.5 28q38 23 77.5 43.5t81.5 35.5q21 8 43 14t45 8q22 2 45 1t46 -8q22 -7 42 -20.5t34 -32.5q16 -18 26.5 -39.5t17.5 -43.5q14 -45 18.5 -91.5t4.5 -92.5q-1 -46 -5 -92t-11 -91l-16.5 -89.5t-20.5 -89.5q-18 -72 -39.5 -141.5t-49.5 -137.5q30 54 63.5 105
l67.5 102l159 231l77.5 116t73.5 119q37 64 65 125q14 32 25 65t19 68q1 4 6 4q4 -2 4 -5q10 -61 7.5 -122t-10.5 -121q-8 -61 -19 -120l-22 -119t-20.5 -119.5t-14.5 -119.5q-5 -57 -3.5 -112.5t14.5 -110.5q18 19 35 40l33 42q18 25 34.5 50.5l33.5 52.5q32 53 60 107
t52 111q24 58 43 116.5t28 119.5q2 11 3.5 21.5t2.5 21.5q-8 4 -11 8q-27 23 -42 55q-13 32 -10 69q3 35 18 67q4 9 13 5q1 -1 2 -1.5t2 -1.5q21 -26 31.5 -57t14.5 -62q3 -20 3.5 -38t-0.5 -36q15 -11 32 -19q55 -25 118 -39q31 -8 62 -12.5t63 -8.5q63 -8 126 -10.5
t127 -3.5q64 -2 127 -0.5t127 1.5zM824 785q10 -28 36 -47v27.5t-2 26.5q-4 26 -11.5 49.5t-20.5 45.5q-4 -11 -6.5 -21.5t-3.5 -21.5q-2 -15 0 -30t8 -29z" />
    <glyph glyph-name="X" unicode="X" horiz-adv-x="921" 
d="M1433 79q1 -55 -29 -105q-7 -11 -15 -22t-18 -20t-19.5 -18.5t-21.5 -17.5q-23 -15 -50 -24t-55 -12q-26 -2 -53.5 0t-54.5 7q-54 12 -103.5 35t-97.5 52q-23 14 -44.5 30.5t-41.5 35.5q-21 17 -40.5 36.5t-37.5 39.5q-58 61 -107 127l-97 134l-67 -60.5l-69 -58.5
l-87 -67.5t-92 -58.5q-48 -27 -99 -48t-105 -33q-108 -23 -219 -6t-207 71q-48 26 -90.5 62t-76.5 81q-34 44 -57 94.5t-34 106.5q-22 109 6 218q29 110 106 193q77 84 186 119q26 8 53.5 12t55.5 6h55.5t54.5 -2q26 -1 53.5 -3.5t55.5 -7.5q3 0 5.5 -0.5t6.5 -0.5
q54 -9 105 -26.5t106 -48.5q56 -32 100 -74t81.5 -90.5t70.5 -100l68 -101.5l39 -58t40 -58l53 48q9 10 19 19l20 18q8 11 17.5 20.5l20.5 20.5l148.5 157.5l149.5 156.5l39.5 38.5l40.5 37.5l39.5 35.5t42.5 35.5q11 7 24 13t26 9q16 3 29 3q7 0 15 -1.5t14 -6.5
q13 -10 16 -24q4 -7 4.5 -14.5t-0.5 -14.5q-3 -15 -8.5 -27t-12.5 -25q-14 -24 -31 -45.5l-35 -42.5q-8 -11 -17.5 -20.5l-19.5 -19.5q-3 -6 -7 -10.5t-9 -9.5t-10.5 -9.5t-10.5 -10.5q-41 -37 -83.5 -69l-87.5 -64q-90 -62 -181.5 -118t-187.5 -105q68 -103 142.5 -202.5
t161.5 -177.5q28 -26 66.5 -48.5t82.5 -41t91 -31.5t92 -20q-2 -2 -6 -2t-7 -1q25 4 48.5 12t45.5 22q21 14 40 33q11 10 18.5 20.5l15.5 21.5q14 23 22 49t8 53q0 1 1 1t1 -1zM599 406q2 -2 3.5 -5.5t3.5 -5.5q97 50 188.5 106.5t180.5 118.5l87.5 64.5t83.5 70.5
q5 4 9 8.5t9 9.5t9.5 10t9.5 10l17.5 19.5t17.5 20.5q19 21 35 42t30 46q6 12 11 23.5t7 24.5q2 6 1 12t-3 12q-3 14 -14 20q-11 7 -23.5 7t-25.5 -3q-26 -7 -47 -21q-22 -16 -42 -34l-40 -36l-39 -38l-39 -39l-148.5 -158l-149.5 -159l-38 -38l-19 -19t-20 -19zM404 249
q30 23 58.5 48.5l56.5 51.5l-55 -23.5l-57 -22.5q-26 -10 -51.5 -17t-52.5 -12q-27 -6 -54 -9t-55 1v1l1 1q27 -3 54 -0.5t53 8.5q52 9 104 30q32 11 62.5 24t59.5 27l5.5 5.5t7.5 5.5q-14 19 -26 38t-26 38l-62 89l-30.5 45t-29.5 45l-62 89.5t-67 83.5t-78 73t-92 54
q-48 22 -100.5 31.5t-106.5 11.5q-26 1 -53.5 1h-54.5q-26 -1 -52.5 -5t-50.5 -12q-51 -15 -96.5 -43.5t-80.5 -68.5q-36 -39 -62 -86t-40 -99q-14 -51 -16 -104t9 -106q9 -53 31.5 -102t54.5 -91q34 -43 74 -78.5t88 -61.5q94 -53 201 -69.5t212 5.5q54 12 104 32.5
t97 46.5q93 54 178 124zM1225 -133q2 1 4 1q-4 0 -6 -1h2z" />
    <glyph glyph-name="Y" unicode="Y" horiz-adv-x="502" 
d="M984 911q15 -8 23 -21.5t10 -28.5h-2q-3 14 -10.5 27t-21.5 20q-13 7 -27.5 6.5t-28.5 -4.5q-29 -8 -55.5 -21.5t-49.5 -30.5q-50 -34 -95.5 -72.5t-87.5 -80.5q-49 -48 -92 -99.5t-83 -105.5h7q23 -3 42 -15q11 -6 18 -14t15 -16q5 -10 11 -19.5t11 -19.5q5 -9 9 -20
t6 -22q10 -43 -3 -86q-13 -42 -41 -76q-13 -18 -28.5 -33t-32.5 -28q-32 -29 -70 -49t-78 -37q-76 -28 -159 -36q-2 -3 -4 -6.5t-4 -7.5l-31 -50t-34 -50q0 -3 -5 -3l-64 -97.5t-67 -95.5l-38.5 -47t-39.5 -44l-44.5 -43.5t-46.5 -39.5q-23 -19 -47.5 -36l-49.5 -34
q-26 -15 -53 -29t-56 -24q-15 -5 -30 -9t-31 -5q-34 -3 -62 8q-15 6 -27.5 17t-19.5 25q-8 14 -13 29t-9 30q-5 32 0.5 62.5t13.5 59.5q10 29 22.5 56t27.5 53q29 53 66 100.5t81 91.5l85.5 83t90.5 79q25 18 48 36.5t49 35.5l48 36q2 2 2.5 2t2.5 1v6q0 44 10.5 85t24.5 81
q16 39 36 75.5t43 72.5q21 37 45 71l49 67q24 34 50.5 66.5t55.5 64.5l58 58t62 55q34 28 70 48q19 11 38 19t39 12q21 5 42.5 2.5t39.5 -13.5q18 -13 31.5 -30t21.5 -34q1 -1 1 -2h-1h-1q-17 39 -53 63q-17 11 -38 12.5t-41 -1.5q-39 -10 -77 -33q-18 -10 -35 -22t-32 -26
q-33 -26 -62 -55t-57 -60l-54 -64t-50 -66l-48 -68t-45 -70t-41.5 -73t-34.5 -75q-13 -37 -22 -76t-9 -79q7 5 14 9.5t14 9.5q53 32 106.5 58t110.5 45q22 7 42.5 12t43.5 7l21.5 29t22.5 25q26 32 64 57q12 7 24.5 12.5t26.5 9.5q7 10 14.5 18.5t14.5 18.5l77 93t83 86
q45 42 91 80.5t99 71.5q25 15 52 29t56 22q15 4 30.5 3.5t28.5 -9.5zM330 412q-11 -11 -20 -22t-17 -24h18q8 0 15.5 -0.5t15.5 -2.5l39.5 56.5l40.5 56.5l-14 -6t-14 -7q-17 -11 -33 -24t-31 -27zM201 128l36.5 67.5l38.5 66.5q13 20 24.5 39.5t25.5 39.5q0 2 1 3
q-28 -1 -58 -9l-16 -29l-15 -29l-15.5 -39t-9.5 -42h-1q0 23 6 43t14 40q6 14 12.5 27l13.5 26q-41 -11 -82 -28t-78 -35.5t-66.5 -36.5t-47.5 -31q-8 -6 -16.5 -11.5l-16.5 -10.5q1 -10 4 -19t7 -18q7 -19 20 -34.5t28 -26.5q33 -21 74 -29q18 -3 36 -4.5t36 0.5l22 40z
M337 357q0 2 4 5q-8 1 -15 1h-15h-22q0 -3 -3 -4q14 1 26.5 0.5t24.5 -2.5zM-21 238q-8 -6 -16 -11t-15 -11v-1q2 0 4 3q21 14 57 35.5t79.5 42.5t91.5 38t93 23q2 4 3 5l-40.5 -8.5t-41.5 -10.5q-57 -20 -110.5 -46.5t-104.5 -58.5zM-211 96q-14 -11 -25 -21l-24 -21
l90.5 74.5t101.5 74.5v2l-50 -35l-47 -37zM-54 -269q36 48 68 98l66 100q16 21 31 43.5l29 45.5q1 3 2 5.5t3 5.5q-16 0 -32.5 1t-32.5 5q-20 4 -41 12t-38 20q-19 13 -33 30.5t-22 37.5q-2 8 -5 16.5t-4 16.5l-84.5 -64l-77.5 -63t-74.5 -67.5l-75.5 -75.5
q-26 -27 -52 -60.5t-50 -70.5t-43.5 -76t-31.5 -77t-14.5 -74.5t7.5 -67.5q2 -11 6.5 -19.5l9.5 -17.5q3 -2 6 -3.5l7 -3.5q26 -10 55 -4q14 1 28 4t28 8q27 11 53.5 24.5t51.5 28.5q26 17 49.5 34t46.5 36q25 19 46 39t41 42l39 45zM469 482q-8 1 -18 0l-88 -123q2 -2 4 -2
t4 -2q30 -13 46 -37v-1l-1 -1v1q-17 24 -47 37q-1 0 -3.5 0.5t-4.5 0.5l-1 -1v-2q23 -7 45 -27q-10 8 -23 13q-7 3 -14 5q-10 0 -15 1q-1 -2 -2 -3.5t-2 -4.5q0 -4 -2 -6q-15 -20 -28 -40l-26 -42q-19 -30 -35.5 -61.5l-33.5 -63.5q-11 -18 -21 -37t-21 -37q70 7 142 38
q38 14 73 34t67 47q31 25 56.5 56.5t37.5 69.5q13 38 5 77q-2 11 -5 20t-8 17l-9 18.5t-10 17.5q-12 16 -27.5 26t-34.5 12z" />
    <glyph glyph-name="Z" unicode="Z" horiz-adv-x="639" 
d="M2978 -713q0 -48 -8.5 -96t-30.5 -90q-20 -45 -51 -80.5t-69 -63.5t-79.5 -47.5t-86.5 -33.5q-42 -14 -87 -23t-91 -16q-91 -11 -182 -11t-182 7q-92 5 -183 17t-181 28l-178 39t-178 49q-87 27 -172 64t-164 88q-158 103 -281 246q-61 73 -113.5 150.5t-100.5 161.5
l-44.5 82.5l-44.5 81.5q-23 42 -48.5 81.5t-54.5 75.5q-13 17 -26.5 31l-27.5 28l-12 -3.5l-12 -3.5q-45 -11 -89 -20.5t-90 -15.5q-23 -4 -45.5 -7t-45.5 -3q-49 -3 -92 7q-11 2 -22.5 6.5l-23.5 9.5q-10 5 -20.5 12t-18.5 18q-4 5 -6.5 11.5t-2.5 14.5q-2 6 0.5 13.5
t6.5 12.5q6 13 15.5 21t19.5 15q23 11 45.5 16.5t45.5 8.5q28 5 62.5 8t77.5 -1q80 -2 140.5 -26t109.5 -66q158 51 302 132t272 187q72 60 137 125.5t123 140.5q29 36 55.5 74.5t50.5 80.5q23 39 43 79.5t33 85.5q-16 0 -32 -1t-33 -3t-34.5 -4.5t-35.5 -6.5
q-34 -5 -69.5 -12l-70.5 -14l-138 -27.5t-140 -25.5l-141 -21t-140 -13q-37 -3 -72 0q-19 0 -36 2t-34 9q-8 3 -16.5 7.5t-14.5 11.5q-14 14 -11 35q0 11 3 19t8 16l10 16.5l10 16.5h2v-2q-6 -7 -11.5 -15t-8.5 -16q-5 -8 -8 -16t-3 -19q-2 -8 1.5 -17t9.5 -16
q5 -7 13 -11.5t16 -7.5q18 -5 35.5 -7l34.5 -4t35.5 -1t36.5 1q70 5 140 15t141 22l138.5 26.5l139.5 27.5q35 8 70 15l70 14q17 2 34.5 4.5t35.5 6.5q18 2 36 3t36 -1q2 0 2 -4q-13 -47 -33.5 -89t-44.5 -83q-23 -42 -50 -81l-55 -76q-116 -147 -262 -269
q-127 -105 -269.5 -186t-297.5 -135q67 -60 121 -148l113 -191q82 -143 167 -252.5t176.5 -192.5t191.5 -142.5t211 -103t235.5 -75t265.5 -57.5l137.5 -21t174.5 -20.5t197 -10.5t204 7q23 3 44.5 8.5t42.5 13.5q43 13 84.5 31.5t79.5 44.5t69 61.5t51 77.5q21 43 31 89.5
t10 94.5h2zM287 63q10 4 14 4q-17 14 -33.5 26t-36.5 22t-40.5 18t-42.5 13q-12 2 -23 3t-22 3q-5 2 -10.5 2h-12.5l-21 2q-23 0 -45.5 -0.5t-44.5 -3.5q-23 -2 -44 -7t-41 -17q-20 -11 -30 -26q-11 -21 2 -37q5 -8 14 -15t18 -12q20 -9 42 -12q41 -10 90 -7q23 0 44.5 3
l44.5 6q46 6 90 14.5t88 20.5z" />
    <glyph glyph-name="a" unicode="a" horiz-adv-x="262" 
d="M274 20q1 1 1 0q1 -1 0 -1q-8 -5 -16.5 -8.5t-18.5 -5.5q-20 -7 -38 -4q-11 1 -21 5.5t-16 12.5q-8 8 -12 18.5t-6 20.5v1q-11 -17 -26 -30t-34 -21q-22 -8 -40 -4q-23 2 -38 15q-16 16 -18 38q-3 17 4 39q12 36 40 64q14 14 31 22.5t35 13.5q17 4 34 2t34 -7q2 4 3.5 8
t3.5 8q5 12 16 6q7 -3 7 -11q-1 -20 -5 -39t-11 -37l-7.5 -17.5t-7.5 -16.5q-2 -15 0 -32q1 -15 10 -30q8 -11 26 -16q16 -4 34.5 -1.5t35.5 7.5zM81 22q15 7 28 19.5t23 26.5q4 6 7 12l6 12q2 22 6 43q6 28 18 53q-34 11 -67 2q-34 -9 -61 -36t-35 -61q-5 -18 -3 -34
q3 -20 15 -29q12 -10 31 -12q13 -1 32 4z" />
    <glyph glyph-name="b" unicode="b" horiz-adv-x="210" 
d="M118 204q13 0 26.5 -6t22.5 -16q20 -20 27.5 -47t1.5 -56q-4 -13 -11 -25.5t-18 -22.5q-10 -10 -23 -16t-26 -10q-28 -7 -54.5 -5t-51.5 7h-1q-9 4 -9 13q2 35 7 70t13 70q7 34 17 68t22 68q22 67 47 131.5t47 132.5h2q-19 -69 -41.5 -135t-42.5 -133l-17.5 -68.5
l-16.5 -67.5q-5 -32 -8 -63.5t-5 -63.5q22 -5 43.5 -6t42.5 4q24 7 40 21q17 15 23 36q7 23 2.5 47t-19.5 42q-8 8 -18.5 14t-21.5 8q-12 2 -24.5 -1.5t-23.5 -8.5h-2q0 2 1 2q10 8 22.5 12.5t26.5 4.5z" />
    <glyph glyph-name="c" unicode="c" horiz-adv-x="217" 
d="M154 196q28 -9 50 -31q2 -2 0 -2h-1q-11 9 -24 16t-27 10q-27 6 -53 -7q-26 -12 -43.5 -34.5t-23.5 -48.5q-3 -13 -2.5 -25.5t6.5 -23.5q5 -11 15 -17t23 -10q12 -4 26 -5t28 0l28.5 2t28.5 3q2 0 2 -2h-1q-28 -14 -56 -20q-15 -3 -30.5 -4t-32.5 3q-15 3 -30 12
q-8 5 -13 12t-9 15q-8 17 -7.5 33.5t5.5 31.5q10 29 31 53q11 12 23 21.5t27 14.5q14 5 30 6.5t30 -3.5z" />
    <glyph glyph-name="d" unicode="d" 
d="M340 576q-9 -36 -20 -71.5l-22 -70.5q-13 -35 -24 -69.5t-21 -69.5q-11 -36 -19.5 -71.5l-16.5 -70.5q-17 -72 -24 -145v-1h-2l-1 1q-5 37 -3.5 74.5t7.5 74.5l2 12t2 13q-22 10 -46 11.5t-45 -6.5q-25 -9 -44 -28.5t-29 -42.5q-10 -25 -6 -50t21 -39q16 -16 43 -8
q11 3 22 10.5t21 18.5h2v-2q-5 -13 -15.5 -24.5t-24.5 -18.5q-7 -5 -14.5 -6t-16.5 -1q-16 0 -32 11q-14 11 -21 25.5t-9 30.5q-1 31 13 60q12 26 35 46.5t52 28.5q23 7 48.5 3.5t46.5 -15.5q7 29 16 57t20 57q11 35 24.5 69.5l27.5 68.5l26.5 69t23.5 70h2q1 0 1 -1z" />
    <glyph glyph-name="e" unicode="e" horiz-adv-x="209" 
d="M198 93q3 0 1 -2q-1 -15 -8 -29t-18 -25q-21 -21 -53 -32q-15 -5 -31 -6t-32 3q-18 3 -31 13q-16 10 -24 23q-2 2 -2.5 3.5t-2.5 3.5t-2 4t-2 4q-2 4 -2.5 8.5t-1.5 9.5q-1 16 4 32t14 29.5t19 24.5q11 11 23.5 20t26.5 16q14 6 30 9t33 -2q4 -2 4 -5q2 -6 3 -12.5
t0 -13.5l-4 -12.5t-6 -12.5q-14 -19 -40 -29q-12 -5 -24 -7l-24 -4h-16t-16 1q-1 -2 -2 -3.5t-1 -3.5q-4 -12 -2 -25q1 -3 1.5 -5.5t1.5 -5.5q1 -1 1.5 -2t1.5 -2q1 -3 4 -6q16 -21 41 -27q26 -6 53 0q13 3 25.5 8.5t23.5 14.5q11 8 20 19t14 25v1zM40 144q-15 -15 -23 -36
q20 0 39.5 3t36.5 10q11 5 20.5 12t14.5 17q9 16 4 38q-12 2 -24.5 -1t-24.5 -8q-25 -14 -43 -35z" />
    <glyph glyph-name="f" unicode="f" horiz-adv-x="202" 
d="M34 -426q-8 -2 -15.5 -3t-15.5 1q-9 2 -17.5 6.5t-12.5 11.5q-6 8 -8.5 15.5t-4.5 14.5q-1 8 -1.5 15t-1.5 15l2 27.5t3 27.5q5 28 8.5 55t8.5 54q9 49 20.5 96t25.5 94q-3 1 -6.5 1h-5.5q-5 2 -10.5 4.5t-10.5 7.5q-4 4 -6 9.5l-4 10.5q-2 6 0 12q-5 -2 -11.5 -3
t-8.5 -1q-1 -1 -1 0t1 1q5 2 10 3.5t11 3.5v4q1 10 4 19l6 18q3 5 10 7q22 -2 39 -12q2 2 4 3.5t5 3.5q3 9 5.5 18t5.5 17l8 27l2 6l1 3l1 3l4 14q3 13 5.5 25.5t6.5 26.5l22.5 107.5t28.5 105.5q8 27 20 52t28 46q10 13 20.5 23t24.5 15q13 7 28 8.5t29 -1.5q2 -1 2.5 -2
t1.5 -2q12 -47 7.5 -94t-19.5 -91q-14 -45 -35.5 -85.5t-49.5 -79.5q-26 -37 -58.5 -70t-68.5 -62l-4 -14t-4 -15q11 -8 20 -17.5t16 -21.5l4 -4l16 4t16 6l34 12.5t34 11.5h1q0 -1 -1 -2q-17 -7 -32 -15l-33 -14q-8 -3 -15 -6t-15 -7q11 -23 18.5 -45t12.5 -46
q11 -54 9 -111q0 -14 -1.5 -28t-2.5 -28l-6 -27t-7 -27q-6 -27 -17 -53.5t-30 -50.5q-9 -12 -21 -20q-3 -3 -6.5 -5t-7.5 -5l-3 -1l-4 -1q-5 0 -8 -2zM81 28q-5 8 -10.5 15.5t-13.5 13.5q-3 -8 -5 -17t-5 -18v-1q5 1 9.5 1t9.5 2q4 1 7.5 1.5t7.5 2.5zM77 127q-2 -8 -4 -12
q35 28 64 60t55 68q52 73 83 162q14 42 17.5 87t-7.5 88q-24 5 -47 -6q-11 -5 -20 -13.5t-17 -19.5q-17 -22 -27.5 -46.5t-20.5 -50.5q-17 -51 -27.5 -104l-21.5 -107q-3 -13 -5.5 -26t-5.5 -26l-3 -15v-3l-2 -5l-2 -6zM49 88q0 -1 -1 -1l1 -1v2zM24 76q-8 3 -16 3l-3.5 -7
l-3.5 -7q5 2 11.5 5t11.5 6zM4 29q3 -5 10 -7t14 -2q1 2 1 3.5t2 3.5q2 11 5.5 21t5.5 20q-4 2 -6.5 3.5t-6.5 3.5q-8 -5 -15 -8.5t-12 -7.5q-1 -1 -1 -2t-1 -3q-2 -8 -1 -15t5 -10zM-8 -395q5 -8 14 -10h10.5t11.5 2q2 1 3 1t3 1h2q0 2 2 2h1q6 2 10 4q5 5 9.5 9t7.5 9
q15 20 24 44.5t17 50.5q4 13 7.5 26t5.5 26t2.5 26t1.5 27q1 26 -1 53t-8 54q-3 23 -10 44.5t-18 41.5q-5 -1 -8.5 -3t-8.5 -2q-7 -2 -13 -3.5t-13 -1.5l-25 -98t-21 -97q-5 -28 -8 -54.5l-6 -54.5q-2 -13 -2.5 -26t-1.5 -26q1 -13 3.5 -25t8.5 -20z" />
    <glyph glyph-name="g" unicode="g" horiz-adv-x="233" 
d="M103 -416q-17 -3 -36.5 -2.5t-39.5 9.5q-18 8 -31 26q-6 9 -10 18t-6 20q-5 18 -5 37t2 37q5 37 16.5 71.5t29.5 66.5t41 60t50 54q12 12 25 23t27 21q-2 30 0 60v4q-14 -35 -42 -54q-14 -12 -31.5 -20.5t-37.5 -9.5q-20 0 -36 9q-8 5 -14.5 12t-11.5 14q-11 13 -15 34
q-2 19 4 35q8 17 19.5 30.5t25.5 23.5q14 11 31 18.5t34 11.5q35 8 69 -1v-2v-1q-17 6 -34.5 6t-34.5 -5q-32 -8 -62 -29q-14 -11 -25 -24.5t-17 -30.5q-7 -16 -3 -32q2 -8 5 -16t9 -14q9 -14 24.5 -20.5t30.5 -4.5q17 2 31.5 10t25.5 21q11 11 19.5 24.5l16.5 27.5t14 30.5
t11 33.5q0 1 1 1l2 -1q3 -25 0 -50v-31q0 -29 4 -52q12 8 25 15t27 12h1l1 -1h-2q-13 -7 -26 -16.5l-25 -18.5q1 -5 2 -9t2 -9q6 -16 14 -31.5t17 -30.5t17.5 -31.5t13.5 -34.5q3 -9 5 -17.5t3 -17.5v-9.5t2 -9.5v-18q2 -38 -4 -73t-26 -69q-18 -32 -53 -54q-31 -20 -70 -26
zM38 -389q12 -6 30 -6q7 -2 15.5 -1l16.5 2q17 2 32.5 8t29.5 14q27 16 48 46q9 14 14.5 30t9.5 33q3 17 4 34t1 34v17q-1 5 -1 9.5v8.5q-1 9 -3 17.5l-4 16.5q-9 33 -28.5 63t-32.5 65q-1 4 -1 12l-23.5 -21.5t-22.5 -22.5q-23 -26 -43.5 -54t-37.5 -58q-16 -32 -26 -65
q-5 -17 -9 -33.5t-6 -33.5t-1.5 -34t3.5 -32q4 -16 12.5 -28.5t22.5 -20.5z" />
    <glyph glyph-name="h" unicode="h" horiz-adv-x="260" 
d="M0 143l-2 2h1l23.5 2t23.5 6q2 5 3 8.5t4 8.5l25 83.5t30 83.5q14 41 32.5 81t41.5 78q12 19 25.5 37t30.5 32q8 7 18.5 14t22.5 10q24 7 48 -3q2 0 4 -5q5 -17 4.5 -37t-5.5 -38q-3 -19 -8.5 -36.5t-10.5 -35.5q-14 -35 -33 -67.5t-41 -61.5q-43 -62 -102 -107
q-14 -11 -29.5 -21.5t-32.5 -16.5l-5.5 -24.5l-5.5 -25.5l3.5 7t4.5 5q26 27 59 39q18 5 35.5 4t34.5 -9q11 0 17 -8q2 -5 3 -9.5t2 -9.5q0 -8 -1 -14.5t-3 -13.5q-3 -14 -6.5 -26l-7.5 -25q-1 -7 -1.5 -13t-0.5 -13q1 -5 3 -10.5t7 -7.5t11.5 -2.5t12.5 -0.5q6 1 12.5 1.5
t13.5 2.5q1 1 1 0q0 -2 -1 -2q-12 -5 -25 -8h-13.5t-14.5 3t-11 10q-3 4 -4 7.5t-3 5.5v15t2 14q2 14 5 26.5t5 25.5q3 15 2 24q0 5 -3 8l-6 3q0 1 -1 0q-29 12 -59 2q-13 -5 -26 -14t-24 -19q-9 -12 -17 -25.5l-16 -27.5q-6 -15 -11 -29.5t-8 -30.5q-2 -5 -6.5 -7.5
t-9.5 0.5q-5 1 -7.5 4.5t-0.5 8.5v1q8 37 17 73.5t20 72.5q-12 -2 -23 -3.5t-23 -1.5zM127 330q-31 -85 -53 -166q16 8 30.5 17.5t26.5 20.5q59 47 99 107q22 31 38.5 63t30.5 67q12 33 18 70q7 32 1 67q-20 2 -34 -1q-11 -3 -19 -8.5t-16 -12.5q-31 -30 -52 -67
q-23 -38 -39.5 -77t-30.5 -80z" />
    <glyph glyph-name="i" unicode="i" horiz-adv-x="61" 
d="M8 47q0 14 4 26.5t7 26.5q2 12 6 24.5l8 25.5l18 49h1l1 -2l-4 -25.5l-4 -25.5t-3.5 -25.5t-3.5 -25.5q-2 -12 -2.5 -24.5t-3.5 -25.5l-4.5 -24t-6.5 -26q0 -1 -1 -1t-1 1q-6 12 -8.5 25.5t-2.5 26.5zM60 237q-3 5 -5 8t-2 6q-1 2 1.5 4t3.5 6l4 10q3 3 5 11h1h1
q2 -5 4 -11t4 -14q0 -3 0.5 -6.5t-1.5 -5.5q-6 -8 -14 -9q-1 0 -2 1z" />
    <glyph glyph-name="j" unicode="j" horiz-adv-x="53" 
d="M-170 -397q24 5 43 23.5t33 40.5q13 24 23 49.5t18 51.5q7 27 13 54l12 54l26 108q7 28 12 55.5t12 55.5l12 53.5t11 53.5q0 1 1 1v0q-3 -28 -7.5 -55.5t-9.5 -54.5q-5 -28 -10.5 -55t-10.5 -55l-22 -109l-10.5 -55t-11.5 -54l-16.5 -55.5t-22.5 -52.5q-7 -14 -16 -25.5
t-21 -21.5q-9 -10 -23.5 -17.5t-29.5 -9.5q-8 -2 -17.5 -1.5t-17.5 8.5q-9 6 -12.5 14t-4.5 16q-3 15 -1 29.5t6 28.5q2 14 7.5 28t8.5 26q6 14 12 26.5l12 24.5q4 10 9.5 18.5t12.5 16.5q0 1 1 1q2 -2 0 -2q-5 -9 -9 -18t-6 -17v-1q-11 -27 -18.5 -53t-11.5 -53
q-4 -13 -4.5 -26.5t0.5 -24.5q4 -23 28 -21zM48 225q-2 0 -2 1q-7 7 -7 15q-2 5 0.5 8t4.5 7q1 5 5 11q3 9 7 14q1 1 2 1v-2q1 -4 1 -7.5t1 -6.5q0 -4 0.5 -7t-0.5 -7q1 -4 1 -8t-2 -6q-2 -5 -11 -13z" />
    <glyph glyph-name="k" unicode="k" horiz-adv-x="213" 
d="M34 30q-12 -12 -12 -22v-2q-2 -10 -12 -8q-10 0 -10 9v1h1v6q2 22 5 43t5 42q-7 -5 -13.5 -10.5t-14.5 -9.5t-5.5 -1t3.5 4q10 6 16.5 11.5t14.5 11.5q5 39 12 74q3 22 8 43t11 41q11 43 27 83q15 41 32 80t40 77q11 19 24.5 36.5t31.5 31.5q9 7 20 11.5t25 2.5
q12 -1 21.5 -8t17.5 -15q16 -19 20 -42q5 -22 0 -44q-3 -23 -11 -43t-19 -40q-20 -38 -45 -73t-53 -67q-29 -33 -59.5 -63.5t-63.5 -57.5q-9 -9 -19 -16q-1 -8 -2 -17l-2 -18q13 33 39 60q17 17 37 31t41 25q5 4 10 -1v-1q14 -11 23 -27q10 -17 10 -35q1 -11 -2.5 -20.5
t-8.5 -17.5q-9 -15 -25 -26q-3 -3 -9 -6q37 -49 63 -104.5l52 -107.5q14 -29 30.5 -54.5t36.5 -47.5q20 -23 45 -40.5t52 -30.5q57 -25 119 -27q30 -1 60 3.5t58 17.5q29 13 52 32.5t40 47.5q15 26 21 56.5t4 61.5q0 1 1 1t1 -1q5 -31 0.5 -62.5t-19.5 -60.5
q-15 -30 -39.5 -52.5t-54.5 -36.5q-29 -14 -61 -21t-64 -6q-17 0 -32.5 2t-32.5 6q-8 2 -15 4t-15 4q-8 3 -15.5 5.5t-15.5 4.5q-60 25 -107 75q-23 23 -40 51t-31 56q-28 55 -52.5 111t-59.5 104q-9 -4 -18.5 -5.5t-18.5 -2.5q-6 -1 -12 -0.5t-13 0.5q-17 -6 -28 -16z
M41 176l-4 -26l-4 -27l15 12q32 29 61.5 59.5l58.5 63.5q27 32 51.5 67t44.5 73q9 19 16.5 39t10.5 41q4 20 -0.5 40.5t-18.5 34.5q-6 8 -14 13.5t-17 6.5t-18 -3t-17 -9q-16 -14 -28.5 -30.5t-23.5 -34.5q-22 -37 -39 -76t-31 -80q-6 -20 -13 -40t-12 -40q-6 -21 -10 -42z
M30 53q-2 0 -2.5 0.5t-1.5 0.5v-5zM75 133q-16 -14 -28 -30.5t-20 -36.5v-8h11q4 2 7.5 3.5l8.5 3.5q17 6 33 9.5t33 2.5l18 12q11 8 18.5 19t8.5 25q1 11 -4.5 22.5t-13.5 22.5q-20 -10 -38 -20.5t-34 -24.5z" />
    <glyph glyph-name="l" unicode="l" horiz-adv-x="195" 
d="M10 54q-2 10 -1.5 19.5t1.5 18.5q2 8 3 16.5t3 17.5l9.5 33t9.5 32l43 127l22 63.5l22 63.5l24.5 63l25.5 62l2 1v-2l-21.5 -63.5l-20.5 -63.5q-11 -32 -20 -64l-19 -65l-19.5 -64l-19.5 -64l-8 -32t-6 -32q-2 -8 -3 -16l-2 -16t-1.5 -15.5t1.5 -14.5q7 -22 21 -35
q15 -14 38 -12q11 1 21.5 5t21.5 10t19.5 14l17.5 16h2v-1q-12 -21 -33 -39q-10 -8 -21.5 -14.5t-25.5 -8.5q-14 -3 -28.5 0t-26.5 13q-11 8 -18 20.5t-12 25.5z" />
    <glyph glyph-name="m" unicode="m" horiz-adv-x="399" 
d="M-17 170q0 1 1 2q7 5 14.5 9.5t15.5 10.5q8 2 17 5t19 3t16 -8q2 -6 3 -10.5t3 -9.5q1 -9 -1 -17.5t-4 -18.5q-3 -17 -8 -33l-10 -33q5 12 10.5 22.5t12.5 21.5q16 30 35 55q11 11 24.5 22t31.5 14q5 2 9.5 1.5t9.5 -0.5q3 0 6.5 -0.5t8.5 -1.5q8 -2 17 -5.5t14 -11.5
q7 -8 9 -15.5t3 -15.5q14 14 32 27q15 11 34 15t39 -1q5 -1 10.5 -3t8.5 -7q8 -9 8 -22q0 -11 -2.5 -19.5t-6.5 -16.5q-5 -17 -13.5 -31t-16.5 -29q-5 -6 -8 -14t-5 -16q-8 -16 0 -27q4 -5 12.5 -6t16.5 -1q8 1 15.5 1.5t15.5 2.5q2 0 2 -1l-1 -1l-16 -4l-16 -4
q-4 0 -8.5 -0.5t-9.5 0.5q-10 0 -18 7q-7 6 -7 19q0 4 0.5 8t1.5 9q4 17 12 33q6 16 13.5 30.5t13.5 29.5l4 16t2 13q0 6 -3 9q-2 1 -3.5 1.5t-6.5 1.5q-28 6 -55 -12q-12 -9 -23 -20.5t-21 -23.5q-5 -10 -11 -16q-8 -28 -21.5 -53l-26.5 -49q-2 -4 -7.5 -4.5t-9.5 1.5
q-6 3 -4 12q11 33 25.5 62.5t34.5 56.5q2 14 2 26t-6 20q-9 10 -23.5 13.5t-28.5 2.5q-13 -3 -24.5 -12t-22.5 -20q-11 -13 -19 -25.5t-16 -26.5q-8 -13 -15.5 -26.5l-14.5 -26.5q-8 -15 -17 -28.5t-19 -26.5q-4 -4 -7 0q-3 2 -1 6l15.5 32.5l15.5 32.5q7 17 12 33t9 33
q2 10 3.5 18.5t1.5 16.5q0 6 -4 16q-2 5 -5 6t-8 2q-8 1 -16.5 -1.5t-16.5 -6.5q-8 -5 -15.5 -9t-15.5 -9h-2z" />
    <glyph glyph-name="n" unicode="n" horiz-adv-x="295" 
d="M-8 180q-2 2 0 2q12 13 27 19q15 5 34 0q1 0 2 -1q4 -12 4.5 -25t-0.5 -25l-2 -10.5l-2 -10.5l5.5 9.5l5.5 9.5q5 7 11.5 14.5t14.5 14.5l17 12.5t20 8.5q15 2 25 -2q12 -6 19 -13q5 -4 8 -8t6 -9q4 -4 5 -9l2 -1v-4q2 -4 2 -7q2 -8 0.5 -14t-3.5 -11l-6 -10t-7 -9
q-5 -8 -11.5 -14.5t-11.5 -13.5t-9 -14t-4 -12q-1 -6 3.5 -13t9.5 -12q12 -9 29 -7t32 12q16 9 29 22.5t19 30.5h2q1 0 1 -1q-3 -17 -16 -35q-6 -8 -12.5 -15.5t-14.5 -12.5q-18 -13 -38 -16q-22 -6 -43 7q-8 5 -16 15t-8 24q0 12 5 24q2 5 5.5 9t6.5 8q6 8 12.5 14.5
t11.5 14.5l8.5 14t2.5 12v2v1l-1 2q-4 6 -5 7q-3 7 -9 13q-10 11 -24 11q-8 -2 -15 -6t-14 -9q-12 -10 -25 -27q-11 -15 -21 -30.5t-18 -31.5l-16.5 -33.5t-13.5 -33.5q-1 0 -1 -1q-2 -7 -8 -5t-4 8v1q5 19 13 36.5l16 34.5q2 3 2.5 6t2.5 5q2 4 6 10q5 12 8 24l6 24
q3 26 -1 47q-8 2 -15.5 2.5t-15.5 -1.5q-14 -5 -27 -18h-1z" />
    <glyph glyph-name="o" unicode="o" horiz-adv-x="219" 
d="M167 28q-5 -8 -13 -15t-18 -10q-3 -2 -11 -4l-2 -1h-3l-3 -1q-5 -1 -10 -1.5t-11 -0.5q-17 -2 -37 3q-10 2 -19 6.5t-15 11.5q-8 8 -13 16.5t-8 17.5q-5 19 -3 38t10 36q16 34 48 56q25 16 57 18v1q0 12 14 12q2 0 4 -2h1q11 -5 18 -13t12 -17q3 -5 5 -10t5 -10h21
q22 0 48 3q20 2 27.5 2t6 -1.5t-10 -5t-20.5 -7.5q-13 -4 -25 -7t-25 -5q-4 -1 -8.5 -1h-7.5q3 -17 3 -35t-2 -35q-2 -11 -5.5 -20t-9.5 -19zM127 21q14 5 22 19t11 31q2 16 0.5 32.5t-6.5 32.5l-2 4q-2 0 -4.5 1.5t-6.5 2.5q-6 3 -12.5 9.5t-9.5 14.5q-4 15 -3 27
q-31 -4 -54 -20q-28 -22 -40 -55q-16 -33 -5 -66q5 -17 17.5 -26.5t28.5 -13.5q18 -3 32 -2q5 1 9.5 1.5t9.5 1.5l4 1l3 2q2 1 3 1t3 2z" />
    <glyph glyph-name="p" unicode="p" horiz-adv-x="217" 
d="M191 193q9 -6 12 -14q3 -11 3 -18q1 -8 -1 -16l-4 -16q-10 -30 -27 -55.5t-42 -45.5q-13 -11 -27.5 -17.5t-31.5 -7.5q-18 0 -32 11q-12 9 -17 23q0 -1 -1 -2l-19.5 -76t-20.5 -76l-20.5 -75.5t-24.5 -75.5q-12 -37 -25.5 -73.5t-29.5 -73.5q0 -1 -1 -1l-1 1
q6 39 15.5 77.5l19.5 76.5q11 38 24 75t25 75l24 74.5t23 75.5q8 26 14.5 52.5l13.5 52.5q-8 -5 -16 -8q0 -2 -2 0l1 2q5 2 9 5.5t9 6.5q3 10 5.5 20t4.5 20q0 1 2 1l1 -1q-2 -9 -3 -18.5t-3 -17.5l38.5 21.5t41.5 18.5l14.5 4t15.5 3t16.5 -0.5t16.5 -7.5zM183 135
q2 6 4 13t2 13q0 14 -7 20q-8 6 -24 6q-6 0 -13 -1t-14 -3q-22 -6 -43 -15.5t-41 -20.5q-6 -26 -11.5 -53l-11.5 -54h1q9 -11 21.5 -17t25.5 -4q12 2 23.5 10t21.5 16q20 19 38 41q8 11 15.5 23t12.5 26z" />
    <glyph glyph-name="q" unicode="q" horiz-adv-x="214" 
d="M196 186q9 -2 7 -11q-8 -38 -17 -76t-20 -76q-10 -38 -21.5 -74.5l-22.5 -73.5l-50 -147q-11 -37 -23 -73.5l-24 -73.5h-1t-1 1q7 38 15.5 75.5t18.5 75.5l21 74.5l21 74.5l45 148q3 10 5.5 20l5.5 21q-8 -15 -18 -26q-13 -17 -28 -26q-16 -13 -37 -13q-10 -2 -19.5 1
t-17.5 8q-4 2 -7.5 5t-7.5 6q-7 6 -12 17q-4 9 -3.5 19t2.5 19q2 10 6 18t9 16q10 16 22 29t27 25q14 11 30 19t35 10q9 1 18 -1t17 -7q5 -2 13 -10q3 8 12 6zM125 54q11 14 19 28.5t16 31.5q14 32 23 62q-6 8 -13 12q-15 9 -33 6q-17 -3 -32.5 -11.5t-29.5 -19.5t-25.5 -24
t-19.5 -29q-8 -14 -13 -31q-5 -18 1 -32q4 -7 10 -11q3 -3 6.5 -5.5l6.5 -4.5q17 -8 31 -7q16 2 29 12t24 23z" />
    <glyph glyph-name="r" unicode="r" horiz-adv-x="216" 
d="M189 173q-5 6 -13.5 6t-16.5 -2q-17 -7 -32.5 -18t-29.5 -24l-27.5 -27.5t-24.5 -30.5q-5 -7 -8.5 -14l-7.5 -15q-2 -11 -4.5 -22t-6.5 -21q0 -3 -3 -5t-6 -1q-6 4 -6 8q0 19 5.5 36t13.5 33q2 8 3.5 16.5t3.5 16.5q5 26 10.5 51t13.5 50q0 1 2 1v-2q-5 -26 -9 -51
t-7 -51q-1 -1 -1 -2v-1q8 13 19 25.5t23 23.5q8 8 16.5 13.5l17.5 11.5l20 10t21 7t23 0q14 -3 21 -15q4 -11 4 -22q0 -5 -0.5 -10.5t-1.5 -10.5q0 -1 -2 -1l-1 1q0 11 -2 20.5t-7 15.5z" />
    <glyph glyph-name="s" unicode="s" horiz-adv-x="226" 
d="M210 90q5 -11 6 -25q3 -14 -3 -28q-7 -14 -20 -22q-5 -4 -11.5 -6.5l-11.5 -4.5q-22 -5 -47 -7q-24 -2 -46.5 0t-45.5 5q-1 0 -1 1t1 1q23 2 45 4.5t45 5.5q22 4 42 12q10 4 17 9t9 12q4 6 2.5 15t-4.5 19l-9.5 19.5t-10.5 19.5q-5 10 -11 19.5t-11 20.5q-3 5 -5 10.5
l-4 10.5l-32 -47.5t-35 -45.5q-11 -14 -23 -27.5t-25 -24.5q-14 -12 -28.5 -22t-31.5 -16q-2 0 -2 1t1 2q16 6 30 17t26 22q12 13 23 26.5l22 27.5q21 29 39.5 58.5t35.5 59.5q4 7 12 4q4 -4 3 -10q-1 -8 2.5 -17.5t8.5 -19.5q5 -9 11 -18.5t13 -19.5q11 -16 24 -41z" />
    <glyph glyph-name="t" unicode="t" horiz-adv-x="156" 
d="M123 222l14 -4t14 -7q1 -1 1 -2l-1 -1q-13 -8 -29 -10q-7 -2 -14 -0.5t-14 3.5t-14 3l-14 2q-7 2 -13.5 4.5t-12.5 5.5q-5 -17 -6 -33q-4 -17 -6.5 -33t-2.5 -33q-1 -16 -0.5 -32t4.5 -30q4 -15 13 -25.5t24 -13.5t31.5 -2t33.5 5l1 -1l-1 -1q-15 -8 -31.5 -13.5
t-35.5 -3.5q-21 0 -37 14q-8 7 -13 15.5t-8 17.5q-6 18 -6.5 36.5t1.5 35.5t5.5 34t7.5 34q8 34 19 66t24 64q11 32 24.5 63.5t24.5 63.5q1 0 1 0.5t1 0.5q1 -1 1 -2q-10 -33 -21 -65t-21 -65q-8 -23 -14.5 -47t-11.5 -48h13t13 1q8 0 14.5 0.5t13.5 0.5q7 1 13.5 2.5
t14.5 -0.5z" />
    <glyph glyph-name="u" unicode="u" horiz-adv-x="246" 
d="M250 21l1 -1l-1 -1q-8 -3 -17 -6t-17 -5q-19 -6 -37 -5q-11 1 -20.5 4.5t-17.5 11.5q-13 13 -16 33l-5.5 -9t-5.5 -8l-10 -11.5t-11 -10.5q-7 -5 -14.5 -8t-15.5 -4q-8 0 -15.5 1t-15.5 5q-17 5 -22 24q-2 8 -1.5 15.5t1.5 15.5q2 15 7 27q4 14 8.5 27t9.5 26l4 13.5
l4 13.5q1 7 1.5 13.5t-0.5 12.5q-5 4 -15 4q-9 0 -16 -4q-18 -8 -26 -24h-1q-1 0 -1 1q10 20 26 27q10 5 18 5q13 0 19 -6l1 -1q2 -8 1.5 -15t-1.5 -14q-1 -14 -6 -28q-4 -14 -8 -26.5t-8 -26.5t-5.5 -27.5t1.5 -24.5t15 -15t25 -3q11 1 20.5 9t16.5 19q8 11 13.5 23.5
l10.5 24.5l3 9q2 8 4 15t4 15l9.5 23.5t9.5 22.5q3 5 5.5 10t7.5 10q0 1 1 1q2 5 7 5.5t8 -1.5q8 -8 4 -16l-16 -31t-15 -32q-5 -17 -9 -33.5t-3 -33.5q0 -17 9 -27q9 -11 27 -14q17 -3 34.5 -1t35.5 6z" />
    <glyph glyph-name="v" unicode="v" horiz-adv-x="210" 
d="M202 197q1 1 2 1q0 -1 0.5 -1t0.5 -1q-4 -31 -12.5 -61.5t-22.5 -59.5q-8 -14 -18 -27.5t-23 -24.5q-8 -7 -15 -10q-10 -5 -15 -7q-18 -7 -34 -8q-8 -1 -17.5 0t-18.5 6t-15 13t-9 17q-5 18 -3 34.5t7 32.5q9 31 30 57l9 12q-4 -2 -7.5 -2.5t-7.5 -2.5q-16 -4 -32 -5.5
t-32 -1.5l-1 2q0 1 1 1q16 0 31.5 2.5t30.5 7.5q10 3 19 7t17 9q5 3 10 6.5t11 5.5q4 3 7 -2q2 -3 -2 -7h-1q-26 -15 -42.5 -40t-24.5 -54q-4 -14 -5 -29t4 -26q5 -13 15 -17q10 -5 24 -2q15 2 27 7q3 2 7 3t6 3t5 3.5t6 3.5q22 19 37 44q16 26 28 54t23 57z" />
    <glyph glyph-name="w" unicode="w" horiz-adv-x="346" 
d="M260 29q-12 -11 -27 -19.5t-32 -10.5q-4 -2 -8 -2h-9q-4 1 -8 1t-9 1q-8 2 -16.5 5t-16.5 11t-11 17.5t-3 18.5q0 2 0.5 4.5t0.5 4.5l-10 -12t-11 -11q-11 -11 -22.5 -21t-28.5 -15q-4 -1 -8 -1.5t-9 0.5q-9 0 -15 3q-18 7 -23 23q-7 16 -6 31.5t6 30.5q7 27 20 56
q8 13 15 26t17 24q0 2 2 0v-1q-9 -11 -16 -24.5t-13 -27.5q-6 -13 -11 -27t-7 -28q-4 -14 -4.5 -29t4.5 -27q6 -12 19 -17q4 -1 7 -1.5t6 -0.5q6 -1 13 2q13 4 23.5 13t20.5 19q18 21 36 47q3 5 6.5 9.5t5.5 9.5q9 18 20 34.5l22 32.5q6 8 10 12q0 1 1 1l1 1q4 9 13 2
q8 -6 1 -13l-32.5 -51t-24.5 -53q-5 -14 -5 -26t7 -19q5 -6 21 -10q4 -1 14 -1q5 -1 13 0q13 2 25 8t23 15t21 20t19 23q8 12 15 25l15 27q14 26 23 55q0 1 2 1q1 0 1 -2q-6 -30 -17 -58.5t-26 -56.5q-9 -14 -18.5 -26t-21.5 -23z" />
    <glyph glyph-name="x" unicode="x" horiz-adv-x="282" 
d="M62 32q11 5 21 12t18 15q0 1 4 5q-4 21 2 45q2 11 5.5 20.5t9.5 18.5q-5 11 -10.5 21t-16.5 15q-10 4 -21.5 -0.5t-22.5 -11.5q-11 -8 -21 -17t-20 -17q0 -1 -0.5 -1t-0.5 1q-1 0 -1 1q18 23 38 38q10 10 23 15q14 8 30 5q8 -3 14 -8t11 -11q3 -4 8 -14q7 9 16 17t20 12
q14 6 27.5 5t25.5 -7q22 -10 41 -30v-2q-1 -1 -2 -1q-16 16 -42 26q-24 8 -45 -1q-21 -12 -32 -34l-2 -4q4 -12 5 -24t0 -25q-3 -21 -13 -38q6 -21 21 -33q8 -5 18.5 -7.5t22.5 -2.5q11 0 23.5 2.5t25.5 5.5q1 0 2 -1l-1 -1q-21 -15 -47 -24q-14 -3 -29 -2t-28 10
q-19 10 -27 30q-19 -19 -41 -26q-26 -11 -55.5 -9t-52.5 19h-1q1 1 2 1q26 -5 51 -1.5t47 13.5z" />
    <glyph glyph-name="y" unicode="y" horiz-adv-x="240" 
d="M248 195q3 5 8 5t8 -4q5 -2 5 -6.5t-2 -8.5h-1q-4 -5 -6.5 -9.5l-5.5 -9.5q-4 -6 -7.5 -13t-6.5 -15q-13 -20 -26 -48l-14 -24.5t-17 -23.5q-2 -2 -4.5 -5t-5.5 -7l-24 -42l-24 -44q-17 -30 -36 -60t-40 -59q-20 -29 -43 -56t-50 -50q-27 -24 -59.5 -40.5t-67.5 -24.5
t-70.5 -7.5t-69.5 10.5q-35 10 -65 29.5t-51 49.5q-20 29 -28 64.5t-4 69.5q0 1 3 1v-1q-3 -34 5 -68.5t29 -62.5q20 -28 50 -46.5t63 -26.5q68 -18 136 0q35 7 64.5 23.5t55.5 39.5t47.5 49t41.5 55t37.5 59.5l33.5 60.5l15 27l15 28l-2 -1q-17 -7 -31 0q-11 2 -16.5 8
t-10.5 14q-8 14 -10 27.5l-4 27.5l-4 27.5t-4 25.5l-3.5 14.5t-3.5 11.5q-7 14 -17 15q-8 0 -17.5 -1.5t-15.5 -9.5q-6 -7 -7.5 -16.5t-1.5 -19.5q0 -2 -2 -2l-1 2v10t1 11q2 10 7 19q2 5 7 8t10 5q5 1 10.5 1.5t9.5 1.5h1q11 -2 16 -7q7 -6 10 -12q4 -7 5.5 -13l3.5 -14
q2 -14 4.5 -27.5t5.5 -26.5q2 -14 5.5 -26.5t9.5 -22.5q8 -11 15 -13q12 -5 23 0q7 3 13 7.5t12 9.5l9.5 17.5l9.5 17.5l28.5 51.5t31.5 49.5q5 12 13 21h1v0z" />
    <glyph glyph-name="z" unicode="z" horiz-adv-x="186" 
d="M408 62q2 -5 3 -10t1 -9q0 -11 -2 -21t-7 -18q-5 -9 -9 -17t-11 -16q-4 -4 -7.5 -7t-8.5 -5l-5 -4q-1 -1 -4 -3q-2 -1 -4.5 -1.5t-4.5 -2.5q-10 -3 -18 -6.5t-18 -4.5q-40 -6 -76 0q-20 2 -37 10t-34 17l-32.5 18l-30.5 17t-31 15t-31 10q-15 4 -30 -1q-2 -5 -5 -5
q-5 -5 -9 -9.5t-9 -9.5q-2 -2 -6 -2.5t-7 2.5q-5 6 -2 11v2q5 6 11.5 13t15.5 12l32 35l33 37l40.5 40t43.5 38q-20 -2 -37 -2t-35 1q-46 2 -84 19q-2 0 -2 1v1l1 1h1q20 -10 40.5 -13.5t43.5 -3.5q47 -2 86 10q7 0 7 -6q0 -2 -2 -4q-38 -33 -70.5 -70l-67.5 -74q9 0 13 -2
q20 -2 37.5 -9.5l34.5 -15.5l31.5 -16.5t32.5 -16.5q8 -5 15.5 -8t16.5 -7q15 -7 30 -8q34 -6 68 -3q8 2 16 3.5t16 4.5q3 0 4.5 1t3.5 2l3 2l4 2q8 4 13 10q11 10 20 25t11 32q1 7 -2 14t-9 10q-8 4 -16.5 3.5t-16.5 -0.5h-3v2q10 3 19 4t20 -2q7 -3 16 -12z" />
    <glyph glyph-name="zero" unicode="0" horiz-adv-x="405" 
d="M357 625q23 -45 34 -100q4 -20 4 -41t-2 -43q-2 -23 -6.5 -45l-9.5 -45q-12 -47 -28.5 -93.5t-38.5 -94.5q-11 -23 -23.5 -46t-29.5 -43q-7 -11 -16 -20t-20 -17q-21 -17 -46 -24q-26 -8 -50 1q-12 5 -22 12.5t-18 17.5q-16 20 -26.5 43.5t-18.5 47.5q-14 50 -19.5 99
t-6.5 96q0 47 5 89.5t14 80.5q10 38 23.5 69t31.5 53q18 20 38 29q9 5 17.5 6.5t15.5 1.5q5 1 7.5 0t1.5 -1l-8 -2q-27 -1 -49 -19q-11 -8 -19 -18.5t-16 -22.5q-14 -24 -23 -51t-15 -55q-12 -56 -14.5 -112.5t2.5 -113.5q2 -29 7 -56.5t13 -54.5t18.5 -52.5t27.5 -45.5
q18 -23 38 -29q11 -5 23 -4t23 5q24 10 44 28q10 7 18 17.5l16 21.5q15 23 27 48.5t23 51.5q21 51 36 107q14 53 22 111q4 27 4.5 54.5t-4.5 52.5q-5 26 -16.5 55.5t-30.5 57.5q-17 27 -41 50.5t-51 35.5q-26 12 -54 10q-14 -2 -24.5 -6t-19.5 -9q-17 -11 -26.5 -18
t-11.5 -4q-7 -9 -6 -4q0 1 1 2l2 4q8 14 19.5 26t25.5 20q30 19 63 16q32 -2 57 -16t45 -32q38 -35 63 -82z" />
    <glyph glyph-name="one" unicode="1" horiz-adv-x="138" 
d="M104 753q2 -2 2 -4q3 -48 1.5 -95.5t-6.5 -95.5t-11 -94.5t-13 -94.5q-7 -47 -11 -93.5t-9 -92.5q-2 -23 -5.5 -52.5t-8.5 -54.5q-4 -26 -8 -44t-12 -18q0 -2 -0.5 -3t-0.5 0q-2 2 -2 3q-6 24 -6.5 45.5t2 42.5t6 41.5t6.5 41.5l27 150l16 85.5t15 85.5q6 42 9.5 80.5
t5.5 70.5t2 55.5v35.5v4q0 1 1 1z" />
    <glyph glyph-name="two" unicode="2" horiz-adv-x="342" 
d="M865 -238q28 8 44 11t17 -1q11 5 9 2q-2 -1 -4 -2.5t-4 -2.5q-39 -20 -78 -33.5t-79 -21.5q-81 -14 -157 1q-38 8 -72 21.5t-66 30.5l-65.5 37t-64.5 40q-11 6 -21 12.5l-20 13.5l-20 12.5l-21 13.5q-22 14 -44.5 25.5t-48.5 22.5q-51 21 -108 27q-14 0 -28 -0.5
t-30 -3.5q-27 -5 -53 -19q-8 -3 -13.5 -6.5l-11.5 -7.5l-6 -3l-1 -2v2l3 4q1 2 3 5t4 7q8 13 16.5 24.5l17.5 23.5q8 11 18 22.5t21 22.5l22.5 21.5l22.5 21.5q45 42 93 81.5t93 83.5q45 43 84 92t65 106q14 27 22 56t11 58q8 61 -3 118q-2 14 -6 27.5t-9 26.5
q-11 29 -29 48q-10 9 -23.5 15t-27.5 5q-15 -2 -27 -7t-23 -11q-22 -15 -38.5 -32.5t-30.5 -36.5q-14 -20 -24.5 -38.5t-19.5 -37.5q-17 -39 -24.5 -75t-0.5 -68q4 -16 13 -28t20 -19q11 -6 21.5 -8t19.5 -3q16 0 14 -1q-1 0 -5 -1t-10 -1q-11 1 -22 3.5t-23 8.5
q-20 13 -28 37q-9 22 -8 45t6 44q10 43 29 82t45 75q14 17 29.5 32.5t34.5 28.5t43 18q26 5 50 -10q11 -7 19 -16t15 -18q5 -11 9 -21.5t9 -21.5q7 -20 10.5 -42t5.5 -43q3 -45 -3 -89t-22 -86q-17 -41 -40.5 -78t-50.5 -70q-57 -67 -121.5 -123l-125.5 -114
q-23 -21 -44 -44q-6 -5 -11 -10.5l-10 -11.5l-10 -11l-1 -2l-1 -2q-5 -5 -8 -13l-2 -2v-1l1 1l6 4q2 0 3.5 1t3.5 2h2h1l1 1l2 1q14 4 28.5 5t28.5 1q61 -2 112 -21q28 -10 53 -21t50 -25l23.5 -14t22.5 -15l24 -14q5 -4 10.5 -7t11.5 -7l78 -46t88 -45q23 -10 46 -17.5
t47 -13.5q24 -5 47.5 -7.5t46.5 -2.5q47 2 85.5 9.5t66.5 14.5z" />
    <glyph glyph-name="three" unicode="3" horiz-adv-x="503" 
d="M74 3q-9 5 -17.5 12.5t-16.5 19.5q-13 18 -18.5 40t-5.5 42q-1 22 3 41t9 36q11 32 22 50.5t18 15.5q0 2 1 3.5t2 -0.5q0 -3 -1 -4q-5 -31 -10.5 -58t-8.5 -52q-3 -24 -1 -48.5t16 -45.5l1 -2l-1 1q5 -12 24 -22q20 -14 46.5 -22t55.5 -13t61.5 -5.5t64.5 4.5
q16 2 32.5 6t33.5 11q16 8 28 20q13 12 21 27q17 32 23 65.5t8 66.5q2 67 -8.5 126.5t-29.5 107.5q-19 47 -45 76q-16 17 -35 24q-12 -8 -27 -10q-11 -3 -22.5 -2.5t-21.5 2.5q-20 5 -31.5 12t-9.5 15q-3 2 -2 3q1 0 2 1q17 2 30 1l25 -2q14 0 27 2t24 10q9 5 18 14t14 21
q5 13 8 28t2 29q-2 32 -15.5 62t-37.5 51q-12 10 -26.5 16t-29.5 5q-15 0 -28 -5t-22 -13q-19 -14 -29 -28t-15 -22q-1 -1 -4 -1v1q0 1 1 2q9 15 20 29.5t25 25.5q8 6 16.5 11t19.5 7q19 5 39 0t36 -17t27 -26q25 -33 35 -66q5 -19 7 -38t-1 -39q-2 -20 -12 -39t-27 -33
q-2 -1 -4.5 -2.5t-5.5 -3.5q9 -1 18 -9q16 -11 29 -28q11 -15 19.5 -32t16.5 -35q15 -35 23.5 -71.5t13.5 -74.5t5 -76t-8 -76q-4 -19 -9.5 -38t-14.5 -36q-6 -11 -11 -18l-7.5 -9t-8.5 -8q-17 -14 -36 -22q-38 -15 -76.5 -20t-77.5 -4q-41 0 -76 7q-20 5 -38.5 10.5
t-38.5 15.5z" />
    <glyph glyph-name="four" unicode="4" horiz-adv-x="358" 
d="M13 281q3 20 9.5 36t15.5 30l18.5 27.5t18.5 28.5q29 43 65 102t65 120q15 31 26 60t19 54q6 24 8.5 43t3.5 28v3q0 1 1 1t1 -4q1 -39 -9 -76.5t-23 -72.5q-14 -36 -30 -70l-33 -68l-33 -68t-34 -66q-9 -17 -21.5 -36l-24.5 -36t-22.5 -28t-17.5 -9q-1 -2 -3 -2v3z
M315 255v-1q-20 -7 -36.5 0t-33.5 10q-6 2 -10 2q-1 -4 -5 -12q-11 -25 -23 -48t-23 -47q-11 -23 -19.5 -47t-17.5 -47l-9.5 -25.5l-10.5 -28.5q-6 -14 -11.5 -24t-13.5 -10q0 -1 -1 -2v-1q0 1 -0.5 1t-0.5 1q-5 14 -4.5 27t4.5 25q3 12 8 23l10 23l19.5 36l21.5 39l25.5 41
l23.5 41q5 10 10 19l10 18q-26 5 -56.5 7t-59.5 1q-35 -2 -62.5 -4.5t-36.5 -1.5q-2 0 -2 1t2 1q19 5 38 7t38 5q20 2 39.5 3.5t39.5 3.5q18 2 36 3.5t36 0.5q1 5 5 13q7 17 10.5 29.5l5.5 19.5q0 1 1 2h1l1 -2q-6 -32 -18 -62q10 -1 22 -4.5t22.5 -8.5t17.5 -11.5t7 -14.5
v-1z" />
    <glyph glyph-name="five" unicode="5" horiz-adv-x="425" 
d="M378 632q11 -10 17 -19.5t3 -17.5v-2h-2q-23 5 -40.5 16.5t-39.5 20.5q-33 14 -79.5 26.5t-87.5 32.5q-41 21 -65 47q-11 14 -16.5 25l-8.5 17q-2 2 1 2q3 1 3 -1q11 -22 27.5 -39.5t38.5 -28.5q20 -12 43.5 -19.5t49.5 -13.5q24 -5 49 -8t51 -10q13 -5 28 -11.5
t28 -16.5zM347 361q18 -35 31 -72.5t19 -75.5l2 -21t0 -21q0 -5 -0.5 -10t-0.5 -10q-2 -6 -3.5 -11t-2.5 -10q-5 -20 -15 -38t-24 -35q-27 -32 -61 -54.5t-74 -34.5q-20 -7 -40.5 -10t-43.5 0t-45 17q-17 14 -31 31q-14 16 -25 37.5t-17 45.5q-9 51 0 95q5 22 14 38t17 26
t15.5 13.5t9.5 -0.5q4 4 4 2q0 -1 -0.5 -1t-0.5 -1l-1 -1q-17 -29 -23.5 -58.5t-6.5 -59.5q1 -30 9 -60t28 -56q6 -10 17 -19q4 -7 10 -9q4 -4 10 -7q13 -6 27.5 -8t29.5 0q31 2 62 13.5t60 31.5q27 20 50 47.5t34 62.5q5 17 6 35t-1 36q-2 17 -6 33.5t-9 32.5
q-9 33 -22.5 63.5t-31.5 56.5q-8 14 -18.5 25.5t-24.5 19.5q-13 7 -27.5 8t-28.5 -2q-13 -4 -23.5 -10l-21.5 -12q0 -1 -1 -1q1 -22 -2.5 -41t-14.5 -21q0 -4 -2 -2l-1 1q-11 19 -11 42l-1 -1q-15 -11 -27.5 -18.5t-20.5 -11.5q-6 -3 -6 -1q0 3 5 3q13 8 25 16.5l25 18.5
v21.5t-1 21.5q0 36 -8 82.5t-20 91.5q-11 45 -25.5 78.5l-19.5 45.5q-1 1 0 2q2 0 2 -1q13 -23 23.5 -46t20.5 -49q9 -24 16.5 -48.5l14.5 -49.5l14 -49t12 -49q1 -7 1.5 -13.5t0.5 -14.5q11 7 23.5 13t27.5 9q23 6 44 -3q2 -1 4.5 -2t4.5 -2q4 -2 5.5 -2.5t4.5 -2.5l9 -7.5
t8 -6.5q15 -15 25 -31.5t19 -34.5z" />
    <glyph glyph-name="six" unicode="6" horiz-adv-x="324" 
d="M299 184q-3 -43 -16 -83q-6 -14 -13.5 -29.5t-18.5 -29.5t-26 -26t-34 -15q-20 -4 -38.5 3t-34.5 18q-30 23 -57 56q-25 33 -36.5 73t-10.5 82q0 42 8.5 83t22.5 79q26 77 59.5 143.5l62.5 121.5l50 96t30 61l5 6q1 -1 -2 -7q-38 -85 -81 -164.5t-79 -164.5
q-17 -42 -32 -84t-23 -86q-9 -45 -8.5 -88t15.5 -84q17 -41 46 -71q14 -16 31 -28q18 -13 34 -19q36 -13 63 14q14 12 23 30.5t16 38.5t10.5 44t1.5 50q-2 25 -12 47t-31 30q-10 4 -21 4.5t-21 -1.5q-11 -2 -20 -4.5t-17 -4.5q-32 -10 -34 -5q-8 -4 -6 -2q1 3 4 4
q19 15 40.5 26t47.5 14q12 2 25 0t25 -9q23 -12 35 -35q11 -21 14 -42.5t3 -41.5z" />
    <glyph glyph-name="seven" unicode="7" horiz-adv-x="375" 
d="M475 667l-13 -23l-27.5 -45l-27.5 -44q-54 -84 -112 -162.5l-114 -157.5h9.5t9.5 -1q7 -1 16.5 -5t17 -10t12.5 -13.5t4 -15.5v-2q0 -1 -1 -1q-8 -2 -14 -0.5t-12 4.5t-12 6.5t-13 5.5q-7 3 -15.5 5.5t-17.5 4.5q-8 -11 -14.5 -21.5t-14.5 -21.5l-33.5 -52.5l-35 -58.5
l-34 -60.5t-29.5 -58.5q-14 -29 -24 -55t-18 -44.5t-13.5 -29t-9.5 -8.5q-1 -5 -2 -6.5t-1 0.5v7q8 60 25.5 111.5t40.5 96.5q23 46 51 88l57 87q5 8 11 15.5t11 15.5q-9 1 -18 1.5t-17 1.5q-27 2 -48 3t-29 3l-1 2q1 1 2 1h30t29 1l59 2q2 1 5 1l75.5 98l83.5 107
l52.5 71.5l52.5 74.5l25 38.5t23 38.5l12 20l12 22l12 23.5l12 23.5q-8 -1 -17 -2t-18 -3l-34 -7l-58 -12q-29 -6 -58 -11t-58 -7q-29 -3 -56 -3.5t-53 4.5l-13.5 2t-12.5 3l-12 4t-13 5q-14 6 -29 16.5t-27 20.5h-2l2 -4l3 -7l7 -15l5.5 -15t4.5 -14q2 -3 2.5 -6.5
t1.5 -6.5q1 -4 1 -7t1 -5q1 -6 1.5 -11.5t1.5 -10.5q2 -21 2 -40.5v-36.5l-3.5 -63t-1.5 -44q0 -5 -0.5 -8t-1.5 -2t-1 10q0 35 2 69.5t1 69.5l-2 33.5t-4 33.5q-1 2 -3 10q-1 3 -1 6t-2 6q-2 7 -4.5 13.5t-5.5 13.5l-13 30l-7 14q-2 4 -3.5 7.5t-0.5 3.5l17.5 -13l19.5 -15
l19 -13t17 -10q4 -2 8 -3.5t8 -3.5q3 -1 11 -3q5 -2 10.5 -3l11.5 -2q23 -4 46 -4.5t47 1.5q32 2 63 7.5t63 12.5l64 14l19 4l26 5l51 9l-18 -38.5t-20 -37.5z" />
    <glyph glyph-name="eight" unicode="8" horiz-adv-x="489" 
d="M298 423q32 -9 60 -25t48 -39q30 -32 45.5 -72.5t15.5 -83.5q0 -33 -9.5 -68.5t-31.5 -67.5t-55 -55t-74 -34q-39 -11 -81.5 -9.5t-83.5 11.5q-20 6 -38.5 15t-34.5 22q-31 31 -43 69q-13 38 -10.5 78t14.5 74q22 71 67 119q17 18 35.5 30t36.5 19q-26 15 -44 38
q-10 13 -16 28.5t-9 32.5q-2 16 -1 32.5t5 31.5q8 32 22 60.5t31 51.5q18 23 38 42t43 30q20 11 42 13q20 0 33 -13q12 -12 15 -25.5l5 -22.5v-5q-1 0 -3 5q-3 17 -11 32.5t-22 20.5t-30.5 0.5t-31.5 -12.5q-29 -19 -52.5 -47t-40.5 -58q-17 -31 -26 -65.5t-4 -66.5
q3 -16 9.5 -31t17.5 -28q22 -27 50 -36q4 -2 11 -2h12t11 -2q11 2 20.5 4.5t18.5 5.5q-10 5 -8 10q-3 1 -5 1t1 1q0 2 4 0q7 0 13 -0.5t12 -1.5q17 8 27 20q26 23 46 50.5t34 58.5q5 17 11 35.5t8 38.5q2 21 -1 41.5t-11 37.5t-18 30.5t-19 24.5q-8 9 -12.5 16t-2.5 9
q-5 5 -3 5q3 0 5 -1q18 -8 34.5 -19.5t27.5 -27.5q14 -15 20.5 -32t10.5 -35q6 -35 -1 -68t-21 -65q-11 -23 -27.5 -47t-37.5 -45q-9 -9 -19.5 -17.5t-21.5 -16.5zM437 201q0 43 -23 91q-11 23 -29.5 42.5t-38.5 34.5q-20 14 -39 24t-34 16q-5 -3 -12 -5.5t-14 -5.5v-1h-2
q-4 0 -7.5 -1t-7.5 -2q-17 -2 -33.5 -0.5t-30.5 8.5l-2 1l-8 -4q-20 -7 -37 -21t-32 -31q-29 -33 -47 -74.5t-24 -86.5q-2 -21 -1 -43.5t7 -42.5q10 -41 43 -71q15 -14 34 -23t40 -15q11 -2 22 -3l22 -2q11 -2 22 -2h23q43 2 83 18t69 47q29 30 44 70t13 82z" />
    <glyph glyph-name="nine" unicode="9" horiz-adv-x="401" 
d="M368 386q-4 -75 -18 -149q-8 -39 -19 -76t-29 -73l-21 -34.5t-28 -31.5q-8 -8 -16 -13.5l-17 -11.5l-16.5 -10.5t-18.5 -10.5q-20 -7 -41.5 -11t-44.5 -1q-23 5 -43 16.5t-35 28.5q-14 17 -23 39.5t-14 45.5q-5 25 -4.5 48.5t6.5 44.5q5 23 12 39t14 26q21 22 25 15
q4 8 4 4l-2 -5q-26 -59 -26 -121q-1 -30 5.5 -60t26.5 -56q8 -10 17 -18t22 -13q14 -6 28 -8t29 -2q28 6 60 21l27 17t25 21q25 25 40 56t27 64q11 34 17.5 68.5t11.5 67.5q10 66 13.5 127.5l6.5 113.5q1 16 1 30t2 27q-5 -14 -13.5 -25.5l-17.5 -23.5q-17 -22 -38 -40.5
t-47 -32.5q-19 -11 -42 -19.5t-49 -8.5q-13 0 -26 3t-24 11t-19 19t-13 25q-12 54 3 111q8 26 21.5 50.5t32.5 44.5q39 41 85 60q23 9 45.5 9.5t40.5 -7.5q19 -8 31 -22t19 -27t10 -24l5 -18q0 -2 0.5 -2.5t0.5 -1.5v-1q-4 0 -4 3q-5 15 -10.5 28.5t-13.5 25.5
q-8 11 -19.5 20t-24.5 14q-26 8 -54.5 1.5t-52.5 -22.5q-25 -15 -45 -37t-34 -47.5t-21 -54t-5 -56.5q1 -15 4.5 -28.5t8.5 -24.5q10 -20 34 -26q11 -3 23.5 -2t25.5 5l26 10.5t25 14.5q24 14 50.5 39t45.5 53q14 20 23.5 37.5t16.5 25.5q1 8 1.5 15.5t1.5 11.5q0 7 2 7
q2 -2 2 -6q-1 -6 -1.5 -12t-1.5 -13q0 1 2 1.5t4 -0.5q1 4 2 4v-4q-3 -29 -10 -48q-2 -20 -1.5 -39t-1.5 -39q-1 -38 -2.5 -76t-4.5 -76z" />
    <glyph glyph-name="A" unicode="A" horiz-adv-x="898" 
d="M1459 973q6 0 8 -6q1 -5 0.5 -6.5t-0.5 -3.5q-2 -4 -2 -6q-2 -2 -2.5 -4.5t-2.5 -4.5q-2 -5 -4.5 -8.5t-4.5 -7.5l-10.5 -16l-10.5 -16l-21.5 -30.5l-21.5 -30.5l-45 -59.5l-45 -58.5l-90.5 -118l-91.5 -117l-182 -235q-1 -2 -2 -2.5t-2 -2.5h16t16 -1l208 -3l1 -1l-1 -1
q-62 0 -123 -1t-123 -1l-40 -52.5l-40 -52.5l-43 -60t-40 -62q-5 -6 -11 -3q-6 4 -4 9q6 17 10.5 33.5t8.5 33.5q5 17 8 34l6 34q2 17 3.5 34t-0.5 34q-2 12 -4 20h-24q-2 0 -3 1q-6 4 -9 7q-6 6 -6 13t6 13q2 3 4.5 4.5t4.5 3.5q1 1 4 1q20 -6 30 -26q1 -2 1.5 -3.5
t1.5 -3.5q30 -1 59.5 -1.5t59.5 -1.5l12 15l90.5 118.5l91.5 117.5l90.5 117l91.5 117l45 59.5l44 59.5l22 30l22 30l9.5 13.5t9.5 14.5q-53 -17 -118.5 -62.5t-136.5 -108t-142 -135.5l-135 -143.5l-116.5 -132.5l-84.5 -102q-58 -73 -120 -124t-123 -83t-118 -45.5
t-106 -10.5q-52 3 -89 20.5t-62 44.5l-1 1q-33 27 -52 66q-18 39 -22.5 81.5t1.5 84.5q5 43 21 81q8 20 19 37.5t24 34.5q26 32 60.5 57.5t73.5 40.5q36 13 71 17h6q4 1 10 1q8 0 12 1h6h8.5t8.5 -1h2q65 -3 137 -34h-3q30 -13 62 -32v-1q0 -1 -1 -1q-38 22 -78 39
q-71 16 -135 6t-116 -37.5t-89 -67t-55 -80.5q-11 -27 -18 -58.5t-7.5 -64.5t5.5 -65.5t20 -61.5q15 -21 34 -37q31 -25 73 -36q40 -11 81 -9.5t81 12.5q41 10 78.5 26.5t72.5 38.5t68 47.5t62 54.5q15 14 29 29.5l28 31.5l25.5 32t26.5 32l108.5 127.5l111.5 124.5l116 120
t122 115l64.5 53.5t67.5 49.5q35 25 73 42q20 9 40 16t43 8h1zM773 245v1q-7 13 -19 18q-8 -5 -7 -9q0 -3 2 -5q4 -4 6 -5h18zM829 137l35.5 48l35.5 47q-27 0 -54.5 0.5t-55.5 1.5q3 -11 3 -19q2 -18 1.5 -36t-2.5 -35q-2 -18 -5.5 -35.5t-7.5 -34.5q-1 -4 -2 -7.5t-2 -7.5
z" />
    <glyph glyph-name="space" unicode=" " horiz-adv-x="149" 
 />
    <glyph glyph-name="period" unicode="." horiz-adv-x="174" 
d="M98 125l2 -2t1 -4q0 -9 -5.5 -11t-10.5 -3q-7 0 -9 5q-1 5 1 12q2 4 6 5t7 1q5 2 8 -3z" />
    <glyph glyph-name="parenleft" unicode="(" horiz-adv-x="283" 
d="M230 27q4 0 4 4q0 5 -4 3q-10 0 -12 -11q-2 -5 5 -10q2 -5 5.5 -6.5t8.5 -1.5q3 -2 6.5 -1t8.5 2q5 5 7 15q5 7 6 15l2 16q0 34 -22 62q-22 25 -54 40q-32 10 -65 8q-16 -2 -31.5 -9t-27.5 -16q-28 -22 -40 -53q-10 -31 -1 -67q5 -14 12 -29t18 -29q11 -11 25.5 -20
t31.5 -11q15 -3 30.5 2.5t26.5 19.5q11 9 15 24q4 16 -1 31q-7 13 -22 21.5t-29 10.5q-15 5 -30.5 -2t-26.5 -18q-13 -9 -24 -22.5t-20 -27.5l-20 -27t-22 -26q-36 -47 -92 -76q-26 -14 -55 -22t-58 -10q-31 -3 -61 1t-58 13q-27 9 -53.5 24t-50.5 37q-45 38 -74 91.5
t-36 114.5q-5 30 -0.5 61t16.5 58q14 27 37.5 50t51.5 36l13.5 5l13.5 5q8 2 15 4t15 4q33 5 62 -4q30 -8 55.5 -28.5t41.5 -46.5q16 -27 24.5 -56t8.5 -61q1 -28 -6 -58t-27 -55q-21 -26 -46 -42l-29 -10t-31 -7q-33 -5 -59 13q-14 8 -24 20t-17 26q-15 26 -20.5 55.5
t-2.5 57.5q1 9 2 15.5t3 14.5q3 8 6.5 14.5t9.5 12.5q5 5 12 9t15 4q14 -4 27 -14v-1h-2q-12 8 -25 9q-8 2 -14 -1t-11 -8q-8 -11 -11 -26t-4 -29q-2 -14 -0.5 -28t5.5 -30q2 -12 7 -25.5t10 -25.5l19.5 -22t20.5 -17q25 -15 53 -10q27 2 51.5 17t40.5 36q16 23 22.5 50.5
t6.5 54.5q-1 29 -9 56.5t-23 50.5q-16 24 -37.5 41.5t-48.5 22.5q-13 5 -26 5.5t-27 -1.5q-7 -1 -13 -3l-12 -4q-8 -1 -14.5 -3.5t-12.5 -5.5q-26 -13 -46.5 -31.5t-31.5 -43.5q-14 -26 -17 -53.5t-1 -54.5q8 -57 35 -108t69 -90q22 -20 46.5 -33.5t50.5 -23.5
q27 -10 55.5 -14t58.5 -1q57 3 108 30q26 13 48 31t39 40v2q25 24 44.5 51.5t45.5 52.5q7 5 13 10t16 8q9 4 17 4.5t19 -0.5q13 0 17 -6q4 -2 8 -3t8 -5q8 -5 13.5 -11t10.5 -16q9 -15 4 -37q-3 -9 -8 -16t-10 -13q-14 -14 -31.5 -19.5t-34.5 -2.5q-20 2 -34 12t-25 23
q-11 14 -20 28.5t-13 33.5q-9 36 2 68q12 32 42 56q25 21 63 24q17 4 34 1t34 -9q14 -7 29 -17t26 -24q9 -14 15 -29.5t5 -34.5q0 -17 -6 -32q-3 -5 -4.5 -9t-5.5 -6q-5 -3 -9 -3.5t-7 -0.5q-10 1 -18 8q-2 4 -3.5 8.5t1.5 9.5q2 7 13 10q2 0 4.5 -1.5t2.5 -4.5
q0 -2 -1.5 -3.5t-3.5 -4.5h-2v4z" />
    <glyph glyph-name="parenright" unicode=")" horiz-adv-x="286" 
d="M56 23h-2q-2 3 -3.5 4.5t-1.5 3.5q0 3 2.5 4.5t4.5 1.5q11 -3 13 -10q3 -5 1.5 -9.5t-3.5 -8.5q-8 -7 -18 -8q-3 0 -7 0.5t-9 3.5q-4 2 -5.5 6t-4.5 9q-6 15 -6 32q-1 19 5 34.5t15 29.5q11 14 26 24t29 17q17 6 34 9t34 -1q38 -3 63 -24q30 -24 42 -56q11 -32 2 -68
q-4 -19 -13 -33.5t-20 -28.5q-11 -13 -25 -23t-34 -12q-37 -7 -66 22q-5 6 -10 13t-8 16q-5 22 4 37q5 10 10.5 16t13.5 11q4 4 8 5t8 3q4 6 17 6q11 1 19 0.5t17 -4.5q10 -3 16 -8t13 -10q26 -25 45.5 -52.5t44.5 -51.5v-2q17 -22 39 -40t48 -31q51 -27 108 -30
q30 -3 58.5 1t55.5 14q26 10 50.5 23.5t46.5 33.5q42 39 69 90t35 108q2 27 -1 54.5t-17 53.5q-11 25 -31.5 43.5t-46.5 31.5q-6 3 -12.5 5.5t-14.5 3.5l-12 4t-13 3q-14 2 -27 1.5t-26 -5.5q-27 -5 -48.5 -22.5t-37.5 -41.5q-15 -23 -23 -50.5t-9 -56.5q0 -27 6.5 -54.5
t22.5 -50.5q16 -21 40.5 -36t51.5 -17q28 -5 53 10q11 6 20.5 17l19.5 22q5 12 10 25.5t7 25.5q4 16 5.5 30t-0.5 28q-1 14 -4 29t-11 26q-5 5 -11 8t-14 1q-13 -1 -25 -9h-2v1q13 10 27 14q8 0 15 -4t12 -9q6 -6 9.5 -12.5t6.5 -14.5q2 -8 3 -14.5t2 -15.5
q3 -28 -2.5 -57.5t-20.5 -55.5q-7 -14 -17 -26t-24 -20q-26 -18 -59 -13q-16 2 -31 7l-29 10q-25 16 -46 42q-20 25 -27 55t-6 58q0 32 8.5 61t24.5 56q16 26 41.5 46.5t55.5 28.5q29 9 62 4q8 -2 15 -4t15 -4l13.5 -5l13.5 -5q28 -13 51.5 -36t37.5 -50q12 -27 16.5 -58
t-0.5 -61q-7 -61 -36 -114.5t-74 -91.5q-24 -22 -50.5 -37t-53.5 -24q-28 -9 -58 -13t-61 -1q-29 2 -58 10t-55 22q-56 29 -92 76q-12 12 -22 26l-20 27q-9 14 -20 27.5t-24 22.5q-11 11 -26.5 18t-30.5 2q-14 -2 -29 -10.5t-22 -21.5q-5 -15 -1 -31q4 -15 15 -24
q11 -14 26.5 -19.5t30.5 -2.5q17 2 31.5 11t25.5 20q11 14 18 29t12 29q9 36 -1 67q-12 31 -40 53q-12 9 -27.5 16t-31.5 9q-33 2 -65 -8q-32 -15 -54 -40q-22 -28 -22 -62l2 -16t6 -15q2 -10 7 -15q5 -1 8.5 -2t6.5 1q5 0 8.5 1.5t5.5 6.5q7 5 5 10q-2 11 -12 11
q-4 2 -4 -3q0 -4 4 -4v-4z" />
    <glyph glyph-name="less" unicode="&#x3c;" horiz-adv-x="461" 
d="M-91 -115q-2 -3 -4.5 -6t-7.5 -4q-3 -2 -6.5 -2t-8.5 -1q-4 1 -8 1.5t-7 3.5q-4 0 -6 7q-1 3 -2 8q2 5 3 8.5t4 6.5q3 7 11 10q13 7 29 7q8 2 15 1.5t15 -1.5q14 0 30 -8q2 -2 5.5 -4.5t5.5 -5.5q6 -6 6 -16q0 -8 -3 -15t-7 -14q-11 -12 -24 -19.5t-27 -12.5
q-31 -6 -59 7q-14 7 -25.5 18t-16.5 25q-4 8 -4 16v16q5 15 14 27q21 24 50 34q13 6 28.5 9t29.5 5q8 2 15 1.5t15 -1.5q8 -2 15 -3.5t13 -4.5q16 -5 28.5 -12t26.5 -12q52 -22 110 -33q29 -4 57.5 -4.5t57.5 2.5q29 5 55.5 15t49.5 27q22 17 38 41q13 23 14 53
q-2 28 -15 52q-14 25 -36 41q-24 18 -50 24q-14 3 -28.5 4t-28.5 0q-12 0 -25.5 -2.5t-25.5 -8.5q-7 -4 -12 -8l-11 -9q-4 -5 -7 -11t-3 -13q-1 -8 1.5 -14.5t6.5 -13.5q5 -5 9.5 -10t12.5 -9q13 -8 27.5 -10t25.5 3q15 4 22 17q8 13 2 23q-6 12 -20 14q-5 1 -10.5 -0.5
t-11.5 -3.5q-5 -2 -9 -5.5t-5 -9.5q0 -11 8 -15q2 -1 3.5 -1.5t4.5 0.5q2 0 3.5 1t3.5 2q2 3 2.5 5t2.5 4q0 3 -1 3l1 1q-2 3 -6 2l-1 1q-1 0 -1 1q-2 -1 -1 1q-3 -1 -7 -1q2 1 3 0.5t3 1.5q2 -1 5 -1q6 -2 7 -4q1 0 1 -2v-3q0 -5 -3 -8q-2 -2 -4 -4.5t-5 -3.5t-5 -2t-5 1
q-3 1 -5.5 2.5t-4.5 3.5q-9 6 -4 18q2 6 5 9.5t5 5.5q16 9 30 9q8 0 16 -4q7 -4 12 -10q2 -5 3 -8.5t3 -7.5q-1 -5 -2 -8.5t-3 -7.5q-1 -4 -9 -12q-2 -3 -5 -5.5t-5 -4.5q-11 -6 -27 -8q-14 0 -26 3q-25 9 -44 31q-5 10 -8 25q-2 12 3 26q2 6 7 11.5l10 10.5q5 2 10.5 6
t10.5 5q12 7 25 9.5t27 2.5q9 1 19.5 0t21.5 -3q22 -1 43 -12q20 -9 38 -24t29 -36q5 -11 8 -23t5 -24q2 -27 -8 -49q-8 -21 -28 -42q-17 -18 -41 -32q-23 -13 -48.5 -19.5t-51.5 -8.5t-53 -1t-54 6t-52.5 12.5t-49.5 17.5q-13 5 -24.5 11.5t-22.5 11.5q-13 5 -26 8.5
t-26 3.5q-14 1 -26.5 -1.5t-25.5 -5.5l-24.5 -8.5t-22.5 -10.5q-21 -15 -33 -39q-3 -5 -3 -11t1 -13q0 -5 2 -11.5t4 -10.5q6 -12 15 -19.5t20 -13.5q19 -10 43 -10q11 0 21.5 4t19.5 9t17 12t13 18q7 7 5 17l-2 10t-5 8q-5 6 -17 11q-4 2 -8 2.5t-8 2.5q-8 2 -16.5 2
t-16.5 -1q-16 -1 -31 -9q-6 -4 -10 -8q-2 -3 -3.5 -6.5t-1.5 -6.5q-1 -3 -0.5 -7t2.5 -6q5 -6 10 -7q14 -3 21 1q10 5 14 12l1 10q0 -2 0.5 -4.5t-1.5 -7.5z" />
    <glyph glyph-name="greater" unicode="&#x3e;" horiz-adv-x="461" 
d="M552 -115q-2 5 -1.5 7.5t0.5 4.5l1 -10q4 -7 14 -12q7 -4 21 -1q4 1 10 7q2 2 2.5 6t-0.5 7q0 3 -1.5 6.5t-3.5 6.5q-4 4 -10 8q-15 8 -31 9q-8 1 -16.5 1t-16.5 -2q-4 -2 -8 -2.5t-8 -2.5q-12 -5 -17 -11q-4 -3 -5 -8l-2 -10q-2 -10 5 -17q5 -11 13 -18t17 -12t19.5 -9
t21.5 -4q24 0 43 10q11 6 20 13.5t15 19.5q2 4 4 10.5t2 11.5q1 7 1 13t-3 11q-12 24 -33 39q-10 6 -22.5 10.5l-24.5 8.5q-13 3 -25.5 5.5t-26.5 1.5q-13 0 -26 -3.5t-26 -8.5q-11 -5 -22.5 -11.5t-24.5 -11.5q-24 -10 -49.5 -17.5t-52.5 -12.5t-54 -6t-53 1t-51.5 8.5
t-48.5 19.5q-24 14 -41 32q-20 21 -28 42q-10 22 -8 49q2 12 5 24t8 23q11 21 29 36t38 24q21 11 43 12q11 2 21.5 3t19.5 0q14 0 27 -2.5t25 -9.5q5 -1 10.5 -5t10.5 -6l10 -10.5t7 -11.5q5 -14 3 -26q-3 -15 -8 -25q-19 -22 -44 -31q-12 -3 -26 -3q-16 2 -27 8
q-2 2 -5 4.5t-5 5.5q-8 8 -9 12q-2 4 -3 7.5t-2 8.5q2 4 3 7.5t3 8.5q5 6 12 10q8 4 16 4q13 0 30 -9q2 -2 5 -5.5t5 -9.5q5 -12 -4 -18q-2 -2 -4.5 -3.5t-5.5 -2.5q-3 -2 -5 -1t-5 2t-5 3.5t-4 4.5q-3 3 -3 8v3t1 2q1 2 7 4q3 0 5 1q2 -2 3 -1.5t3 -0.5q-4 0 -7 1
q1 -2 -1 -1l-1 -1q-1 0 -1 -1q-4 1 -6 -2l1 -1q-1 0 -1 -3q2 -2 2.5 -4t2.5 -5q2 -1 3.5 -2t3.5 -1q3 -1 4.5 -0.5t3.5 1.5q8 4 8 15q-1 6 -5 9.5t-9 5.5q-6 2 -11.5 3.5t-10.5 0.5q-14 -2 -20 -14q-6 -10 2 -23q7 -13 22 -17q11 -5 25.5 -3t27.5 10q8 4 12.5 9t9.5 10
q4 7 6.5 13.5t1.5 14.5q0 7 -3 13t-7 11l-11 9t-12 8q-12 6 -25.5 8.5t-25.5 2.5q-14 1 -28.5 0t-28.5 -4q-26 -6 -50 -24q-22 -16 -36 -41q-13 -24 -15 -52q1 -30 14 -53q16 -24 38 -41q23 -17 49.5 -27t55.5 -15q29 -3 57.5 -2.5t57.5 4.5q58 11 110 33q14 5 26.5 12
t28.5 12q6 3 13 4.5t15 3.5q8 1 15 1.5t15 -1.5q14 -2 29.5 -5t28.5 -9q29 -10 50 -34q9 -12 14 -27v-16t-4 -16q-5 -14 -16.5 -25t-25.5 -18q-28 -13 -59 -7q-14 5 -27 12.5t-24 19.5q-4 7 -7 14t-3 15q0 10 6 16q2 3 5.5 5.5t5.5 4.5q16 8 30 8q8 1 15 1.5t15 -1.5
q16 0 29 -7q7 -3 11 -10q3 -3 4 -6.5t3 -8.5q-1 -5 -2 -8q-2 -7 -6 -7q-3 -3 -7 -3.5t-8 -1.5q-5 1 -8.5 1t-6.5 2q-5 1 -7.5 4t-4.5 6z" />
    </font>
</defs>
</svg>
